<mxfile host="Electron" agent="Mozilla/5.0 (X11; Linux x86_64) AppleWebKit/537.36 (KHTML, like Gecko) draw.io/26.0.4 Chrome/128.0.6613.186 Electron/32.2.5 Safari/537.36" version="26.0.4">
  <diagram name="Page-1" id="S3I-qhVpeek55ziQo7-3">
    <mxGraphModel dx="1257" dy="780" grid="1" gridSize="10" guides="1" tooltips="1" connect="1" arrows="1" fold="1" page="1" pageScale="1" pageWidth="1100" pageHeight="850" math="0" shadow="0">
      <root>
        <mxCell id="0" />
        <mxCell id="1" parent="0" />
        <mxCell id="QThOkOYovAdt5dILF7DS-1" value="" style="rounded=0;whiteSpace=wrap;html=1;fillColor=#f5f5f5;strokeColor=#666666;fontColor=#333333;shadow=1;" vertex="1" parent="1">
          <mxGeometry x="280" y="210" width="730" height="410" as="geometry" />
        </mxCell>
        <mxCell id="QThOkOYovAdt5dILF7DS-11" value="" style="group" vertex="1" connectable="0" parent="1">
          <mxGeometry x="790" y="250" width="182" height="80" as="geometry" />
        </mxCell>
        <mxCell id="QThOkOYovAdt5dILF7DS-9" value="" style="rounded=0;whiteSpace=wrap;html=1;" vertex="1" parent="QThOkOYovAdt5dILF7DS-11">
          <mxGeometry width="160" height="80" as="geometry" />
        </mxCell>
        <mxCell id="QThOkOYovAdt5dILF7DS-10" value="" style="shape=image;verticalLabelPosition=bottom;labelBackgroundColor=default;verticalAlign=top;aspect=fixed;imageAspect=0;image=data:image/png,iVBORw0KGgoAAAANSUhEUgAAAUwAAACYCAMAAAC4aCDgAAAA4VBMVEX///8xYZIAAAArXY8vYJIVFRUZVYs6OjrR2OPg4ODIyMgfWIwsXpDS0tK2trbm5uarvdD09PTU1NTu7u6Pj4/a2try8vLh4eGsrKwAPnwyMjITExN6enogICDCwsJVVVViYmJtbW2WlpZ+fn4ARoFCQkJ8fHyIiIigoKDF0d9kZGRNTU0qKiodHR2kpKQJS4Te5e0AO3u9yNeCmbabq8JOc55bcphwhKWfsMUANXisusyPobuersR2k7Nkhqt1i6pUbZZkeZ0AGmkAJ3BFY5Bpiaw+apdVe6IsSX17hqRPX4mWu7cFAAAUoklEQVR4nO1dB3viPNZ1AVFkIMZAaKETIBQ7lAmBSdsl5N39/z/o05VscJEg2ckkfMHneYYwluvx1W26EpIUIkSIECFChAgRIkSIECFChAgRIkSIECFChAgRIgQXmWStlmsMy6PusJmu1S6/+35OCEYin83m8xmd11ggbcl0OkX2yMD/9Xy63r1SPIh26+n8197zKcJItRv1EaNk3G00qsXLzL5Vv2w1YnvOrho3xeuuIkC9b3zfc5wAJk0uK9dFJqP9oYg4ZTwadRtNgnq5vBfT9vnS2RdSpSixXKro6chj1/dWOunRCPlay5HXHldV/Hik7cevtCfpVAG26Kn0JCCrzUlyf0xy0sqlRee7YQcUv+DeTww6e/TGpBBsS+YcRss18RkKVnwwGMStvSjqPXZOzil/NPQyPHZV6NLoySrZo+UQVbAIXBxZC3WDTQa8Wazjlr1fG057dV6GXQcN2LX7rxWfv778Inh5nS33nBWSzKxb88fnDUIIq88vD1NbEK21iWWCCHyoyEQvK3ZclirP7Fc/0HcCnrhOv+mrF7NjYlUjUDEi39W7dXzXdfXlc8nEGtAWkTXCWud5xqTQejEpkzZUE6/ZUe0zY7NFHveGfvuNOqqLEippKiqZT79p88o0benbA5WeL1ij91DSsKTbc8Dm2fT0FHnYIXyxsOljysE98KJvOtzGSAet4PCCirwNnQ2VWupTZQ7cwE8CuOLwN36v8amUOyCY1r0qaN7RdudjWy1Rlimb3/iAX4gaeVJwFq1bgVjK+AWaS6JmSltnDueal/wsr2Ez6JHcdz7jl4EI5pj8sUyRXMolaEZiuWS0PYHBmfs1gUnZrBI2zyEWyttRyh3icgR8QF99wYe5JLs9QyS+Nv1vAtRthlzkgMP/Y0C6YIX4hHG+cSFQZYkjcRxgGdgMvJT7gUSdr+o3P+hXYMzcooVQ8swB6IDjXBI2MXTljf9MJtnaOwsyC6wDxoVsqRuy1+PRTm6zCWf0i2ZnQA169+crzTTzqOcHNab1jk5OgX6RU059Jh3NqNKM/vzkJiGzS/5oQlutEoW6FlLtB/WQZt7d1Sey7Sz89haNynVhL8fAxO17uSTGO07O5iVTAzf1LMhsUMswEJIJCm/63l4OzG10/wEa9P2zILNMw5+VkExEevnTEX/dAxM6OnYHABFG5ujn68wRtT+/RUpRvSP7+GPEw+iQMH3gFk27m5+BNa9QMmci1wfkzPoYmQj437iE2TZAN9/9qH8fjMw7UUcGeyJ2mwQvgIjm1KU3MCPzDJx2RuZClOQo6R9UmQ556v6MaE39zPZ3P+rfByNzKyITQ04YvkTkQI6dA5UOq90X3L5mxLyg7mz/ux/178OWTIHwaUT/GWBMsNkxER0SOkAl6qizKcHK8iROShZ1Z3++ZyRdUTLfBBzhNZCplTqzKU2l69NfJZGAardrl/Nj7U1aR6cDQT/fmEsxSqZILSJizKf/uhu4DhgIMu6qarnPa7msFvlvXSmfAZk3h/zMiLkk7MXtXXVGhyDBZNLW+HQ1X04HbjLBM9IVpfddT/iFmNAMnCgC6kzt3awplB5sXoHYOW9nE/Zc/XOr4hIykYtM+kIyZ2F/wMy2xbF5iXXw+J1pYvP5cYH+TTboarCja5DJnN8vLaJWEYRN+3Qy2J/+Sdof3bDig2ncMgQaqGANLpYXU2F7ADU6Zi5KWILPLlm/SpjZIiJ7/yIfD0GlAK1W5w12iZugaXfWPALDcdXTG+q15g9bBGU+5N92dsFpf1VJK4b2t7Xbakjr9doK7A8wWAGCIMgBMldsvJyRKW1W3PEi6OVTEy2hf2uQT96FQCCmevfU4h/j0cSMKCBMJf7x3NMeJ+0qa6btSF7tGzE24xIXUeWK9MAt35yDzpwh1qtvQSsObmdcOYaBojWSzZJZ2v3HbllRlXlaZZpxpEYQXq8GccuKT5ePxH1G27206Y9I1TCerQaWRbr6fAu7y7t28h8BmUNFSQpz6Z0LsDe2iuws1gtTVsm1gjt6+SOXfXP8zFKBuuwnVaSpI1nT3D3beEWyunDu0cCqjN+mrnbrAUU01TlCTGaRmvMp1wLRSHC1K0BSyUVoRUIwLwLdfOWQSYy59GzvohHyiZdZcV+ynwP0AO12u1dMfTXTaxyJ+OhYYRnP2FcLagD9SjQuE+G1N4rJTCpKU+w8LoFnj/EG4xzM2IG2dM4RAcu+cTVcRr2O0ShQMf/FSgDJeO7f9qrKGu3IxlbT/FRLtKA3gtlmMZmZsTKS9g/v42juJzMCavR3oFoOv+29IU12uU/Q5YnHkHJfMhZVrplUtqvV5rCsVL7WpSc+MAqk/S1CEe3ZDziCecbaIiRvqZMkJlPqKlFdVIQQJJOmi6cdP5kR2rVZ7kndQmjO9qDlIEOl7LkiIdPzLOlo9EuLZ6Y4ogU1y0JTX6GRMD0NHiNRYWEuzQEym1Rp8jPA6HeATOpRBnPvMFhhWyAg0LDJBFtujJWW54qETK8Ln1cqHwrdk3/mti5xZBG83BvGRAqA00fBcXNbZg+QmaR+C7/WiKMzVaKm9SCZ1MVk5wCbo9v2B1k0yPIWDgfIhOqZxAfYSP0ZmUT4cFAyl7P1DJwmfienIG0gmgfIzNMyBIsrmUDmhZdM7YlLZkQjp/rFKKQGiHZ5WtlZtuvldwiSmf5Y/eYfkgk6U0TYg6pthQfOsQZB3gEywdMkny8ct526RksfmXdcMuVbC8ra6dd/JMc1AmuVCHjsQTIzHxsi+kMyiYRR9cjDVsPB0NJBHMuQaDxEZpMNUPJEE8jw+fMiMmGkxy7l2DntEahIaCkVn+kMkql/LZnEtUMzrpK2SG8a8BoYIjIaHCaTjc9wlSY4lQ/ByiEemXJHcrJzEA7Rd0MD3iBPQTLzu3xnKpdrVnM5tyulT3K9arOX69uPr9sGiKk9vZjrNds5OlfWYPkd+Cjmctf2dWs0RnD3DoPcJt7OOV19iiLbAyHENgIO6iEyDeq2Gzy3/V4KhDsQJxg8MkG/sqokGg7B6WBsMx20LUEyJ3ZhcTHq+PEV5+ELddfETZ3tq4yj9uwio71r7MErqVGDmk2wTXB8a3/0/qKWSWIgjNDr0ucFTZG2EHMpPapg6g+RSaI9uOwdZ4Tylmz/5d0OrueAJ8URVbd1ArKzRnTMt+43PzwyuxUavBOFM+ynjEyyX3eKFvSoUslRZyBPaAEHKtnONSuVVq7XztDy7gYcUWvFCFkjSDMklSvCarnVahGblikTlkHMEy1PJbi+RghrMiSG1IfpYNflp/ggmTMVmg+S2WMlmhzR7Dgjva5NA1fuwyuakKW6tfkGrQE2KcGmchwms6pQT7TqMlW1MXQXkMPRTrCzjsZI2DrTUCqjHUF9pRdjZMaunfPoZWXoHG40lIprppw+mL2ZCKvAKN6+XbA+vzpM5hIfJTNLHRNeFQyJawyflQdhfeKGS7QA7rfJ/HoSqKsvEj8tTMhMZRxcJtLEnYgxheBSbEn2FmLu4oUW3W9vgNoeDzanRIHMFPkzsTc1lPL+tel1Jea5D90YzJ4WGEFiA8lP1nEyV8fJJDaiIfESxBET5p15pDCyAWHlD1BSrYk0RmaHZpYveYM/sWj0agc2jRo4qnvLkao0a624o6ekHeTbZBZ83umowsisjOwNeW+3yFc4UatuERHdIhDQ5dFuvqaO5mEyrxUIljnVW5Bve/bK6lw8yBGBCQIr05ZMCNH54xWEzGi0QhGtEF6bdD5xhiZWPczlIXPQ3G8qpJJuyUz7BuOLCiNzR3FRKXu8sqbIAbOmxJWLoAsI248YoIdjZBbpG+TUtFJr7uEYSl9+i6o5wdcksQ8YoLjZIRfMVHiRDXRzw0Zm97RpP+9lkKMJb6UPm8yqEvVvTjqfFHXl2rND4BIuXACb0oA8rDCapK7R8hiZEnWOpPsAO2BtPBGQCu/tWTiXrVMAU09dIzq6xkTej6A1B/S8GWQgE14EXaKh3k/XXA7Wjkyvo5Af22Q6Xip5rFraheIhZ3+JZTzVt9QtF4HIS/womUM6EBRMoIOoeZxK8MfF86+YM/SrQwh8LDFTzgu5+WQ2feaB2B7aKYtVlkyuXJUn9lINOzKbngMSV7bOdIy24lqWxYYBfXrAy7EZ24i6lhaak3DnYMrk9giZRfo2OWMXMOjgst10EEI8MZBoASgbJmZLwg+UnzGv9ppPZlUZ+XZzoqKCkW01b2Dliwoz0zsyh54DsrYBijomnrzLTMIDoHlqog6PhFfwyIl8qkKaHqjPfozMDPORgyIH/dwlmnRS0KHZahgid/Le4yWDCmaLdzU+mS1/H4x5HQEjkYzZ6tAms+c7Iqn4yCxzM/gWkk1eyPgKHrlFIqMVpxGgm2wY6AiZxGiC3QtORFOhuP/3jmRsHJsUdMvU938gKq8rV9w4l09m3mebjSvvYIfEfHD4a5OZ9Gnknp/MnM9667RcykAyNzNEJPMVpI+mEHmYYTZucYzMNL0PTpUMDPZKT/Z2DEJ+eBoliCbpmP9ITtaZAz6Z/sH1mlJJSMWYZ5JGkw2A2GTq3rEjo2I77RWHzLRXzehd6k/riwg4OAE8apD4trAoP0fYYQMax8gkYgDvnJPTNOF2ZqyOELwd/qDwHiW43n/AIo58Km0HQiZv0Z+219O5AvOS8qZJqh4yoYTJ5ZrWFT+Zktczq9nR+UyVOSUZlhqhArtCzMULtGsRzAY0jpEJQ9sZ7kgQlkGyp2oHIqECP4nsAQz86exJ96Fw3s2egEyj4g6BmvSGfLM0Ysx+7zRClwRYtibJdpV+zE+mp3PoTsrfMGVtEVBAD4QjelYYngxa9AGxvrY/f5RM8rInfOOCVXqJ1Qu6hS4cdEb9ZP6iJyTWZ5jNZlOpVPEmVlYqsX0ULSATdE3dVpOpuh0JFl2ps8yNHYuTILWXkaDLkN1G9VY6nSO0FlnWKOXOZ+TonhS12C5QX0P9ho+PJaLRHeCRsOlr1kkgSYcs3kUm0Sd08CIYUqKNbRcMi9z+9L+bg3XtxGbd007S4Ll4DOWKYPgsTSL1+k27ejMkHNlhNLEq48Z1v5hr3oyVsb2xSdqHZSC2Vmcp0KtGSrq0yXQvo1QcK6Ob3qRfJbQ3dlclwaOmPuwXDTPiZAvejUo+YI0Yo7jTrFvzLeEl4lQjEX0wv+Bgf9UW1T9Bhxxv6Pl2pEv64PmQPUebAdxE4aZMPObKKBZr1lLZLORwd45OvRvzDlfukOmx5TmjsdaO+lQzFrU3OkIm6a1YbNRl3CRSqWQqBaLOnPZ8t+s+e6bNTjkaupMca1WVVbR9mM3m69nsaQuFWi6zM90SOqF5vSTNb5iIparJGmbOvgoz6wNArqDeYNrJrxJVmCIttSstt1l8FbOJf+0fI5tN7F4CkaXuu0qKsrVaLekT3EQSNvpUQ3AMJ6UEnCm2nRxd80UP1gOGUkEVPjF8bj1RpL6SaTvbSUWkeYo1lheTEOUuwKY7Q1JVQJPFvVnNCBQX2Kn/9m5hPXsgl4dbuGk96MYR3Xcd2PinmPR9eabYR0rApss3xBYDlGerYHYjvnqkzcjUHpbQbJG+jl7JFaYDLtx6NMGyHd4sxi3s4SytCRZh/m+wQgPRdEpqBp/uO3h3d8ZgDvzm/sYSZm1vpmMYHCH5XDxi9VBOyY0GE033TH268kvW5hLi4lVJNiGZIcpowkA7LCuhmaa6XSy2Mr7fwPvIKHaS/FPhrRUpCnr5J2Imv3eed4qJpiuP0YEoNc+oHIP9iEPFFgyLi7xNyK4/QKlxBNStijsq1TKZq79TOxxTRg5/+uQrpse8X40MqVOh7/KXCGQwUSFGuXtDV8+0EOgAUKOiWVgQmkM5OKhuZOIFW0YzP2YrgXw6YBHVerVVnOSa3RObapRlj+xk3Kn3XSgrN0m7L1kqUEi7uWhO9W0B5im8beXt22w6sN8jtV9/Z+qKXrT9JmV887f7+AfRZDkztjwegtJKqV7fqbplCRhEz/BdROZ98KRJuiD5X3zSVC2drp3eAp0GK5OQVrdILT3DlqbdO63V3T0NNdlcH+lF4Bvd+s9YZMOPJyY1X4K0HfVZsyeaIc3RrMvqmXhbIIqqadqJUwGZtIA4lYJTFLLJ5LW9/n3sPH/sgnjurpq1PiuhMNYvG7PTMdWXlVMYJVg6AfIqlyR0i5FobxeTdyeiq/1wQL5j7IQVdJ11pox012LiDfE6FDBinvdkN7qN1BnMjRbgsgL1YjVd1ycsQVDxlQqlYpDyEZAJI+ZQbDMsj0blbjOdPKNlsHmgbDJEU0y4+nvZmkCBXwJG47kqE1RqkS4UG4KhanM51CXD+SGGbm9SbDkpSiGZtDKzp1x99xOcEvI9EqZVmebU+zceHdhvKAe6OUSa9ZBML3TdZTUKevq62iBasN4s6jBQQMh845IJVXMkKBWMo4XYwTCYy1Q/tEQXuJnd04qRTxqNA2TC3LTMOFgqHEKA5oG1e2BIKuUrswxxANcHyISx0mRI5vuRO7BGJHhGaVcNQIgjmFAy13wyB+Bm/oXxiZ+KIs3SLXmDvRFwM7uhZ/R+sDU9VtyRcygTvQrJfD+KdGiMS6b6LMHSPie2hNEpg613NuXNUQPPKHseP6/ySUjSGVjcSQJQ1hhY9iDEAVzSnxzgzquCCtJiSOZHwH5Vkbvso0VnK/78xe0/DxVKFw6mjVT2SwFnsB7752FEB245q1DAugeJs1hC/PPQpOVwvGUf2RJ6ocr8AGoKnZf37A8o6W9Msh9kC/Fe1FiBht+ed6AEqXVi1VMnD33Eppd6fvAP0Z+oSijcWbwhxIARNujL6w6mdZgaNjFdk8HonssPn34eoJK4AV/iCyj6RpvXKRXHy6HinzIe4iiqDpuSER/EnSLvohJ28v8FMPW77K0SLMZCLv9HAJtK3UkP5dOs8KMdptj/JwzZrK9yvVkv28WDjXMsaP0cpGPeysH2Cf7cwv8f6MmbLq3Nv+oO0/mwg/8xLpPJZCoUyRAhQoQIESJEiBAhQoQIESJEiBAhQoQIESJEiBA/F/8HbhDaX8duLnoAAAAASUVORK5CYII=;" vertex="1" parent="QThOkOYovAdt5dILF7DS-11">
          <mxGeometry x="2.6299999999999955" y="4.579999999999984" width="154.74" height="70.84" as="geometry" />
        </mxCell>
        <mxCell id="QThOkOYovAdt5dILF7DS-30" value="" style="shape=image;verticalLabelPosition=bottom;labelBackgroundColor=default;verticalAlign=top;aspect=fixed;imageAspect=0;image=data:image/png,iVBORw0KGgoAAAANSUhEUgAAAgAAAAIACAYAAAD0eNT6AABA2ElEQVR42u2dB3hc5Zm2B7Dk3nuTZLlb7jaYmt6AkIQEkgAh4U92+TfY6t2y5LGKuy1XWmKckLax1XuxLclWtURN2CWb5U82bHpIQgmEYp//O2ONPBrNSN9ozswpc9/X9V4ssBAsWfPczznfOa/NBgAAAAAAAAAAAAAAAAAAAAAAAAAAAAAAAAAAAAAAAAAAAAAAAAAAAAAAAAAAAAAAAAAAAAAAAAAAAAAAAAAAAAAAAAAAAAAAAAAAAAAAAAAAAAAAAAAAAAAAAAAAAAAAAAAAAAAAAAAAAAAAAAAAAAAAAAAAAAAAAAAAAAAAAAAAAAAAAAAAAAAAAAAAAAAAAAAAAAAAAAAAAAAAAAAAAAAAAAAAAAAAAAAAAAAAAAAAAAAAAAAAAAAAAAAAAAAAAAAAAAAAAAAAAAAAAAAAAAAAAAAAAAAAAAAAAAAAAAAAAAAAAAAAAAAAAAAAAAAAAAAAAAAAAAAAAAAAAAAAACHDgp1tD37hey8og83nTz4vNZ+TnLue0nY+e2Lg8J0FAABAAAAAAMAXAdA6/LUWAE/hjwAAAAAYTACC0f4RAAAAAD8EwKztHwEAAACQEIDFu9sUT7NIchbukptoyVmws1VqogYZvrMAAADDEACtwx8BAAAACEEBCGb4IwAAAADDEACzt38EAAAAwAACEOzwRwAAAAB8FAArtH8EAAAAQGcB0CP8EQAAAIAACIDR2z8CAAAA4IMAWKX9RxYgAAAAAAgAAAAAeBYAK4U/AgAAAIAAAAAAgCcB0OvRv0CFPwIAAACggwBEIwAAAADWEAC9Hv0bTvgjAAAAAEEWACO0fwQAAABAAwEw+ot/3MMfAQAAAAiiABil/SMAAAAAfgqAGV77iwAAAADoJABGCn8EAAAAwA8BMGv7RwAAAACCIABGC38EAAAAYJgCYOb2jwAAAAAEWACMGP4IAAAAAAIAAAAAMgJg9vBHAAAAABAAAAAAGEoAzLTyFwEAAAAIsgBEIwAAAADWEACzrfz1NhEIAAAAgPYCYPT2jwAAAABICoAZV/56C38EAAAAQGMBMEP7RwAAAAAkBMDsr/11D38EAAAAQEMBMEv7RwAAAACGIKKg7WsIAAAAAAJg+vBHAAAAABAAAAAAGI4AmC38EQAAAAAEAAAAAHwVADOGPwIAAACAAAAAAEAgBMBo4Y8AAAAAyAhATrXiaaKz5WaB5ERtq5KaSMmJyPI+fGcBAAAMIADBDH8EAAAAYJgCYOb2jwAAAACYSAC0Cn8EAAAAYBgCYPb2jwAAAAAMQdSujqjIXa0PBHLm5Qd/+M4CAAAAAAAAAAAAAAAAAAAAAAAAAAAAAAAAAAAAAAAAAAAAAAAAAAAAAICBWLa/4xtf/eHPFG/zFcn58g9elJp7ZedpubnH0/zgxcuyv/6Fu9u//qXvv6A454uSc7fsfG/o+YLkfP7k81Lzue89L/3rV3cB3PXU84oW89kTcnPnieek5g7Juf27A4efbAAACwvAPRoLgB7hjwAgAAAAhhMAU7Z/kwmA5uFvcAEIRvgjAAAACIC0AFim/eskAEZq/wgAAIAfAmDa8LegAPgU/hYQAH/DHwEAAJAUgDUHOxX3WX1AblZJzsr9HVITIzkr9g0y+zt8EoBle9sVmVkqOUv2yM3i3W1Ss0hyFu7qnd1tPglAtPhnPM2Cna1SEyU5kQVyEyE58/MveB1+sgEAhiEApg7/EBWAvvA3uQBoEf4IAAAAAqCZAJim/WskAGZu/wgAAMAwBMD04Y8AWF4Ahgp/BAAAAAHQRABMFf4aCIDZ2z8CAAAQIAEwdPiLWY4AIAAAACAvAJZo/xoLgOnC308BsEL4IwAAADoKgG7hjwAgAAgAAIC8AFim/esgAIYKfz8EwCrhPw8BAAAwtgAEJPw1FIClCAACAABgZQGwVPs3qAAELfwDLABmCH8EAADAAgLgc/hrJACmbf/DFAArtX8EAABAQwEwTfs3oAAENfwNIAB6hz8CAABgcgEYVvhrIACmbv/DEACrtX8EAABAIwEwVfs3qQBoFv4mEYBAhj8CAAAQAgKwXGMBMH37D5AAmKn9IwAAABoIgOnav4UFQCr8TSAAgQ5/BAAAAAHwSQAs0f7VR/o0FgCztX8EAADATwEwZfgjAJYQAH/CHwEAAEAApAXAMuGvsQCYsf0jAAAAfgiAacMfAQgZAZiHAAAAIAD+CIBVwl9rATBr+0cAAAACLACGDP8QFoBoBAABAADwRwBWIQDmbf8aCYCZwx8BAAAwgAAEPfxDVACiEQAEAADAHwEwffvXUQAM0f41EACzhz8CAABgEgHQNPzFLNvXrqkAmKr9IwAIAACArwJgifavkwAYpv0HSQCMHP4IAACACQRA8/BX3+qnoQCYrv37KQBRCAAAQGgJgGXav4EFICjt30ACoFf4z81DAAAALCEAPoW/hgJgyvbvhwBYpf0jAAAAkgJgqfZvcgHwu/0bRAD0DH8EAAAghASgL/w1EgDTtv9hCoCV2j8CAAAgwZK9XV+3VPtHAEwjAIEKfwQAAAABGJYAmDr8hyEAVmv/CAAAgEYCYKrwRwAsJQDDCX8EAAAAAfBZAEy19EcDAZiXKycAZmr/CAAAgAYCYLrwt7gARCMAQ4Y/AmBuptg7J4zb1rKcrwQAAhA0AbBE+w+AAJit/SMA5uWWE63jbzn+zMUPPdbz7o3Hugs+Ym8awVcFwMACYKjwt7AAREvOgl0IAD/Z5iPK3jTqlqMXOz78WI/inFuP97y48UD7Or46AEEWAFO2/2EKgGXav8YCYMbwRwDMR4z9pfBbjz/T7Br+H3r0ytz2aM+7m4717ORqAIBJBSBo4W9RAZAOf/WtfggAAmAi1GC/7Xh3vWv4uwqAc2453v2zDYUd6/mKAQRYAEzb/gMoAKZo/xoKgFnDHwEwEXb7tbce764YKvz75rFnuBoAoKkA5Ncr7rMyr05qYiRmRa7cLN9RKzXLhprcWp8EYIm9RpGZxdvlZlGO3CzMqZaa6Gy5WXB1fBOAbVWKp4mUnIgsuZm/tVJq5knO3Ezvw0+2GVCuEa3+lHv4L9vboczOvaBsOnLRqwiIswHPbHq8czFfQwCNBUDL8A81AdA6/PUSADOHPwJgDm4+evFJ9/BXrwJOym5WJoqZlNOsXs1TzwB4kYCLb9xQ2HUfX0kAkwuAZuHvowAs2Nn2oMXaPwKAABie6w91PuIe/uqtQmf4u463qwGqGNz2WM/lm472HFKvJvBVBfBTAEzf/k0gAAFu/0ETAKOGPwJgbNYd6VwhDv297Rr+qw5cCX9PAtB3NWBv/6sBt7nMLcd6mm599MXJfHUBLCoAyyRn6Q5tBcBk7d9vAYhEACBgOO7797iG/5qDnYOGv+vM2nHlasBtbgJwm+OWQPcrGx/tXsrXGECSZYXPRS3Z3/mgnrNoT5vmI/vrj9rVEbVgt1iJG8SJ3NX6QKBH9tc/O78tcl5+6wOBmjkFrffrMfxkG5NNx7oTXMN/rQj/yTnN0gLgvBqwvPdqgIf566bjnR/lKw0AAGAQVu26MPm24z1/c4b/+kLfw1+dCduaHKM+Cnrzse6BEnC85x0OBwIAABiEG492H3WG/41HLypTt7f0hf9wBECdaeLfsfGwp1sC3R9cf7TnEb7qAAAAOrK88Pxs0cwdB//Eoh/HyX5/w9856j+vPkHgdhVA/ePlG452ZfHVBwAA0IlNh3uOO9v/0r0d/cLfXwFwziLxJsx+AtA7Nxztzuc7AAAAEGSid/dMFEH8lhr+m8Slf9f7/lqFv+u5APFIYD8BUEfcDtjJdwIAACCIbCzsynK2//liJ0Qg2r/rzLCfV2462j1AAoR85PLdAAAACBK3HOv+tRr+Gw51BTz8x2ddGfVw4KYjHiUgg+8IAABAgFm9t/0zzvY/J+9C0ARAnSniVsP16hMC/STgmUvXH37mYb4zAAAAAWTT4c4i5zP/wQx/50wW//zGQ/0lQLwx8P0bDnfdzXcHAAAgENibRt3ae/hPPZynhwCoo/5vbXCRACEAingd8VvrjzxzI9+kECfmQMdDD/z454o69//oZ1Jzn+z8cOj5quR8RXK+/IMXlS//8EXpd8GruwDuFf+M13labu6RnC99/wWp+aLk3O1pnn7Bp10Ad39P/DO98wWJ+fzJ56Xmcz7MXU9pOCef92kXwJ0nnlMGmzsk5/bvajuf+Y7cfPo7zw4Y2V//zNzW+z/15LOK63xS4/nEE89Izccl52OPDz1G+GxdV9j9oOPkv3h3v3v4TwpS+LtLgBr+zrnleM8f1x17NpIURAB0Cf9QE4CghL8fAvAFnQRA0/AX89mnEIDhCoAVwt8oAnDTke4yVQAWiufz9Wr/A24HHO7qLwHHun++4YmeMSQhAmBYAfAp/LUUADO2f4MIwOcsIgBmDH8EwAACYG8aIQL2DfWlPFNyWgIqADLhr844VQLEwcAbjvS/EiBeS1xOEoawAFiq/ZtcAPwO/2EKgGXa/wkEYLgCYJXw/6gBBGDl/s5Pqu1/1YEOQ7R/pwCoo+4gUHcRuErApiOdOaQhAmBaAegLf60EwKztHwEIugAYLfwRAP0FYOPh7iN6H/7zFP7OUV8WpG4SdJGA99cf7foYiRiCArBevKBiqFlXKDfqfmuZWSM5qw/IzSrXOdjpkwCsFIs03CdGclbsk5vlkrNM7PkeapYONfvafRKAxbvbFJlZJDnqPU+ZiZacBTtbpSbKObtafRKASPF2Nk8TITnzxYe8zMyTnLl5cjNnkPFFAGbnnlfUmbVj6JkpOWrAyMx0e4vUqC+2kZmpvaP7/f9jF58TJ+0D+trf4bR/11F/n7idB/j9uiPPTicVEYCQFgAjhz8CYE4BCGb4D0cAZMIfAZBjur1pnFjH+776WWK0y//uE72zzVUAFHFwsZ5URADMG/4IQEAEQOvwXxio8NdIAMzc/vUWAL3DX28BWLm3/bPq5f8It/f+Gy38naN+RjkFQB2xOCieZEQAQlIATB/+JhGAaAQgYOHvqwBYrf3rLQBrD3ft8XT636gCMGFbs+Nz3ikANx3rfmvt4c7FpCMCYL7wRwA0FwC92r+sAERpLABmb/9mEIBAhr/eArDpSNdZ91f/GjX8nTM5u8XxwiKnBIinBDpIRwQgpATAEuEvZsleYwtAQNu/xQVgjk4CYKb2r7cA3Hys549LdrebSgDGbm1yHAR1CoDjVsCRnjgSEgEwV/gjAJoKgNHbv9YCYIX2b3QBCHT46ykAM+1tMz4k7v/Pzr1gqvB3zpI9ba63Av5+/fGLs0jJEBUAU7b/YQqAZcJ/j7EFIODhjwA4mpyWAmC29q+nAKzc13bnrW6P/5lJAMZn9T8PsOlo97+TkgiA3wIQtPBHADQTAFO2fz8EwCrt3woC4E/46ykAawsvZm4Qn51mDH/nqF/Xm/tuBfRc2nC451aSMsQEwLTtP4ACYIrwN7AABCX8Q1wAnC/10UoAzNj+9RSAGw51fX/Z3g5TC4A60bta+64CCBnoISkRAHO0/2EIQAwCYJ32P0wBsFL7DxUBmGpAAbjxcFdb5M5WXVb+ahX+6qh/33krQL0asLGw6z7SMkQEwNTtX2cB0D38DSoAQQt/BEAzATBr+9dTAG462vWq+ms1c/t3jvrrcArAjccu/sJmU64hMRGAgAiAZuEfIAEwTfsPogAYsv0PQwCsFv4IgE4CYLdfK3YAvK/3yl8twt85S8Xnyc19VwG6v0liWlwATN/+TSAAAQ1/DQTA1O0fAdBEAMwc/noJwBx7a8T1h7ss0f6do/5v3yBeEMRVAARAdwFYJTkrD3RoKgCmav8IQEAEwEzhjwDoIwBLdrfeuupAh2FW/vob/mO2nnNMRH7r1asABzu/SmpaVAAs0f4tIgDDDn8/BcD04Y8A+C0AZg9/vQRg7cGu+9VL5lZp/04BGJt1TlEfbXRcBTjS3UVqIgCGFQDHW/00FADTtX8EQDcBMEr4IwD6CMC6wo4k9fefkQXA1/B3zpy881evAhzpvoHktJgAWKb9h5AAeAx/PwTAVCt/BxnxGJamAmC29h8MATBy+OsmAIcv7pq144Kl2r/rrC+8chXghsNdPyI5EQDLC4Ap27+BBCAaAdAl/P0RgJkIwLARBwC/M1WsADa7AHgKf9erAOq64KV7WseTnhYRAEuFPwIwLAEw3cpfb+FfoK0AmLH9G0UA9Ap/vQRgQ2Hnaau2f+c4zwJsOHTxEdITAbCsAJg2/A0iALq1fwsIgL/hP1wBsEr7nyIW8ejxWbr6YEetVdu/c9Tf66oAbDpysZX0DCEBME34IwA+C8Ais7/4xzX8NRQAs7Z/IwiAnu1fLwFYvrftvJXbvzrqv0t9L8CNx7ovbSjsmU2CIgCWEwBTh78BBEDX9h8iAjBY+A9HAKzU/vUSgCV72y5aXQDUWSg+C246Km4DFHYlkaAhIACmCn8EICACYPT2r7UAmLn9m0UAAtX+9RIAsUHvBauHvzrqi45UAdh09GITCYoAWEoATB/+OguA7uEfAgIwVPj7KgBWa/96CUBUQevLoSAAozPPKavF57h4GuCdKHvTKFIUATBO+CMAmguAqdq/BgJg9vZvJQGYaiIBEL8n/jsUwl8d9fe1ehVg/aFnPkuKWlgATNf+gyAAhg5/MYv36CMAhgh/BMAnAZhmb7nfau1fLwEQz8n/OlQEQP133ygE4PrDF3+ibgnceKSr4IbD3U+LA4J14tZA96YjXb8QTwq8Kv74x01Huv8sXiH8J/HnvxfzKzE/F/9/HRsPd1dtPHzxqQ2HL+auLez6l7WFHR9Zsr9nGqlsUQEISvj7IQCWaP8aC4Dp2r+fAmCF8EcA9BGA2TtafmXGlb++hr9z1M9a9SrAwLkoNTd6GSEIr2081N258XDXd9cdufjtNQfa16mrlknrIAuAKdu/QQRAt/BX3+qngwAYJvwRAM0FwGzhr5cAzLR7FgCrtX/32wBaC4CbDPRO15viasN5kUu7Vx9o//iGJ3rCSG8LCoDf4T9MAbBM+0cAhi0AVgl/9VQ/AhB8pm9vecWsK399DX911P/mQIZ/fwHoP+IWwlsbCzsb1x3qTF5b+FwUSa6xAJi2/ZtIAAIS/hoKgCnDHwHQVACMHv5GEgDx3/KLUGn/zlH3yOghAP1k4OjFy2IPw0vq1YF1B7rWkOoWF4BBw38YAmCp9o8ABFQAzBD+oSQAnsJfLwGYlNP0MzOv/PU1/NURnzWOw4DiMJ/js3nZ3g7xGdTu+HmP2tnW7+dS/XPxeSP+Xqv4vGoTn5XtjscJVYnYNMzw770a0G+EDLwsDhXmL+PKwPAEwNTt32IC4HP4ayQAhl/5W6CtAFip/WslAGZt/3oJwMRtLc+EUvtXx/nvUf/vUZIzMsPzqP/tU8Q2RfX3sfgZdnyuqblwg48CcHW6L11/pKt9zcGOfxNnBsaQ9gjAsAXANO0/yAIQjQAYLvxDRQC8hb9uVwC2NbdZZemPTPi7jr/h7z7hGWf7ZmTmWfH1bHL8Hlc/S1a5SMENkiMOEL6+vrDzxMp9natJ/UEEwPThH4IC0C/8NRAAU6z81VAArNb+gykARmz/ul0ByG5uCKX2HywB8DTqv0v9Ps8TPx/q56S6pniQ8O834nZF2+qD3V/l0UIEQEoATNX+gygAhmz/JhGAQIa/FgJg5vav3y2A5lLaf+DD3zlh6VdH/XN1R4H6c7pCZMD1gwhAnwgc6f716oNdqav3vTAWAbBK+KvP9IeQAAwIfz8FwDQrfzUSgNn5rQ9Yrf0HSwCM2v51vAXwNO1fHwFwH/Xfo/6eUj+n1h7s8ioBV6b7r2sPX9y5ateFyQgAAmDu9h8kATBs+zeBAAQ6/P0VALO3f90EILvlqFUEwMzh7zojemfCNvXqQKuyan+nFwlQJaHrjTUHL+6POdg+JeQEwDLhjwAMWwBM+dpfDxOhsQCYrf0bSQD0aP/6CUBTHu3fmALgOmPF10s9O9BfBrpc5uLr6hWBpXtaxyMAISwApgz/IAiAodu/RQTAn/D3RwCs0P71EoDx2c1JoSQAZgx/91G/durP7uoDHW4S0KVsPHTxz+oZAUu/dtgXATBF+CMAwxIAy7R/jQXAjO3fbAIw1SICMCG75eu0f3MJgDrXpV0Z9Xujfs6sK+x0F4FXVu/vvMeyAmCp9q+RAJg2/AMsAIZv/yEkAN7Cf7gCYJX2P1kvAdjafDsCYM7wdx31r0/d3qwsFW8rvCoB4pzcoc6mlYUdyxEAI4c/AuCzAFil/WstAGZt/wiAPgIwJuPcBsLf/ALgOqMzr9wiWCOySJWADYVd764q7NgdY38p3BICsGx/xzfWFjQoQ82agnqpWZ0vN6skZ2VendTEuE5+nW8CkFunuM/yHbVDzjLJWWqXmyX2GqlZvH2Isdf4JgA51YrMRGfLzQLJidpWJTWRkhOR1Te+CcDWSsXTzJOcuZlyMyezQmpmZ8jNrHTv45MApJcrM9LkZrrkTEstk5qpkjMlRW4mJ5c6Ro/P0tFZZ+ciAL4LgFHD3znXpp1Rrks/4xDLJaJgOUTgcNcvVh1s/zACMAwBCGj4ayAAMuGPAFhbAMwc/giAPgJgszeNEI+bXbLSyt9Qbv+uAuA6o8XXKkJcFVhXePHS+kMXn4w53jTO0gJgqvZvMAEIevj7KAARBW1fs1j4IwA+CoDRw19WAJzhr5sAqOcAtjX9gfavvQAYJfxdJ0z8d6m328Qt6FdXHez8PAKgoQAMO/z9FADTt38EwG8BMHv4W00AfG3/OgvAs1Zb+Uv7H3yctwfEmaZ/X72vbYalBMB07d+EAqBp+ItZlKOPABgk/BGAAAiA0du/gQSglvavjwDoEf7OuSZVzJZiZUxc8Z/Hxpd83TwCUPhc1PID7V8P1izZ3/lgMEb21x+1qyPK+c8s2tOmyyzY3fY1rceXX3/krtYHgjnz8gM/8gLQFjmnoPX+QM3M/Av36TGyv/7J9taIaTua79NqJtvPf1WPmZjT8hXX0U0AsprKaP+h0/77wj+hSrnmkVPOqbEBAEBoMTm7pZn2H2LtP6VRhP7p3vA//U9bXNFifhIAAEIIRVHCxHsNXmXlb4i1/7jyvvZ/7SOn9/CTAAAQYjx06j9XzdjRQvs3qAAEpP0n11299L/59Ku2hyvH8JMAABBifOzJZ3fPyTvPyt9Qav9bSvoEwBZbdB8/BQAAIca9p9pHf/h49x/mF1yg/ZtYAHxq//0P/p3npwAAIAS58Wj3wdse7XG8N56VvyHQ/pPrXQ/+vW/bUraKnwIAgBBj4+HOz9/2aPcHqgA4zwDQ/i0uAC6X/q/dXHSMnwIAgBBjQ2H7F0Tw/0MN/1uP9ygTs1n5a/nwj69wvfT/J9vDpybykwAAECLccqJ1/E3HLh679dGeS2r4q6OuL6f9W1wAkmtdw1+xPXL6//LTAABgaZRr1h1tnaNe7r/pWPcJccn/787gd47zCQAEwKLhn9qgXLulyPWxvzb194XH3y5f+/HPFfd5QHLu/9HPpOY+2fmh3HxVcr4iOV/+wYtDzr2y87Tc3CM5X/r+C1LzRcm5W3a+JzdfkJzPn3xeaj4nOXc9pe189oTc3HniOam5Q3Ju/66285nvyM2nv/PskPOpJ+XmkxrPJ554Rmo+Ljkfe1xuPio7j8nNRx7rkZoPS86HHpWb2waZtQc7Of1vaQFoVK6NLRb3+/va/zu2LUXLvPricAUglMIfATBW+OslAKEU/giA9QTg5mPdytTtzT4JAJf/TSYAcaWu4a/YNhclDXrBiPZP+NP+EYDhCgDhb47wv0WE/8wd52n/GgiAYcM/ocIR/i4C0DDkHSPaPwJA+9dOAGj/CIDRBGDj4YvKdHsLW/+s3P4Tq9zD/7e2fyuZ4ZMA0P79EADaP+0fAbB2+D9urvDfcKhLidzZqrD1z+Jb/5Kq+8K/VwDes3379G1SZ0Y3Hu5SnKP+hpGZ9RKzrlBu1EMpMrNGclYfkJtVkrNyf4fUxEjOin1ys1xylu1tl5qlkrNkj9ws3t025CySnIW75CdachaIDz6ZiZKcyAK5iZCY+eItbDIzT3Lm5snNHMmZnXteambtkJuZkjPDLjdqm5UZsfFOaqZKzpScZqmZLDmTsuVmouS4B723Yeufhdp/Uo17+ItH/k5tkX5oJBDhjwAQ/oEQACuEf6gJgFXCX2sBCKXwRwCCE/6OeeT04z49NaqnAND+EQDaP+2f9o8A0P59FAC3y/697b9BbHu6zmcBoP0bRwBo/7T/UBOAUGv/sgJA+0cAPB/4Gxj+124+/Zy49D/O5/dGGV0AaP8IQKgJAO2f9o8AEP4eBSChcmD4byn6L6kT/x6XRBzqpP2bTAAIf9p/qAlAqLX/SYQ/AuAuAC7P+V8N/1P/I5b8RAx/S5QFBID2jwCEmgDQ/mn/tP9QCf/Gvjf8uYX/q7bY0oV+ronspP1bUACsEv4LCX8EQFIAaP+0f8sJgLrYp/fd/v3np7/xO/xV1hd2XgoFAaD90/5DTQBo/7T/UBMAS4W/WOmrbvXzcODvl35d9u9/BaDjA9p/aAqAVdq/rADQ/hGAqSEmALR/kwqAp8N+Vy77P2+L//FMzbZHrz/Y8S4CQPun/YemAND+af+s/DVQ+Kee8Xy/X8x1m4vP2tLKx9u0RJwB+AfhT/u3evtfQPgjAAgA7d/IApBcp1y3pdhb+J+02ZtG2LRmw8H21xEA2j/tHwEg/Gn/CIAe4X9GuS6+QoT8aU/h/4Ft80/TbYFC3AL4M+0fAaD9ywsA7R8BCDUBoP0HSAAcrb/EEf4eBOCvtkdKPmMLJOsPtv8OAegk/Gn/tH+W/kgLAO0fAfAr/FOvtn6P4a8e9tPiMb8hBeBA2/+w8pf2z8pflv7Q/mn/rPwNQvtPrHHc63cNf1cBuG5L0ZO2h06OsgWDdQfafkn7Z+Uv7Z/2T/tn5S/tP4Arf5PrletiSwcEv0v4/9W25fS9tmCybn/bi6z8pf2z8pf2T/un/bPyNwDtP7VRXO4v9xj8fbOlqNEWWzzPFmzW7r/QRftn5S/tn/bPyl9W/tL+NRQA9XS/eKHPoMG/+fSbts1F37bpxdp9LS2s/KX9IwCs/KX90/5Z+qNB+IvgH5GoBn/R4OEfe7rWtrk40qYna/ddqKH9s/KX8Kf9s/KXpT+0fz8EQGztU4N/hHh//4gtg7b+34pDgF+xGYG1e5pPs/KX9o8AsPKX9k/7p/0PI/xT65URCRWO0HeOl+B/T8jBQdsjp8bZjMKa3c1P0f5Z+cvKX9o/K39p/7R/HwRAbOsbEV/WL/i9CsCWolIR/ItsRmP1znOHWflL+6f9s/KX9k/7Z+XvEOHvvMwfW+wx+N3Df0RsUZsI/lttRiUmvzGP9s/SH1b+0v5Z+cvKX9q/hxGH+sKSa7y2fU8CIP7Yc11c2R02o7Miry6ZpT+0f9o/K39p/7R/Vv46Rw39WiUsoVwJ6z3UJzdFndfFFt1lMwsrCmq+ub6wk/ZP+2flL+0fAWDlb+i2/96mHyaavhr6YSLQnTNE8F8esflU7YhHfvpRm9lYtqP+LrEQiPZP+6f9s/KX8Kf9h9bK35R6JSyxSgmLK+0X+JLh/2ZY7OnHbfHlS21mZXl+443rD7TT/ln5y9If2j8CwMpfC4f/GSVcPLIXnlythPde2vcW+oMKwOaiF67dXBRnSysfbzM7MbtbI9bvv4AA0P5p/wgAS39o/9YRgLQGJTylRglPqlLCxWX9cHFyPzy2qG98Cv/Y068JYXgiLL5ok81KxNhfCl+/7zzhjwDQ/ln6Q/tHAMwZ/uLQ3khx/z5cPKLnKezdRyb8xbwl7u2XiGf4v2R7uCfMZlXW7Wt5EwFg5S/tn/ZP+2flrykFQIT+yLiiQUNfSgBii/4WHlfy0+viir5se7hyjC0UWLen+Tes/KX9s/KX9k/7p/2bbuWveFzPj/C/HLa56D/C4ooOjvh28Sds9566zhZqrNnV9Cztn5W/tH/aPyt/WflrqvYvTvKPjCvxVQD+n5gfiOf1v2nbUj7HFuqs3tlYx8pf2j8CwMpf2j/t31RLf8Q9/8HDv/jt8LjizpGxxUfDE0rvs/3bqbk2cBOA/Ian1x/qpP2z8pfwp/2z8pf2b472L075q+F/VQCKfyeC/tzIuOIjYfHF3wpLOLU2JC/p+/42wPqd7i8DYuUv7R8BYOUv7Z/2b9j2H1/aF/7iHn48ST7sfQD1sesPtNH+WfnLyl/aPyt/Wflr/PYvHvnra/9xRc/Z7PZrSfJhvw645q71+y6w8pf2T/tn5S/tn/Zv7JW/joN/xc72fykstvhGUtyf1wEX1K9cv6+F9k/7Z+Uv7Z+Vv6z8NXb7T6xwufdfcoIE1+JtgHubL9H+af+0f1b+0v5p/4YVgNSrB//EVYA/2751agoJrsXLgHaf+xPtn5W/rPyl/SMArPw1Zvs/23fwT52wuOKHSW6tXgZU0PgcK39p/7R/Vv4S/rR/QwqAy8G/UXHFHTabcg3JrRGrChrK1x3soP2z8peVv7R/BICVv8YKf3XZT+/BP/HH9x3P+IOG5wDyzhxaJx4FZOUv7Z/2T/tn5S/t31ACkFDucu+/5BiJrfW7AHLr49aJtcC0f1b+0v5p/7R/Vv4a59J/revBv9/Z0srHk9haPwq4o/6TYisgAkD7p/2z8pelP7R/YwhAWqPLpX/x2F986ddI6wCw0F4/Y93us4Q/AsDKX9o/7R8BMEb7jy+72v5jTzeT1IF8FHDnmdcRAFb+0v4RANo/S390F4CkapdL/0XvhceWrSClA8jq/PoXvT0JQPgjAAgA7Z/2jwAE59K/6wt/1Mf+SnaR0AFmZW5d0br9rbR/Vv4S/rR/Vv7S/nUSgP4v/BErfp+32ZtGkNCBPgiYV5O7bm8LK39p/wgAK39p/7R/fVb+JlW5tv93whMrYkjnILDUXn+PeCUw7Z+lP6z8pf2z8peVv8Fv/6n1/S79j4wtSiWZg3UFIP9s5LpdZ1j6Q/un/bPyl/ZP+w/uyl/Hmt8St1P/vO43qKzd2fiG8yAg7Z/2z8pf2j8rf1n5G5T277Lmd2R88d9GbS6OJJGD/SRAQUO38yAg7Z/2T/tn5S/tn/YfcAFIqet36T8sseQbpLEOrMpvOLlubzPtn5W/rPyl/SMArPwNfPg7Fv24XPqPO11CEuv2SuC6ePUgICt/af+0f5b+EP60/4ALQL9FP+Jd/5tLppLEuj0J0LBxbUED7Z+Vv7R/2j8CwMrfwIZ//7f9XR6ZVHkHKawndvu1QgDeXitWA7Pyl/ZP+6f9s/KX9h8QAXB/5G9L0ZMEsCEOAtY/s3bvBdo/K39Z+Uv7p/2z8lf78Hfc9y92fdvfL20PV44hfY3wSuD8+hNr9zSx8pf2T/tn5S8rf2n/GguA26t+44rfH5Fw6iaS1yjnAPJqvyXeB0D7Z+UvK39p/7R/2r+27d/1eX8x4bElBaSugViUd3ah4yDggXZW/tL+af+s/KX90/61EYDkWrdX/Yq3/YlzZ6SuwVhT0PgHT+cAaP8IACt/af+0f1b++hz+qf1X/Irn/f/XFntqOmlrxBcC5dbVeDoHgAAQ/rR/BICVv7R/nwTA/T3/8UXvct/fyC8EyqvP8nQOgPBHABAA2j/tHwHwqf33e9mPeNVvfPEjpKyBWZxbv+nKOYA22j/hz8pfBICVv4T/8AQgqapf+I+KK3qahDU8yjVr8utfX7u3hfaPAND+WflL+0cAfF/567bkRzzv/7ztoZOjyFcznAPIr29Y27sXgPbPyl9W/tL+WfnLyl/p9p/e2O9lP6Pii14blVgcTbKa6RxA714AVv7S/mn/rPyl/dP+5QTgrAh815f9FF0amVBxO6lqIpbk1q1RBWDNvgu0f1b+svSH9k/7Z+WvXPtP7H/oLzy+aAeJatL3AazZ3cTKX9o/7Z/2T/un/Q8d/kmV6kE/11f9VqtnykhTExKTV3t6jXgckPbPyl/aP+0fAWDl76CTXOUW/kWv2B4+NZEkNSnqXoA1BfXiNkAbK39p/7R/Vv6y8pf273lSah3hf1UAiv8RllSyhhQ1Mct2npkqBOCDNXuaaf+s/GXlL+2f9s/Sn4GTVu8W/uJlPwmlD5KgFmBlXn3PYLcBWPlL+6f9s/KX9h+i7T+9QQR/sZsAlBwkOa1yFSC3rsDbbQDaPyt/WflL+6f9h2j7zzgjHvcrcW//RRz6sxCLCxrWOgTAw20AVv7S/mn/rPxl5W8Itv+MK8/6O8PfIQCxRa222CMjSU2LsTq/4VfutwFo/wgAK39p/7T/UFz5K8I/ocwt/Iv/05ZQOom0tCArdtQ/7n4bgPZP+NP+WfnLyt8QbP9JFf3CX8zvR205tYCktCiLcms+7BCA3pcC0f4RAFb+0v5p/yG48rf3Wf++iS95IyyheD0paXFW5dX+fo36auCDHaz8ZekP7R8BYOVvqLX/lBr35v8e7/gPEWJy659QrwKs3nue9k/7RwBo/7T/UBKA1Dr38Fcf/3uYZAyVpwHs9R9yCMCuswgAK38Jf9o/S39CJfzT+j/rr054bHEeqRhytwEa/md1vpCAA+2EP+0fAaD90/6tLgDpA8Nf3Pf/PmkYgiyz1x50CMDuZgSAlb+EPwJA+7fyyl81/F1e9OOY2OJG272nriMNQ/E2QF7VcocAFDSy8pf2jwCw8pf2b9X2n944IPxHxxe/YHvk1DiSMJQPA+Y1POuQgL0XaP+s/GXlL+0fAbDayl8P4T8qvug3Y9LK55CAIc4Se3WSQwC8HAZk5S/tn/bPyl+W/pi0/Tve71/qftr/L+GJFTGkH9iidzdOXJVf/45DAva30f5Z+cvKX9o/7d8K7d9D+I9OKPl7WOypG0g+uHobIL+uyNNhQFb+0v5p/6z8pf2bsP17bv5vi/koiQf9WGSv/YhDAPIbRPB30P5Z+cvKX9o/7d+sK389hX980bsjkyrvIO3AI6vyG37hkIA9LbR/2j/tn5W/rPw1Y/sX4T/abbOf+orf8ISSL5Jy4JWlO2pTnY8ErhJXAWj/tH9W/tL+af8mWvnrMfyL3w+PL/sKCQdD3AaombCqoP4NVQJW7TnPyl/aP+2flb+s/DVL+xeP+o1OKFWf7e8f/gnlD5BuIMWK3LoTq1QBcFwFoP0jAKz8pf3T/g0vAOINfwPDv+iDsITSB0k1kEZ9M6AQgEsOCRAvBmLlLyt/af+0f1b+Gjz8xUt+1PB3EQDCH4b5SGBufcNQVwFo/7R/2j/tn/avswCk9Q//KwLAZX/wg4X2+o85BGCQqwCs/KX90/5Z+cvKXx3DP7XOQ/iL0/6JJV8lxcC/swB59c94uwpA+6f9s/KX9k/711EAUmv7Bb9jEorfDY8v/RLpBf6fBcipvs/bVQBW/rLyl/bPyl9W/uoU/ik1A8M/vvidkfEVnyW5QLuzAOLFQO5XAWj/tH9W/tL+af86CUBKlafwf3NUXOnHSSzQ9irAjrr/03cVoPe9AAgAK39p/wgA7V+H8E+u9BD+JX8bnVxyK2kFAUC5ZmVu/StXrgI0ON4OSPjT/hEAwp/2H0wBOKuMTqrw1Pz/GJZUsoacgoCxKLf+m86rACt3NSMArPwl/BEABCBY4a++2jexbGD4xxX/amRc0WISCgJ+FcB5FmBlnph97YQ/7R8BYOUv4R9oAXC82ndg+I+JL3ppTFr5HLIJgnMWwF59/8q8OsUxO88iALR/Vv7S/hGAQK78Tasf8Iz/lSltsz18aiKpBEFlRW7Ds30SsLeVlb+0f9o/K39Z+RuI9u94wU+xpwN/lbaHTo4ijSD4VwFyqj/ZJwDisUDaPyt/WflL+6f9aywAKdUew39MfPF3bXb7tSQR6Mby3LqGPgnY3cLKX9o/7Z/2z8pfTcL/rDJGnPQfMzD8L49KKN1O+oDuLCyoXynC//0rEtD/QCDtHwGg/dP+af/DEIDMM8oYcdJ/zJWm3+/VvqMSS75B8oBhWJZb+4SnA4Gs/CX8af+s/GXlr4/hL076j0koHRj+cSV/HZVQ8jESBwxFlL1pUkxe3V/6JEC8IZD2jwCw8pf2T/v3UQDEYT9n8LsJwCvhCSXLSRsw5oHA7Nq4PgHIb1BixK0AVv6y8pf2z8pfVv7KhL+4359c5Tn8E0rax6WUzCBlwMAo16jrglUBiFFn5znaP+2flb+0f9r/UALguN9fPiD8rwhA0Y9tD/eEkS9geKKzK64XAvBBjFMCdp9n5S8rf2n/rPyl/XsLf7f7/S5zaVR86TZSBUzFUnvt430CkOf9VgDtn/bPyl/af0i3/9Raj61/bELJG6MTi+8mTcB0zEypH7tiR+2rfRJQcIaVv6z8pf0jAKz87Qt/9X5/pcfwH5MgDvsllq0iScC8twJyqu6Mya+7fPVWQAvtn/bPyl/Cn/afoV7yL/Nyv7/47PjNJVNJEDA9y+x1P7p6K6BeidnbRvtn5S/tHwEI3ZW/jkf8Srxd9j/Aa33BOlcBdjdOXJ5b/799EpDfKMK/nfZP+2flLyt/Q6z9n1PGpni55B9f/Obo5KL7SAywHItyqj4twv9SjMujgaz8ZekP7Z/2HzICIC75j030fMl/bHzJf4UnVsSQFGBZltrrHnMKwIpcMbtaaP+0f9o/K3+tH/5pteqlfTEemn/c6RLbI6fGkRBgaWLsL4WL4P+PPgHIrVdW7L2AAND+af+0f2sKQKa45J9c4Qh+57iE/3ujE8pSSAYIGRbYa1fH5Na+fUUAxOSpEtBO+6f9IwCs/LVW+Gc0iEv+pV7Cv+jV0UmnbyYRIPTOA+yo29wnAOqIQ4Er9rUjAAgA7Z/2bwEBEK0/tbpf8LsJQDWP+EGInweoPdVPAgrOsvKX8EcAaP/mDn/1oF9SmefwTyh+d3RcaRqf/hDyzLFXjlmWW/dyPwnY2UT7RwBY+Uv7N6cApNZ4DH51xiWWvCKW+Wzikx/AeSsgty5meW7d6/0kYHcLK39Z+Uv7Z+WvTwKga/hnnBGtv9xr+I+NL/4Rp/wBPB4KrLlHBP8lVwlYvvsC7Z/2z8pf2r/x27/L430Dp+T1UcklD/ApDzDYlQB77c5+ArBDzJ5W2j8rf2n/rPw15srfzMFbvzjl3zZqy6kFfLoDyBwK3FFXdiX8a6+MeEfAcrEzgPZP+2flL+3fUO1f3Osfl1DqOfwTi98dFV+81WZTruFTHUCSKPvJUaL5P9cnAA4JaPAqAVoKQKi1f1b+IgAIwDDCP7NRGSda/zivl/xLfzY2tXQtn+YAw5KA6lnLdtS92k8C8lQJaKf90/5Z+Uv469T+z4nWX+0Ifue4hf8Hovnvtz3cE8anOIAfLCyoXymuBPxtMAlg5S/tn/aPAARFAMTb/MYllnsP//iSl0cnFN/CJzeAZlcCaj+yLLf+bU8SQPun/dP+Wfkb8PDfelYZJ9b2uga/mwB8IML/oO2hk6P4xAbQmAU5tfeK4H/fXQKW7Wlj5a9BBID2T/u3pACIR/vUQ36ewt8hAPElL/Eef4DAS8C3lufWXnIKwDJ1coeWANo/7Z+Vv6z89Tn8M64e8vM4SSXvjokvKeBeP0CQiN5WnSgk4HKfAEhIACt/WflL+6f9ywuA98v9Vy/7l3aOTSxbxScyQLAlILs6Y5mrADgkoF5ZJt4YSPun/bPyl/Y/vPA/p4xPrxv0cv+4xNLXRyeUJvBcP4COLNxRnzVAAsQbA90lAAFg5S/tn/Y/pABk1CvjxeX+8Yklg4R/2ekxaeVz+PQFMMqVAHE7YIAI7Gom/Gn/rPxl5e/Q4b+1URkvLverwe89/Ev/e0xK+Z184gIYTQKyqpNE6F8aIAEFTQgAK39p/7R/LwJwVhkvXubjDH6PApBU8s6Y+NI8W+yRkXzSAhiUBTl1/7p0R+0HrgKw1C4m/4wI+DZW/tL+WfnLyt+r9/nTakTYlw4a/uOTSqtHxpYu5NMVwARE5dR8Zam97p1+AqCOeEJgqdgkSPtn5S/tP5Tb/5UDfuOTygYEfz8BSCz75ZjEsrv4RAUw2+2AnNqPiy2Cf+8Lf+eIw4FLd11g5S/tn/Yfiit/M+r6Dvh5DX9xul+8zS/TZm8awScpgFmvBNir1y6x1/xugASo43YugPZP+6f9W7j9i/f2j08ePPjFrYD3xyeUnBgbXz6TT08ACzDXXjNvsb325x4loPdcAO2f9h9qAhAy7V+s6Z2QXKFMSCoZKvzPjk2qXMMnJoDFmG4/NW7x9tp6jxKwo15Zsus87T/EBYD2b7Hwdwn+QcM/qeTnYxPLP8OnJIClUa4R5wIOiicELrtLwBJ1xC0BVv7S/hEAkwuAW/B7E4BxCcWvjkko+xfe4gcQSucCsqsfEucC3r4a/jVXJ7dRWbK7lfaPABD+Zgt/cY/fU/B7CP+/jE0syeB5foAQJSK3aoNo/b8eIACOqVOW7Gxh5S/hjwCYQQDEa3sniMN9noLfTQDeGJdYUjDFXjOBT0CAUL8SYG+atGh7be1AAeidPPVqQBvtHwFg5a/hwl8Ef/rQwa+OeKTvH2IOjU+unManHgD0Y0FOTZa4GvCeZxFQrwY00/5Z+Uv7N4IAiMY/Mb1WmSgR/OJU/9sTEkuPs7AHAAYlMqvsZvGUwK88ScDi7WLEGwQXi7MBtH/aPyt/dVj5K97VPzG9Rpko3tw3Mal08PBPLnvHEfwJxbP5ZAMAKRaJe4MLs6t/6lEAHFOrLM5v8ksAQq39s/KX9u+XAIjtfBNTKx2h7zoegz+x+C0R/IcIfgAYNlE5tfct2V7zWv/wdxnx3oDF4pAg7Z/2T/sPxMpfcZlfHOybmFI+IPg9hn9i6d/GJpbt4h4/AGhzS2Br3eyF2TXVHgVg+8DbAggA7Z/272f7d7vM722uhn/p78SK3qxpaeXj+cQCgABcDaj6xuKcmr94F4FaZVHeWWXRrlbCn/avmQCEVPvPbFAmpVUNGvr9wj+h9OVxCaXftj3cE8YnFAAElFmZNdPVswGL7TWXPUnAohwxqgjknxNB34oABEAAaP8Wa/+i7U8Sp/knicv8k5JLJcO/9Pz4uLK7eXMfAOhwW6D8ThH2rwwIf9fZXidEoCngh/9o/wiA+dp/k2j79Y62r4a+63gN/uTSdycml/xkTGrxej6BAEBXYuwvhS+w1+Qv2l7zD48C4EUEaP+s/A3Z9r/1jGj7NSLoywYEv9fwTy7944SkinxO9AOA4YjIqIqOzq4uFWF/2asE9IrAwrwmEe6trPyl/YfOyt9tzkv8FR5D36sAJJd1Tkgq+zr39wHA8MzLrvmwEIHnB5OAhTnVykJxRmBh3rlBRYD2z8pfU7d/cYl/srjEP1k8tz9U6LuF/5tiToxJKlrHJwoAmO+KQFbVN8Rjg7/xGP6uo4pA7hkR+BdY+Uv7N78AOEK/QZks7utPFoHuHDkBKHtuXGL5Fh7jAwDTs+GJnrCIrJo08cTAn7wKgOvsaFQWihcK0f5Z+Wuq8PcS+lLhn1L690lJJScmZlRt4BMDACzHHHvlmKicSru4NfDaoALgHHu9Ei3OCUSL2wOs/KX9G1IAnJf3vYT+EALwgZizE5IrHrQ9dHIUnxAAYHmm20+Ni9hWaVevCAwmAEIUeqdGiRa3B6ILWmj/tH/9H/0TB/mmZNYpU9Iqhgx9T+E/MbH0ZbGYJ2d0bPE8Pg0AICSZl3hqdMTWqvSFOVW/HVwAXEY8PRAtDg1G72yl/dP+g9f+xfKdKRk1ypTUCmVKSlnfSAuAeD2vmKNc4gcAcOXeU9fN31r1TdH0fz5o+LuPuEWwQMgA7d8YAmCp9q+2/K31ypT0qn6B7z6DBn9K2V8mJZc8NTGl+BO8pQ8AYAiECHx6QXZNnQj4D2QkYIFjapQF9gYhA02GEgDav4kEIKdJmZrVoEz10PJ9C/+y1yYnl/9wQmrZHarY8hMNAOCrCGyrWRi5reqICPfXBg9/9xEysL33ykAB7Z+Vv17Cvy/wa5Wp4vn8qallfSMT/q4CIB7b+4N6gl8c5rud0AcA0Igo+8lR87ZVfSsqq7pDhP7loQXAbXLqlKgdZ5Wo/POs/A3l9p99Tpm61XPgDy/8y/5T3NMvHJ9afguX9wEAAkyEvWZFVFZNoQj23y2QFICobVVXR1wdiBK3CqJym5Soggu0f6uu/BWH9qZln1GmiXv40zKqRbBXeA18aQFILXtXhH7TxJTy1AmplYv5aQQA0AXlmnmZtXdEbqs8HbWt+i1pAXCfnFpxdaDRIQSRImRZ+WvG9q+G/VllmricPy2zRpmWXqlME0HuOn6E/2+mJJWdFO/hv4e38gEAGAz15UJzs6ofjMyqqhKB/7Z0+LtMpHOya5XI7Q1KZO45JTKvhfZvtPa/vUmZLsJ+ujPs0waG/XDD3yEAqWV/n5JSXjMppTxpfHLlMn66AABMgvqCIYcMbKsuFQLwhs8CMGCqlUhxhiDS3iikoEmJEFJA+w9C+xetfrq4Zz89q1GZvrVOmS4u408XzX56WnnfDBX8UgKQUvbW1JSKJvEa3tzJ6SW32uz2a/kpAgAwOTH2l8LnZFXeJa4MnBC3CX7je/j3H7HUqHeqlQhxpSBie6MSYT+rROQ2KxEiqGn/PgqAuHw/Y/s5ZUZ2ozIjq16ZsbVWmaEGvXi7nmvQexo/wl80/NJ6EfjbJ6WXf8hmbxrBTwoAgMWZlV0XMzeramvk1spmIQRvD18AvM0VMZif06DMF3IwXzx5MF/Iwfy88wEXAEOGv71ZmZlzTpkpDuPN2NYgQr5OmSEu28/IqFJmiJCfIYLcfaZLjqQAXJ6SWv7KlOTSf5+UWhE7eWvtak7rAwBwdSB8XnrN7fO3Vh+M2FbdIwL8ff/C/8rM31rpZcTfy6pR5mfXOQRhnjrbzyrz7OeUeTualXlCFOYJUTB2+28R06zMEv/Ns8R/+6ycM8pMEewzRXufKcJ95tYaZWZmlTIzo1KZmV7ebzyFveYCkFb+J9HwGyenVeRPSqz4/PjNJVP5nQ4AAIOiHiSclV5x+5yMqt1iN8F5EfqvaysA/WfeYCOuJMzbViOmVpmrjpCGudn1ylwhDY7ZfqZ3zvbNnEHnjGNmi8Cene2cRjENvVN/ZbbVialVZokgn5VZLaZKmSXa+ixx7118bQaMe8h7mwCE/yVx7/7X01IrqienlO+clFh595S0GpbqAACAFojHDO21q+dkVG6Zl1n59PzMqhdFwL8b8PB3mbmZcjMns0JqZmfIjaew100AUsv/PD21tF2E/XemplXGTc4su43H8QAAILiIA2Ozsiuun5NeuXleVtWTIqTb5mdV/clKAqBT+P9TBP1/icCvnZ5acWRyavm3xSG9j4jH8Kbxmw4AAAzLrMya6TNTyj4xe2t1/NytlY+JUG6ct7Xqv0XYv0v7d8x709PKXp2RXtkpQv70jPSKfVPTKh6Zklj6qYkpFQs4mAcAABZDuWamCDhxG+FTszMr/3X21sqdczMqfjA3s+qc+OPLQhJeE2F/ycTt/58izH87M73yxRnp5Y3T08t+Iv78oLhHnzItvex+9bn6yemVETxbDwAA4I64rSBuKUTMyCy5aUZazRfEKfpviYN36bPSq/fMzqx6UoT3T2dnVFbPyahoFfOsmJfFX/uVkIjfzcmsfE3MG+Kv/VP8+Xvir19yC/7L4u9/IP7590XA/3N2ZsWbs9Mr/iZk5E+zMip+Oyuj/Fez0yt/If7e8+LP22emV5wRUzEzrfzHMzOqnpiVVnlgWnpFzvSUyripaaUPTkuvunOquAUyI7V0ofrCJb55AAAAAAAAAAAAAAAAAAAAAAAAAAAAAAAAAAAAAAAAAAAAAAAAAAAAAAAAAAAAAAAAAAAAAAAAAAAAAAAAAAAAAAAAAAAAAAAAAAAAAAAAAAAAAAAAAAAAAAAAAAAAAAAAAAAAAAAAAAAAAAAAAAAAAAAAAAAAAAAAAAAAAAAAAAAAAAAAAAAAAAAAAAAAAAAAAAAAAAAAAAAAAAAAAAAAAAAAAAAAAAAAAAAAAAAAAAAAAAAAAAAAAAAAAAAAAAAAAAAAAAAAAAAAAAAAAAAAAAAAAAAAAAAAAAAAAAAAAAAAAAAAAAAAAAAAAAAAAAAAAAAAAAAAAAAAAAAAAAAAAL7x/wGr8rr4h0l4pwAAAABJRU5ErkJggg==;" vertex="1" parent="QThOkOYovAdt5dILF7DS-11">
          <mxGeometry x="140" y="-20" width="42" height="42" as="geometry" />
        </mxCell>
        <mxCell id="QThOkOYovAdt5dILF7DS-13" value="" style="group" vertex="1" connectable="0" parent="1">
          <mxGeometry x="790" y="370" width="160" height="80" as="geometry" />
        </mxCell>
        <mxCell id="QThOkOYovAdt5dILF7DS-8" value="" style="rounded=0;whiteSpace=wrap;html=1;" vertex="1" parent="QThOkOYovAdt5dILF7DS-13">
          <mxGeometry width="160" height="80" as="geometry" />
        </mxCell>
        <mxCell id="QThOkOYovAdt5dILF7DS-12" value="" style="shape=image;verticalLabelPosition=bottom;labelBackgroundColor=default;verticalAlign=top;aspect=fixed;imageAspect=0;image=data:image/png,iVBORw0KGgoAAAANSUhEUgAAAXMAAACICAMAAAAiRvvOAAAAwFBMVEX///8BlOIzMzNDye0AkOEAj+EgICAAkuLg4OAYGBi6uroAjeAjIyMsLCzc8fvMzMyqqqoPDw9vb2+JyPDr6+s+Pj7FxcXa7fq/4viioqIKl+MqKirs+P3m9Pz0/P4xxuzC3fXF5fil1fNkZGS46fdNqujQ6fkAiN95wO5xcXFz1fGq1/RftesAg9729vZPr+kvoOWLi4uXl5d9fX2J2vOw3PVHR0eAwu6f4fVaz+9SUlLF7fk4pOYAAACYzvJVs+qQSNMsAAAOq0lEQVR4nO1dDVfiRhQNmpjFALqLKxhCFFjQFSq4irqV4v//V+VDyH0zbyaTrhCKc097Tk8zxOHm5X3Pw3H+B4ibtdYclTjvnXwKxK3pMAzWCN+m9by3tOdoVguB5xcAvnfdyntX+4zKwPcKEsIo733tMaa+KzNe8Id572t/0QsDhvFCwavmvbO9RTvwWcoLgVXnG8KUF/K5Os97a/sKNeVWnW8IdcZdWanzad6b2080lYzP1Hkz793tJ94YH9F3Pc+b/WvV+UbQk5S574XDarvfH4+f+3nvbj8xEr1Ed9S3GmWjaAti7odTm07cMEYC5aNa3jvae9QDgXKrVjaOAU3djip5b2j/EYdUzG12ZfMYE9Xi3uS9n8+AZxIPWWW+DQxRnbvPeW/nM0BQ59ZN3AJI3O93897Op0AfOXdtGW4buCEmtKddW0NsaX//B9ydAe7S15PAf6TPs1zDG/H2QfvdB3wpf1/j4Dh1eUzUub4M14S1QfujNrwH+FI8WOMonXNiQl19GQ4TM75eC30uZOS8jYVQVx/3Y/Rke7sAGTl/w4go1Ke3Jslaf/JR+90HZOScREQpJhRUi03LILJxTk3oQLsWVb939VH73Qdk45yYUE/vixDVb91zQDbOqxgReXoTirUN24CByMZ5l9SI9CYUVL/tpyPIxjmaUL+rNaERqnPbT4fIxHlETKjeF8GIKMWR/2zIxDlpDU0xoVNU/baahNBxHtUqFKRG5N9URNRA26DqH233O+06dJx3PV8AWtCCeNH3A2hW9PHpbPc77To0nDdpGc4EiSdTQxNq+0YJNJzXMlMOyYA+qH6bVKTQcN5THNJSApMBWE+yERGFhnPNARYeeEoR6km2Ui1Aw/k0K+dBokNi+KytVAvQcH6TVbeEiTpvAeeeHbpAoeG8m5FzLEyQd8R27lKoOY+lIywpwEa6oY2I1FBz3gxdhBAQFVzfFXANOgTFX1/a+ITQ+ec0sK/TEGksR/7JRyvgKe5PRHR3fPHwrdP5eX/8hV9wcvprvuDh/vRE1ypknuOKSbJFX1Sum0dErz9eHm9vbx8fX37sTm/AOeCdvbvjTvGo1CjP0CgVv99LtJ/8bBRLiwWNRuno6OeJ8u7mnNdIa4s+hUKa1NVp9vjH7eUMh3Ms/uPxVZOTj1t1gCJV2ZujNntFmzPwS5qtxZJasqQ+Hs/+acbj+V9vjh3nKEHjbL7i7lf5qHwAaBQ7hPXzpyK5flAudlSsm3NOQiRX7/8ZtVm83r7TDbi8fFTmfWtuMvYruOatRDtwE0Nzzb44ceitlwSLAlY8eJsU3oat2vW8tvL8l+MAd9/nnB8flA5ElIsX63uedQTGlwsezthNmnP+bN4dGsNS1bGAyq1E+Ip1hY6JsFeSL/dFxNcK2E32ufayq3msXBvN5WNUkDj/VZQInaP48/3TJ40Gu6D0xCp+c87J19H3ZfXQhF5xK+JHnvEl6y/8bSeYH2YTClUSOvNVFfgeiUu15HzYrTn16rXI+T1P+YzTzuLD518V1w/K3znSzTknJlSfQsE2C5+LiF4P1ZTPSL/ltToGaazKqlDXik06jNkuync5H1edQUXkXEn5jLH72cdOlJTPSWfUizHnFS/t2yRIa7N40TF+ePjD4LZspEWb4/layYQT83fOQ2fkhI6gz0+P1JQefD13znTXDxodeQvGnI9JLfRKszK1zUKjV2ZC/luZKiDdNYx26xUouLdR0Sy84LwZOjc3U4HzNDgd2XoiijKpxpyTjJfe527CUqbNQk/5o9pbHCPngfxoBuJYmVC+V5cV8yXnUej0/oqycV7+W0/5QflJCo+MOZ+Ym9A6ui1Sm4WkWIjHqNIrc7T0nLek/FAgbbOl6Ilfcj7zWK4cFeezUGge8kj/O/mv8mxBqSyuODoVN2HMOXlp9X1ZqAN88Wv/oJRfHt6+VCqvl4xeqYtNjkR3yCMF5Tyo7CxC7o18iWjxt5a37HGclw4698fHx/cdxlNfMl56+nlxfHz68HeJOo7lv8VNmHKOGZQ0E4rvr2jqKoLyXgb80eVSr+DKajARVAMpigdiVDaWR+FJJ2p6hkc/REIb3y9W/sfZ6XfOGT/qrFIsdycP9LEURX/RlPM26Q4dqxc65JUQcwTxbyLjK02y5Bz1SrMbFALx0WKIIHIeT+TUsxSPDRRiLkIU8m/o8Z11ZNKPLvDjp2RB6UK4uynnxA3Tm9CeJqmImgUCzhnnl78x6B+HC3YEnY3aQwx4xOlJi30KCQJMGWkHcgiUP9CrdxLpos4+xwVl4ePGnBNlqT9ggW0WLmUtQimHaDO6JHolvgnYtwRP1gjXYmF60pJXwVk0FXPKeVlysb9opXyOC1QvoudiyjnpyNWbUBK60Evgs5AAP7pEvVKbrOWRmlF82QQZ5gebUmexgnGstm2Vci7H74RSxko6d0/4nvw3zkmvS8o0C2yzoE8nRsWCFyJ8HeLC+o8JwoxGhd5a0XNGnUV4ZClig4w27uXrVNAlIznDr4b6uiHnfRL5ays/OGRUOEEK2vy3Rj2BzNJAAB10mnB5Xu/PH4IGIs4ibixlvFKKmDsORkLlJ2bBF8gIHAmJdEPOaSJXW8hHYoQ2i9tEzF91t0iMB/VOeqqESw3/JHRhY9NqBjFHzllGnXsQ45IU9MxwBrc4OqfXDDknXdD6Xjhss/CImIIFvdXeIokWqdau4INHzpOof8YmxJqoBTEjkVJyIZyLXscCp6DQRTFe4A7eBJFXM84jeqhFu9+hMqmYqBa9mKOgExeJVC1A7YB36racGp9SSdRP+vkm4Fzyrhc4B9VRZOvNnT/lvEeiUH0tFJOK1LdIkls6bT5H4mz7xHNBjxXc0OQxz/9iM3kyIB4ROi1pnWXIOac5nBPg/Ct7i29/yjlJ5PraKBQ7qIWIaK3OqdPCIFo/Y6rQ8R3y1vYRKrWLaA0i0sRZrGYQ853gnGSufe3poCt4PDTHlHiKl7rs4WLpmjaaC8aEcnI8NeHYXbxYECCsp7HH+AVSGyh3gfOuuQnFuMUlV6JEnaee6VrTRhVZlfOJsKi80ETgZK2fOvifBr3ZO8B5FhOqbrNIOD9M7R5a00ZNQh3l/F3FQdT//oBA1wQrPYhWJr1PeAc4p1GoNpGLj0dYWUk4T53dXeU559Jn4JuGTXG7K2cRYjqTIwg7wDkpiukP2OLjEdKtWThfE0k5RwP9LtTwkFfnPKD8v/o4SoJBO/wOcE5roVpljG0Wws+JVP5ct5DwfXkF3O7R6raJfnsXaqhnGI3v2QHOJ+YmVNNmATY0lfPEhpJ8GhYmlh4fRJeJizMUnUUodpiI+Q5wjn5WmnOLSUVhvh/4iilhqNJXJPXMhcBC1J+ErOA7LUrV9YxivgOc11DM9TMqKpqVSV1O1Ry3RrRWGEKpGV+jecIFKj8QgPUFZxHeDrPDTflz3ie1UO2mSUQkGtvHJJOru4dDXG5atSCz7BwMHFCAwZDPncVWVjHfAc5J4cfVJnKRk0C8mFSJLlOOda2p9IUyYBvNRYxsoiyA4zK3BxDRpVTPV8ifc9KRq6+F6tos0HHRJ1wSjSG2HJK+oYrsoCwB+ceZd9PLLOb5c05GnutPZOFSOf0IjRZ6QVfVLKhp8WrgAtKoYYgqZ5hZzPPnnMxa0JtQEhHJ3w86FXUaHagcCV4lKfy1QJypNwWOywizjqbHJnPnvG1uQjHdxDRxVhRlf4cwCy1j0rtCWirQWacdNzgkCd8M0yN8uXNO24m0SgGtrcdcTzLopK2/ilJKzgJLMS9/OFsMBUg3aXYxz59zEoXqtz0Sw0QB772gNIEed/FAFlLuyRWpAc+50E7Kj54x1eb5c57BhOLZEl7xLwSdtsn1Cj7ctReiNyjnCG44CXbFXUVsV5f5Ifi8OSfumT6Ri9MspL7ZBeYaXWy/xSdZxXasgHlsVXbAiaTwhszrkOFAdt6ck3YivQlFQq55P/7H5SEmW6Kul7w90dQlrUucdhozZDJFcUYFZRDz3Dknb7OrzQiaTLN4wTu0ll7FjPOoNR0GRIZ99jBHj9EtoZxdrsrLsswdyJtz83Yi1PxG8/0STeIFgSeIJt/exvz8N6fv6pKcZxHzvDlvmnfkorcQpEtVc8L20q5uwAdfsbySy0bIjovBhhLkzHmGWuhYHxEJqBdYt+8dynhXOk7B/pKJ3KebaXJPzpwTE8qfoF9B3WbBLdYJue8rh/GKHomYeVxCOumSSczz5px05AbapCLG4inF9ZpWr7ihus4tOuiKxmzRcck2oCpnzs3biZrqNgsJ/VA9SNB3BxrvSPBIVNlZwY/PJuY5c57BhPa4JisV4ucCmxMp+N5E28zRph9TlZT7VM4zjjLNl3NiQvWJXGw8l08gS2g+h6J7OKPQnaQ8LXraWanD6Nn/jGKeM+f0jL3WhMJxe99IrqL+JPS81UA73/f8cJA6zrhCOHdV60m7X+aJvaUVGo0iz/k/6yWlf9hbdIrJApFz+PBXhvMbYxMaj8I1Cqbz/Zqt6ttk8cHRZDDtGUxBi10vGS8YKJVdPApgCmHWXxg8PT29uLj4Ncc9O1Xr7BTA3uIcFohnuH5dJGBuPzKPQnHuX6YRcnFUaUap7XQrVAHP6iigjcuy7CZ3ROaJXIsPAjFF+zOdcqeB/STM+A6LDYCEc14mLW3xH0HG69kfAd0GamhC7Y+AbgXkx7RSfnjL4mPQtSZ026BJC2ZynsWHg3Zw2Z+82QJoCs/+5M0WINS39ElFiw8BnZNjf35lC5hSyj2rWjYOsRPKoPJj8UeoiDOWbR53w+gNQrFAHNifdN4EatV6JarVpzdduSTPdN9bfACGgR+GBd9zmZ42G4NuBLHm55/5Bn6LPwUzP3xNudUsmwF/OspSvkGww6yX9tO6iRtCS9W0GVjKNwX+QFrBLxgfqrTICv6AcdC1sdDGUGPE3A9GVsg3iOm1eGYkCNLaki3+DHF7svwxVM/3PS8IwkHfapVtIG42e+2bm2k99dDbfuNf1xJSFECjejUAAAAASUVORK5CYII=;" vertex="1" parent="QThOkOYovAdt5dILF7DS-13">
          <mxGeometry x="4.980000000000018" y="12.5" width="150.04" height="55" as="geometry" />
        </mxCell>
        <mxCell id="QThOkOYovAdt5dILF7DS-15" value="" style="group" vertex="1" connectable="0" parent="1">
          <mxGeometry x="560" y="290" width="182" height="80" as="geometry" />
        </mxCell>
        <mxCell id="QThOkOYovAdt5dILF7DS-7" value="" style="rounded=0;whiteSpace=wrap;html=1;" vertex="1" parent="QThOkOYovAdt5dILF7DS-15">
          <mxGeometry width="160" height="80" as="geometry" />
        </mxCell>
        <mxCell id="QThOkOYovAdt5dILF7DS-14" value="" style="shape=image;verticalLabelPosition=bottom;labelBackgroundColor=default;verticalAlign=top;aspect=fixed;imageAspect=0;image=https://flask-es.readthedocs.io/_images/flask-horizontal.png;" vertex="1" parent="QThOkOYovAdt5dILF7DS-15">
          <mxGeometry x="2.75" y="15" width="154.5" height="50" as="geometry" />
        </mxCell>
        <mxCell id="QThOkOYovAdt5dILF7DS-34" value="" style="shape=image;verticalLabelPosition=bottom;labelBackgroundColor=default;verticalAlign=top;aspect=fixed;imageAspect=0;image=data:image/png,iVBORw0KGgoAAAANSUhEUgAAAgAAAAIACAYAAAD0eNT6AABA2ElEQVR42u2dB3hc5Zm2B7Dk3nuTZLlb7jaYmt6AkIQEkgAh4U92+TfY6t2y5LGKuy1XWmKckLax1XuxLclWtURN2CWb5U82bHpIQgmEYp//O2ONPBrNSN9ozswpc9/X9V4ssBAsWfPczznfOa/NBgAAAAAAAAAAAAAAAAAAAAAAAAAAAAAAAAAAAAAAAAAAAAAAAAAAAAAAAAAAAAAAAAAAAAAAAAAAAAAAAAAAAAAAAAAAAAAAAAAAAAAAAAAAAAAAAAAAAAAAAAAAAAAAAAAAAAAAAAAAAAAAAAAAAAAAAAAAAAAAAAAAAAAAAAAAAAAAAAAAAAAAAAAAAAAAAAAAAAAAAAAAAAAAAAAAAAAAAAAAAAAAAAAAAAAAAAAAAAAAAAAAAAAAAAAAAAAAAAAAAAAAAAAAAAAAAAAAAAAAAAAAAAAAAAAAAAAAAAAAAAAAAAAAAAAAAAAAAAAAAAAAAAAAAAAAAAAAAAAAACHDgp1tD37hey8og83nTz4vNZ+TnLue0nY+e2Lg8J0FAABAAAAAAMAXAdA6/LUWAE/hjwAAAAAYTACC0f4RAAAAAD8EwKztHwEAAACQEIDFu9sUT7NIchbukptoyVmws1VqogYZvrMAAADDEACtwx8BAAAACEEBCGb4IwAAAADDEACzt38EAAAAwAACEOzwRwAAAAB8FAArtH8EAAAAQGcB0CP8EQAAAIAACIDR2z8CAAAA4IMAWKX9RxYgAAAAAAgAAAAAeBYAK4U/AgAAAIAAAAAAgCcB0OvRv0CFPwIAAACggwBEIwAAAADWEAC9Hv0bTvgjAAAAAEEWACO0fwQAAABAAwEw+ot/3MMfAQAAAAiiABil/SMAAAAAfgqAGV77iwAAAADoJABGCn8EAAAAwA8BMGv7RwAAAACCIABGC38EAAAAYJgCYOb2jwAAAAAEWACMGP4IAAAAAAIAAAAAMgJg9vBHAAAAABAAAAAAGEoAzLTyFwEAAAAIsgBEIwAAAADWEACzrfz1NhEIAAAAgPYCYPT2jwAAAABICoAZV/56C38EAAAAQGMBMEP7RwAAAAAkBMDsr/11D38EAAAAQEMBMEv7RwAAAACGIKKg7WsIAAAAAAJg+vBHAAAAABAAAAAAGI4AmC38EQAAAAAEAAAAAHwVADOGPwIAAACAAAAAAEAgBMBo4Y8AAAAAyAhATrXiaaKz5WaB5ERtq5KaSMmJyPI+fGcBAAAMIADBDH8EAAAAYJgCYOb2jwAAAACYSAC0Cn8EAAAAYBgCYPb2jwAAAAAMQdSujqjIXa0PBHLm5Qd/+M4CAAAAAAAAAAAAAAAAAAAAAAAAAAAAAAAAAAAAAAAAAAAAAAAAAAAAAICBWLa/4xtf/eHPFG/zFcn58g9elJp7ZedpubnH0/zgxcuyv/6Fu9u//qXvv6A454uSc7fsfG/o+YLkfP7k81Lzue89L/3rV3cB3PXU84oW89kTcnPnieek5g7Juf27A4efbAAACwvAPRoLgB7hjwAgAAAAhhMAU7Z/kwmA5uFvcAEIRvgjAAAACIC0AFim/eskAEZq/wgAAIAfAmDa8LegAPgU/hYQAH/DHwEAAJAUgDUHOxX3WX1AblZJzsr9HVITIzkr9g0y+zt8EoBle9sVmVkqOUv2yM3i3W1Ss0hyFu7qnd1tPglAtPhnPM2Cna1SEyU5kQVyEyE58/MveB1+sgEAhiEApg7/EBWAvvA3uQBoEf4IAAAAAqCZAJim/WskAGZu/wgAAMAwBMD04Y8AWF4Ahgp/BAAAAAHQRABMFf4aCIDZ2z8CAAAQIAEwdPiLWY4AIAAAACAvAJZo/xoLgOnC308BsEL4IwAAADoKgG7hjwAgAAgAAIC8AFim/esgAIYKfz8EwCrhPw8BAAAwtgAEJPw1FIClCAACAABgZQGwVPs3qAAELfwDLABmCH8EAADAAgLgc/hrJACmbf/DFAArtX8EAABAQwEwTfs3oAAENfwNIAB6hz8CAABgcgEYVvhrIACmbv/DEACrtX8EAABAIwEwVfs3qQBoFv4mEYBAhj8CAAAQAgKwXGMBMH37D5AAmKn9IwAAABoIgOnav4UFQCr8TSAAgQ5/BAAAAAHwSQAs0f7VR/o0FgCztX8EAADATwEwZfgjAJYQAH/CHwEAAEAApAXAMuGvsQCYsf0jAAAAfgiAacMfAQgZAZiHAAAAIAD+CIBVwl9rATBr+0cAAAACLACGDP8QFoBoBAABAADwRwBWIQDmbf8aCYCZwx8BAAAwgAAEPfxDVACiEQAEAADAHwEwffvXUQAM0f41EACzhz8CAABgEgHQNPzFLNvXrqkAmKr9IwAIAACArwJgifavkwAYpv0HSQCMHP4IAACACQRA8/BX3+qnoQCYrv37KQBRCAAAQGgJgGXav4EFICjt30ACoFf4z81DAAAALCEAPoW/hgJgyvbvhwBYpf0jAAAAkgJgqfZvcgHwu/0bRAD0DH8EAAAghASgL/w1EgDTtv9hCoCV2j8CAAAgwZK9XV+3VPtHAEwjAIEKfwQAAAABGJYAmDr8hyEAVmv/CAAAgEYCYKrwRwAsJQDDCX8EAAAAAfBZAEy19EcDAZiXKycAZmr/CAAAgAYCYLrwt7gARCMAQ4Y/AmBuptg7J4zb1rKcrwQAAhA0AbBE+w+AAJit/SMA5uWWE63jbzn+zMUPPdbz7o3Hugs+Ym8awVcFwMACYKjwt7AAREvOgl0IAD/Z5iPK3jTqlqMXOz78WI/inFuP97y48UD7Or46AEEWAFO2/2EKgGXav8YCYMbwRwDMR4z9pfBbjz/T7Br+H3r0ytz2aM+7m4717ORqAIBJBSBo4W9RAZAOf/WtfggAAmAi1GC/7Xh3vWv4uwqAc2453v2zDYUd6/mKAQRYAEzb/gMoAKZo/xoKgFnDHwEwEXb7tbce764YKvz75rFnuBoAoKkA5Ncr7rMyr05qYiRmRa7cLN9RKzXLhprcWp8EYIm9RpGZxdvlZlGO3CzMqZaa6Gy5WXB1fBOAbVWKp4mUnIgsuZm/tVJq5knO3Ezvw0+2GVCuEa3+lHv4L9vboczOvaBsOnLRqwiIswHPbHq8czFfQwCNBUDL8A81AdA6/PUSADOHPwJgDm4+evFJ9/BXrwJOym5WJoqZlNOsXs1TzwB4kYCLb9xQ2HUfX0kAkwuAZuHvowAs2Nn2oMXaPwKAABie6w91PuIe/uqtQmf4u463qwGqGNz2WM/lm472HFKvJvBVBfBTAEzf/k0gAAFu/0ETAKOGPwJgbNYd6VwhDv297Rr+qw5cCX9PAtB3NWBv/6sBt7nMLcd6mm599MXJfHUBLCoAyyRn6Q5tBcBk7d9vAYhEACBgOO7797iG/5qDnYOGv+vM2nHlasBtbgJwm+OWQPcrGx/tXsrXGECSZYXPRS3Z3/mgnrNoT5vmI/vrj9rVEbVgt1iJG8SJ3NX6QKBH9tc/O78tcl5+6wOBmjkFrffrMfxkG5NNx7oTXMN/rQj/yTnN0gLgvBqwvPdqgIf566bjnR/lKw0AAGAQVu26MPm24z1/c4b/+kLfw1+dCduaHKM+Cnrzse6BEnC85x0OBwIAABiEG492H3WG/41HLypTt7f0hf9wBECdaeLfsfGwp1sC3R9cf7TnEb7qAAAAOrK88Pxs0cwdB//Eoh/HyX5/w9856j+vPkHgdhVA/ePlG452ZfHVBwAA0IlNh3uOO9v/0r0d/cLfXwFwziLxJsx+AtA7Nxztzuc7AAAAEGSid/dMFEH8lhr+m8Slf9f7/lqFv+u5APFIYD8BUEfcDtjJdwIAACCIbCzsynK2//liJ0Qg2r/rzLCfV2462j1AAoR85PLdAAAACBK3HOv+tRr+Gw51BTz8x2ddGfVw4KYjHiUgg+8IAABAgFm9t/0zzvY/J+9C0ARAnSniVsP16hMC/STgmUvXH37mYb4zAAAAAWTT4c4i5zP/wQx/50wW//zGQ/0lQLwx8P0bDnfdzXcHAAAgENibRt3ae/hPPZynhwCoo/5vbXCRACEAingd8VvrjzxzI9+kECfmQMdDD/z454o69//oZ1Jzn+z8cOj5quR8RXK+/IMXlS//8EXpd8GruwDuFf+M13labu6RnC99/wWp+aLk3O1pnn7Bp10Ad39P/DO98wWJ+fzJ56Xmcz7MXU9pOCef92kXwJ0nnlMGmzsk5/bvajuf+Y7cfPo7zw4Y2V//zNzW+z/15LOK63xS4/nEE89Izccl52OPDz1G+GxdV9j9oOPkv3h3v3v4TwpS+LtLgBr+zrnleM8f1x17NpIURAB0Cf9QE4CghL8fAvAFnQRA0/AX89mnEIDhCoAVwt8oAnDTke4yVQAWiufz9Wr/A24HHO7qLwHHun++4YmeMSQhAmBYAfAp/LUUADO2f4MIwOcsIgBmDH8EwAACYG8aIQL2DfWlPFNyWgIqADLhr844VQLEwcAbjvS/EiBeS1xOEoawAFiq/ZtcAPwO/2EKgGXa/wkEYLgCYJXw/6gBBGDl/s5Pqu1/1YEOQ7R/pwCoo+4gUHcRuErApiOdOaQhAmBaAegLf60EwKztHwEIugAYLfwRAP0FYOPh7iN6H/7zFP7OUV8WpG4SdJGA99cf7foYiRiCArBevKBiqFlXKDfqfmuZWSM5qw/IzSrXOdjpkwCsFIs03CdGclbsk5vlkrNM7PkeapYONfvafRKAxbvbFJlZJDnqPU+ZiZacBTtbpSbKObtafRKASPF2Nk8TITnzxYe8zMyTnLl5cjNnkPFFAGbnnlfUmbVj6JkpOWrAyMx0e4vUqC+2kZmpvaP7/f9jF58TJ+0D+trf4bR/11F/n7idB/j9uiPPTicVEYCQFgAjhz8CYE4BCGb4D0cAZMIfAZBjur1pnFjH+776WWK0y//uE72zzVUAFHFwsZ5URADMG/4IQEAEQOvwXxio8NdIAMzc/vUWAL3DX28BWLm3/bPq5f8It/f+Gy38naN+RjkFQB2xOCieZEQAQlIATB/+JhGAaAQgYOHvqwBYrf3rLQBrD3ft8XT636gCMGFbs+Nz3ikANx3rfmvt4c7FpCMCYL7wRwA0FwC92r+sAERpLABmb/9mEIBAhr/eArDpSNdZ91f/GjX8nTM5u8XxwiKnBIinBDpIRwQgpATAEuEvZsleYwtAQNu/xQVgjk4CYKb2r7cA3Hys549LdrebSgDGbm1yHAR1CoDjVsCRnjgSEgEwV/gjAJoKgNHbv9YCYIX2b3QBCHT46ykAM+1tMz4k7v/Pzr1gqvB3zpI9ba63Av5+/fGLs0jJEBUAU7b/YQqAZcJ/j7EFIODhjwA4mpyWAmC29q+nAKzc13bnrW6P/5lJAMZn9T8PsOlo97+TkgiA3wIQtPBHADQTAFO2fz8EwCrt3woC4E/46ykAawsvZm4Qn51mDH/nqF/Xm/tuBfRc2nC451aSMsQEwLTtP4ACYIrwN7AABCX8Q1wAnC/10UoAzNj+9RSAGw51fX/Z3g5TC4A60bta+64CCBnoISkRAHO0/2EIQAwCYJ32P0wBsFL7DxUBmGpAAbjxcFdb5M5WXVb+ahX+6qh/33krQL0asLGw6z7SMkQEwNTtX2cB0D38DSoAQQt/BEAzATBr+9dTAG462vWq+ms1c/t3jvrrcArAjccu/sJmU64hMRGAgAiAZuEfIAEwTfsPogAYsv0PQwCsFv4IgE4CYLdfK3YAvK/3yl8twt85S8Xnyc19VwG6v0liWlwATN/+TSAAAQ1/DQTA1O0fAdBEAMwc/noJwBx7a8T1h7ss0f6do/5v3yBeEMRVAARAdwFYJTkrD3RoKgCmav8IQEAEwEzhjwDoIwBLdrfeuupAh2FW/vob/mO2nnNMRH7r1asABzu/SmpaVAAs0f4tIgDDDn8/BcD04Y8A+C0AZg9/vQRg7cGu+9VL5lZp/04BGJt1TlEfbXRcBTjS3UVqIgCGFQDHW/00FADTtX8EQDcBMEr4IwD6CMC6wo4k9fefkQXA1/B3zpy881evAhzpvoHktJgAWKb9h5AAeAx/PwTAVCt/BxnxGJamAmC29h8MATBy+OsmAIcv7pq144Kl2r/rrC+8chXghsNdPyI5EQDLC4Ap27+BBCAaAdAl/P0RgJkIwLARBwC/M1WsADa7AHgKf9erAOq64KV7WseTnhYRAEuFPwIwLAEw3cpfb+FfoK0AmLH9G0UA9Ap/vQRgQ2Hnaau2f+c4zwJsOHTxEdITAbCsAJg2/A0iALq1fwsIgL/hP1wBsEr7nyIW8ejxWbr6YEetVdu/c9Tf66oAbDpysZX0DCEBME34IwA+C8Ais7/4xzX8NRQAs7Z/IwiAnu1fLwFYvrftvJXbvzrqv0t9L8CNx7ovbSjsmU2CIgCWEwBTh78BBEDX9h8iAjBY+A9HAKzU/vUSgCV72y5aXQDUWSg+C246Km4DFHYlkaAhIACmCn8EICACYPT2r7UAmLn9m0UAAtX+9RIAsUHvBauHvzrqi45UAdh09GITCYoAWEoATB/+OguA7uEfAgIwVPj7KgBWa/96CUBUQevLoSAAozPPKavF57h4GuCdKHvTKFIUATBO+CMAmguAqdq/BgJg9vZvJQGYaiIBEL8n/jsUwl8d9fe1ehVg/aFnPkuKWlgATNf+gyAAhg5/MYv36CMAhgh/BMAnAZhmb7nfau1fLwEQz8n/OlQEQP133ygE4PrDF3+ibgnceKSr4IbD3U+LA4J14tZA96YjXb8QTwq8Kv74x01Huv8sXiH8J/HnvxfzKzE/F/9/HRsPd1dtPHzxqQ2HL+auLez6l7WFHR9Zsr9nGqlsUQEISvj7IQCWaP8aC4Dp2r+fAmCF8EcA9BGA2TtafmXGlb++hr9z1M9a9SrAwLkoNTd6GSEIr2081N258XDXd9cdufjtNQfa16mrlknrIAuAKdu/QQRAt/BX3+qngwAYJvwRAM0FwGzhr5cAzLR7FgCrtX/32wBaC4CbDPRO15viasN5kUu7Vx9o//iGJ3rCSG8LCoDf4T9MAbBM+0cAhi0AVgl/9VQ/AhB8pm9vecWsK399DX911P/mQIZ/fwHoP+IWwlsbCzsb1x3qTF5b+FwUSa6xAJi2/ZtIAAIS/hoKgCnDHwHQVACMHv5GEgDx3/KLUGn/zlH3yOghAP1k4OjFy2IPw0vq1YF1B7rWkOoWF4BBw38YAmCp9o8ABFQAzBD+oSQAnsJfLwGYlNP0MzOv/PU1/NURnzWOw4DiMJ/js3nZ3g7xGdTu+HmP2tnW7+dS/XPxeSP+Xqv4vGoTn5XtjscJVYnYNMzw770a0G+EDLwsDhXmL+PKwPAEwNTt32IC4HP4ayQAhl/5W6CtAFip/WslAGZt/3oJwMRtLc+EUvtXx/nvUf/vUZIzMsPzqP/tU8Q2RfX3sfgZdnyuqblwg48CcHW6L11/pKt9zcGOfxNnBsaQ9gjAsAXANO0/yAIQjQAYLvxDRQC8hb9uVwC2NbdZZemPTPi7jr/h7z7hGWf7ZmTmWfH1bHL8Hlc/S1a5SMENkiMOEL6+vrDzxMp9natJ/UEEwPThH4IC0C/8NRAAU6z81VAArNb+gykARmz/ul0ByG5uCKX2HywB8DTqv0v9Ps8TPx/q56S6pniQ8O834nZF2+qD3V/l0UIEQEoATNX+gygAhmz/JhGAQIa/FgJg5vav3y2A5lLaf+DD3zlh6VdH/XN1R4H6c7pCZMD1gwhAnwgc6f716oNdqav3vTAWAbBK+KvP9IeQAAwIfz8FwDQrfzUSgNn5rQ9Yrf0HSwCM2v51vAXwNO1fHwFwH/Xfo/6eUj+n1h7s8ioBV6b7r2sPX9y5ateFyQgAAmDu9h8kATBs+zeBAAQ6/P0VALO3f90EILvlqFUEwMzh7zojemfCNvXqQKuyan+nFwlQJaHrjTUHL+6POdg+JeQEwDLhjwAMWwBM+dpfDxOhsQCYrf0bSQD0aP/6CUBTHu3fmALgOmPF10s9O9BfBrpc5uLr6hWBpXtaxyMAISwApgz/IAiAodu/RQTAn/D3RwCs0P71EoDx2c1JoSQAZgx/91G/durP7uoDHW4S0KVsPHTxz+oZAUu/dtgXATBF+CMAwxIAy7R/jQXAjO3fbAIw1SICMCG75eu0f3MJgDrXpV0Z9Xujfs6sK+x0F4FXVu/vvMeyAmCp9q+RAJg2/AMsAIZv/yEkAN7Cf7gCYJX2P1kvAdjafDsCYM7wdx31r0/d3qwsFW8rvCoB4pzcoc6mlYUdyxEAI4c/AuCzAFil/WstAGZt/wiAPgIwJuPcBsLf/ALgOqMzr9wiWCOySJWADYVd764q7NgdY38p3BICsGx/xzfWFjQoQ82agnqpWZ0vN6skZ2VendTEuE5+nW8CkFunuM/yHbVDzjLJWWqXmyX2GqlZvH2Isdf4JgA51YrMRGfLzQLJidpWJTWRkhOR1Te+CcDWSsXTzJOcuZlyMyezQmpmZ8jNrHTv45MApJcrM9LkZrrkTEstk5qpkjMlRW4mJ5c6Ro/P0tFZZ+ciAL4LgFHD3znXpp1Rrks/4xDLJaJgOUTgcNcvVh1s/zACMAwBCGj4ayAAMuGPAFhbAMwc/giAPgJgszeNEI+bXbLSyt9Qbv+uAuA6o8XXKkJcFVhXePHS+kMXn4w53jTO0gJgqvZvMAEIevj7KAARBW1fs1j4IwA+CoDRw19WAJzhr5sAqOcAtjX9gfavvQAYJfxdJ0z8d6m328Qt6FdXHez8PAKgoQAMO/z9FADTt38EwG8BMHv4W00AfG3/OgvAs1Zb+Uv7H3yctwfEmaZ/X72vbYalBMB07d+EAqBp+ItZlKOPABgk/BGAAAiA0du/gQSglvavjwDoEf7OuSZVzJZiZUxc8Z/Hxpd83TwCUPhc1PID7V8P1izZ3/lgMEb21x+1qyPK+c8s2tOmyyzY3fY1rceXX3/krtYHgjnz8gM/8gLQFjmnoPX+QM3M/Av36TGyv/7J9taIaTua79NqJtvPf1WPmZjT8hXX0U0AsprKaP+h0/77wj+hSrnmkVPOqbEBAEBoMTm7pZn2H2LtP6VRhP7p3vA//U9bXNFifhIAAEIIRVHCxHsNXmXlb4i1/7jyvvZ/7SOn9/CTAAAQYjx06j9XzdjRQvs3qAAEpP0n11299L/59Ku2hyvH8JMAABBifOzJZ3fPyTvPyt9Qav9bSvoEwBZbdB8/BQAAIca9p9pHf/h49x/mF1yg/ZtYAHxq//0P/p3npwAAIAS58Wj3wdse7XG8N56VvyHQ/pPrXQ/+vW/bUraKnwIAgBBj4+HOz9/2aPcHqgA4zwDQ/i0uAC6X/q/dXHSMnwIAgBBjQ2H7F0Tw/0MN/1uP9ygTs1n5a/nwj69wvfT/J9vDpybykwAAECLccqJ1/E3HLh679dGeS2r4q6OuL6f9W1wAkmtdw1+xPXL6//LTAABgaZRr1h1tnaNe7r/pWPcJccn/787gd47zCQAEwKLhn9qgXLulyPWxvzb194XH3y5f+/HPFfd5QHLu/9HPpOY+2fmh3HxVcr4iOV/+wYtDzr2y87Tc3CM5X/r+C1LzRcm5W3a+JzdfkJzPn3xeaj4nOXc9pe189oTc3HniOam5Q3Ju/66285nvyM2nv/PskPOpJ+XmkxrPJ554Rmo+Ljkfe1xuPio7j8nNRx7rkZoPS86HHpWb2waZtQc7Of1vaQFoVK6NLRb3+/va/zu2LUXLvPricAUglMIfATBW+OslAKEU/giA9QTg5mPdytTtzT4JAJf/TSYAcaWu4a/YNhclDXrBiPZP+NP+EYDhCgDhb47wv0WE/8wd52n/GgiAYcM/ocIR/i4C0DDkHSPaPwJA+9dOAGj/CIDRBGDj4YvKdHsLW/+s3P4Tq9zD/7e2fyuZ4ZMA0P79EADaP+0fAbB2+D9urvDfcKhLidzZqrD1z+Jb/5Kq+8K/VwDes3379G1SZ0Y3Hu5SnKP+hpGZ9RKzrlBu1EMpMrNGclYfkJtVkrNyf4fUxEjOin1ys1xylu1tl5qlkrNkj9ws3t025CySnIW75CdachaIDz6ZiZKcyAK5iZCY+eItbDIzT3Lm5snNHMmZnXteambtkJuZkjPDLjdqm5UZsfFOaqZKzpScZqmZLDmTsuVmouS4B723Yeufhdp/Uo17+ItH/k5tkX5oJBDhjwAQ/oEQACuEf6gJgFXCX2sBCKXwRwCCE/6OeeT04z49NaqnAND+EQDaP+2f9o8A0P59FAC3y/697b9BbHu6zmcBoP0bRwBo/7T/UBOAUGv/sgJA+0cAPB/4Gxj+124+/Zy49D/O5/dGGV0AaP8IQKgJAO2f9o8AEP4eBSChcmD4byn6L6kT/x6XRBzqpP2bTAAIf9p/qAlAqLX/SYQ/AuAuAC7P+V8N/1P/I5b8RAx/S5QFBID2jwCEmgDQ/mn/tP9QCf/Gvjf8uYX/q7bY0oV+ronspP1bUACsEv4LCX8EQFIAaP+0f8sJgLrYp/fd/v3np7/xO/xV1hd2XgoFAaD90/5DTQBo/7T/UBMAS4W/WOmrbvXzcODvl35d9u9/BaDjA9p/aAqAVdq/rADQ/hGAqSEmALR/kwqAp8N+Vy77P2+L//FMzbZHrz/Y8S4CQPun/YemAND+af+s/DVQ+Kee8Xy/X8x1m4vP2tLKx9u0RJwB+AfhT/u3evtfQPgjAAgA7d/IApBcp1y3pdhb+J+02ZtG2LRmw8H21xEA2j/tHwEg/Gn/CIAe4X9GuS6+QoT8aU/h/4Ft80/TbYFC3AL4M+0fAaD9ywsA7R8BCDUBoP0HSAAcrb/EEf4eBOCvtkdKPmMLJOsPtv8OAegk/Gn/tH+W/kgLAO0fAfAr/FOvtn6P4a8e9tPiMb8hBeBA2/+w8pf2z8pflv7Q/mn/rPwNQvtPrHHc63cNf1cBuG5L0ZO2h06OsgWDdQfafkn7Z+Uv7Z/2T/tn5S/tP4Arf5PrletiSwcEv0v4/9W25fS9tmCybn/bi6z8pf2z8pf2T/un/bPyNwDtP7VRXO4v9xj8fbOlqNEWWzzPFmzW7r/QRftn5S/tn/bPyl9W/tL+NRQA9XS/eKHPoMG/+fSbts1F37bpxdp9LS2s/KX9IwCs/KX90/5Z+qNB+IvgH5GoBn/R4OEfe7rWtrk40qYna/ddqKH9s/KX8Kf9s/KXpT+0fz8EQGztU4N/hHh//4gtg7b+34pDgF+xGYG1e5pPs/KX9o8AsPKX9k/7p/0PI/xT65URCRWO0HeOl+B/T8jBQdsjp8bZjMKa3c1P0f5Z+cvKX9o/K39p/7R/HwRAbOsbEV/WL/i9CsCWolIR/ItsRmP1znOHWflL+6f9s/KX9k/7Z+XvEOHvvMwfW+wx+N3Df0RsUZsI/lttRiUmvzGP9s/SH1b+0v5Z+cvKX9q/hxGH+sKSa7y2fU8CIP7Yc11c2R02o7Miry6ZpT+0f9o/K39p/7R/Vv46Rw39WiUsoVwJ6z3UJzdFndfFFt1lMwsrCmq+ub6wk/ZP+2flL+0fAWDlb+i2/96mHyaavhr6YSLQnTNE8F8esflU7YhHfvpRm9lYtqP+LrEQiPZP+6f9s/KX8Kf9h9bK35R6JSyxSgmLK+0X+JLh/2ZY7OnHbfHlS21mZXl+443rD7TT/ln5y9If2j8CwMpfC4f/GSVcPLIXnlythPde2vcW+oMKwOaiF67dXBRnSysfbzM7MbtbI9bvv4AA0P5p/wgAS39o/9YRgLQGJTylRglPqlLCxWX9cHFyPzy2qG98Cv/Y068JYXgiLL5ok81KxNhfCl+/7zzhjwDQ/ln6Q/tHAMwZ/uLQ3khx/z5cPKLnKezdRyb8xbwl7u2XiGf4v2R7uCfMZlXW7Wt5EwFg5S/tn/ZP+2flrykFQIT+yLiiQUNfSgBii/4WHlfy0+viir5se7hyjC0UWLen+Tes/KX9s/KX9k/7p/2bbuWveFzPj/C/HLa56D/C4ooOjvh28Sds9566zhZqrNnV9Cztn5W/tH/aPyt/WflrqvYvTvKPjCvxVQD+n5gfiOf1v2nbUj7HFuqs3tlYx8pf2j8CwMpf2j/t31RLf8Q9/8HDv/jt8LjizpGxxUfDE0rvs/3bqbk2cBOA/Ian1x/qpP2z8pfwp/2z8pf2b472L075q+F/VQCKfyeC/tzIuOIjYfHF3wpLOLU2JC/p+/42wPqd7i8DYuUv7R8BYOUv7Z/2b9j2H1/aF/7iHn48ST7sfQD1sesPtNH+WfnLyl/aPyt/Wflr/PYvHvnra/9xRc/Z7PZrSfJhvw645q71+y6w8pf2T/tn5S/tn/Zv7JW/joN/xc72fykstvhGUtyf1wEX1K9cv6+F9k/7Z+Uv7Z+Vv6z8NXb7T6xwufdfcoIE1+JtgHubL9H+af+0f1b+0v5p/4YVgNSrB//EVYA/2751agoJrsXLgHaf+xPtn5W/rPyl/SMArPw1Zvs/23fwT52wuOKHSW6tXgZU0PgcK39p/7R/Vv4S/rR/QwqAy8G/UXHFHTabcg3JrRGrChrK1x3soP2z8peVv7R/BICVv8YKf3XZT+/BP/HH9x3P+IOG5wDyzhxaJx4FZOUv7Z/2T/tn5S/t31ACkFDucu+/5BiJrfW7AHLr49aJtcC0f1b+0v5p/7R/Vv4a59J/revBv9/Z0srHk9haPwq4o/6TYisgAkD7p/2z8pelP7R/YwhAWqPLpX/x2F986ddI6wCw0F4/Y93us4Q/AsDKX9o/7R8BMEb7jy+72v5jTzeT1IF8FHDnmdcRAFb+0v4RANo/S390F4CkapdL/0XvhceWrSClA8jq/PoXvT0JQPgjAAgA7Z/2jwAE59K/6wt/1Mf+SnaR0AFmZW5d0br9rbR/Vv4S/rR/Vv7S/nUSgP4v/BErfp+32ZtGkNCBPgiYV5O7bm8LK39p/wgAK39p/7R/fVb+JlW5tv93whMrYkjnILDUXn+PeCUw7Z+lP6z8pf2z8peVv8Fv/6n1/S79j4wtSiWZg3UFIP9s5LpdZ1j6Q/un/bPyl/ZP+w/uyl/Hmt8St1P/vO43qKzd2fiG8yAg7Z/2z8pf2j8rf1n5G5T277Lmd2R88d9GbS6OJJGD/SRAQUO38yAg7Z/2T/tn5S/tn/YfcAFIqet36T8sseQbpLEOrMpvOLlubzPtn5W/rPyl/SMArPwNfPg7Fv24XPqPO11CEuv2SuC6ePUgICt/af+0f5b+EP60/4ALQL9FP+Jd/5tLppLEuj0J0LBxbUED7Z+Vv7R/2j8CwMrfwIZ//7f9XR6ZVHkHKawndvu1QgDeXitWA7Pyl/ZP+6f9s/KX9h8QAXB/5G9L0ZMEsCEOAtY/s3bvBdo/K39Z+Uv7p/2z8lf78Hfc9y92fdvfL20PV44hfY3wSuD8+hNr9zSx8pf2T/tn5S8rf2n/GguA26t+44rfH5Fw6iaS1yjnAPJqvyXeB0D7Z+UvK39p/7R/2r+27d/1eX8x4bElBaSugViUd3ah4yDggXZW/tL+af+s/KX90/61EYDkWrdX/Yq3/YlzZ6SuwVhT0PgHT+cAaP8IACt/af+0f1b++hz+qf1X/Irn/f/XFntqOmlrxBcC5dbVeDoHgAAQ/rR/BICVv7R/nwTA/T3/8UXvct/fyC8EyqvP8nQOgPBHABAA2j/tHwHwqf33e9mPeNVvfPEjpKyBWZxbv+nKOYA22j/hz8pfBICVv4T/8AQgqapf+I+KK3qahDU8yjVr8utfX7u3hfaPAND+WflL+0cAfF/567bkRzzv/7ztoZOjyFcznAPIr29Y27sXgPbPyl9W/tL+WfnLyl/p9p/e2O9lP6Pii14blVgcTbKa6RxA714AVv7S/mn/rPyl/dP+5QTgrAh815f9FF0amVBxO6lqIpbk1q1RBWDNvgu0f1b+svSH9k/7Z+WvXPtP7H/oLzy+aAeJatL3AazZ3cTKX9o/7Z/2T/un/Q8d/kmV6kE/11f9VqtnykhTExKTV3t6jXgckPbPyl/aP+0fAWDl76CTXOUW/kWv2B4+NZEkNSnqXoA1BfXiNkAbK39p/7R/Vv6y8pf273lSah3hf1UAiv8RllSyhhQ1Mct2npkqBOCDNXuaaf+s/GXlL+2f9s/Sn4GTVu8W/uJlPwmlD5KgFmBlXn3PYLcBWPlL+6f9s/KX9h+i7T+9QQR/sZsAlBwkOa1yFSC3rsDbbQDaPyt/WflL+6f9h2j7zzgjHvcrcW//RRz6sxCLCxrWOgTAw20AVv7S/mn/rPxl5W8Itv+MK8/6O8PfIQCxRa222CMjSU2LsTq/4VfutwFo/wgAK39p/7T/UFz5K8I/ocwt/Iv/05ZQOom0tCArdtQ/7n4bgPZP+NP+WfnLyt8QbP9JFf3CX8zvR205tYCktCiLcms+7BCA3pcC0f4RAFb+0v5p/yG48rf3Wf++iS95IyyheD0paXFW5dX+fo36auCDHaz8ZekP7R8BYOVvqLX/lBr35v8e7/gPEWJy659QrwKs3nue9k/7RwBo/7T/UBKA1Dr38Fcf/3uYZAyVpwHs9R9yCMCuswgAK38Jf9o/S39CJfzT+j/rr054bHEeqRhytwEa/md1vpCAA+2EP+0fAaD90/6tLgDpA8Nf3Pf/PmkYgiyz1x50CMDuZgSAlb+EPwJA+7fyyl81/F1e9OOY2OJG272nriMNQ/E2QF7VcocAFDSy8pf2jwCw8pf2b9X2n944IPxHxxe/YHvk1DiSMJQPA+Y1POuQgL0XaP+s/GXlL+0fAbDayl8P4T8qvug3Y9LK55CAIc4Se3WSQwC8HAZk5S/tn/bPyl+W/pi0/Tve71/qftr/L+GJFTGkH9iidzdOXJVf/45DAva30f5Z+cvKX9o/7d8K7d9D+I9OKPl7WOypG0g+uHobIL+uyNNhQFb+0v5p/6z8pf2bsP17bv5vi/koiQf9WGSv/YhDAPIbRPB30P5Z+cvKX9o/7d+sK389hX980bsjkyrvIO3AI6vyG37hkIA9LbR/2j/tn5W/rPw1Y/sX4T/abbOf+orf8ISSL5Jy4JWlO2pTnY8ErhJXAWj/tH9W/tL+af8mWvnrMfyL3w+PL/sKCQdD3AaombCqoP4NVQJW7TnPyl/aP+2flb+s/DVL+xeP+o1OKFWf7e8f/gnlD5BuIMWK3LoTq1QBcFwFoP0jAKz8pf3T/g0vAOINfwPDv+iDsITSB0k1kEZ9M6AQgEsOCRAvBmLlLyt/af+0f1b+Gjz8xUt+1PB3EQDCH4b5SGBufcNQVwFo/7R/2j/tn/avswCk9Q//KwLAZX/wg4X2+o85BGCQqwCs/KX90/5Z+cvKXx3DP7XOQ/iL0/6JJV8lxcC/swB59c94uwpA+6f9s/KX9k/711EAUmv7Bb9jEorfDY8v/RLpBf6fBcipvs/bVQBW/rLyl/bPyl9W/uoU/ik1A8M/vvidkfEVnyW5QLuzAOLFQO5XAWj/tH9W/tL+af86CUBKlafwf3NUXOnHSSzQ9irAjrr/03cVoPe9AAgAK39p/wgA7V+H8E+u9BD+JX8bnVxyK2kFAUC5ZmVu/StXrgI0ON4OSPjT/hEAwp/2H0wBOKuMTqrw1Pz/GJZUsoacgoCxKLf+m86rACt3NSMArPwl/BEABCBY4a++2jexbGD4xxX/amRc0WISCgJ+FcB5FmBlnph97YQ/7R8BYOUv4R9oAXC82ndg+I+JL3ppTFr5HLIJgnMWwF59/8q8OsUxO88iALR/Vv7S/hGAQK78Tasf8Iz/lSltsz18aiKpBEFlRW7Ds30SsLeVlb+0f9o/K39Z+RuI9u94wU+xpwN/lbaHTo4ijSD4VwFyqj/ZJwDisUDaPyt/WflL+6f9aywAKdUew39MfPF3bXb7tSQR6Mby3LqGPgnY3cLKX9o/7Z/2z8pfTcL/rDJGnPQfMzD8L49KKN1O+oDuLCyoXynC//0rEtD/QCDtHwGg/dP+af/DEIDMM8oYcdJ/zJWm3+/VvqMSS75B8oBhWJZb+4SnA4Gs/CX8af+s/GXlr4/hL076j0koHRj+cSV/HZVQ8jESBwxFlL1pUkxe3V/6JEC8IZD2jwCw8pf2T/v3UQDEYT9n8LsJwCvhCSXLSRsw5oHA7Nq4PgHIb1BixK0AVv6y8pf2z8pfVv7KhL+4359c5Tn8E0rax6WUzCBlwMAo16jrglUBiFFn5znaP+2flb+0f9r/UALguN9fPiD8rwhA0Y9tD/eEkS9geKKzK64XAvBBjFMCdp9n5S8rf2n/rPyl/XsLf7f7/S5zaVR86TZSBUzFUnvt430CkOf9VgDtn/bPyl/af0i3/9Raj61/bELJG6MTi+8mTcB0zEypH7tiR+2rfRJQcIaVv6z8pf0jAKz87Qt/9X5/pcfwH5MgDvsllq0iScC8twJyqu6Mya+7fPVWQAvtn/bPyl/Cn/afoV7yL/Nyv7/47PjNJVNJEDA9y+x1P7p6K6BeidnbRvtn5S/tHwEI3ZW/jkf8Srxd9j/Aa33BOlcBdjdOXJ5b/799EpDfKMK/nfZP+2flLyt/Q6z9n1PGpni55B9f/Obo5KL7SAywHItyqj4twv9SjMujgaz8ZekP7Z/2HzICIC75j030fMl/bHzJf4UnVsSQFGBZltrrHnMKwIpcMbtaaP+0f9o/K3+tH/5pteqlfTEemn/c6RLbI6fGkRBgaWLsL4WL4P+PPgHIrVdW7L2AAND+af+0f2sKQKa45J9c4Qh+57iE/3ujE8pSSAYIGRbYa1fH5Na+fUUAxOSpEtBO+6f9IwCs/LVW+Gc0iEv+pV7Cv+jV0UmnbyYRIPTOA+yo29wnAOqIQ4Er9rUjAAgA7Z/2bwEBEK0/tbpf8LsJQDWP+EGInweoPdVPAgrOsvKX8EcAaP/mDn/1oF9SmefwTyh+d3RcaRqf/hDyzLFXjlmWW/dyPwnY2UT7RwBY+Uv7N6cApNZ4DH51xiWWvCKW+Wzikx/AeSsgty5meW7d6/0kYHcLK39Z+Uv7Z+WvTwKga/hnnBGtv9xr+I+NL/4Rp/wBPB4KrLlHBP8lVwlYvvsC7Z/2z8pf2r/x27/L430Dp+T1UcklD/ApDzDYlQB77c5+ArBDzJ5W2j8rf2n/rPw15srfzMFbvzjl3zZqy6kFfLoDyBwK3FFXdiX8a6+MeEfAcrEzgPZP+2flL+3fUO1f3Osfl1DqOfwTi98dFV+81WZTruFTHUCSKPvJUaL5P9cnAA4JaPAqAVoKQKi1f1b+IgAIwDDCP7NRGSda/zivl/xLfzY2tXQtn+YAw5KA6lnLdtS92k8C8lQJaKf90/5Z+Uv469T+z4nWX+0Ifue4hf8Hovnvtz3cE8anOIAfLCyoXymuBPxtMAlg5S/tn/aPAARFAMTb/MYllnsP//iSl0cnFN/CJzeAZlcCaj+yLLf+bU8SQPun/dP+Wfkb8PDfelYZJ9b2uga/mwB8IML/oO2hk6P4xAbQmAU5tfeK4H/fXQKW7Wlj5a9BBID2T/u3pACIR/vUQ36ewt8hAPElL/Eef4DAS8C3lufWXnIKwDJ1coeWANo/7Z+Vv6z89Tn8M64e8vM4SSXvjokvKeBeP0CQiN5WnSgk4HKfAEhIACt/WflL+6f9ywuA98v9Vy/7l3aOTSxbxScyQLAlILs6Y5mrADgkoF5ZJt4YSPun/bPyl/Y/vPA/p4xPrxv0cv+4xNLXRyeUJvBcP4COLNxRnzVAAsQbA90lAAFg5S/tn/Y/pABk1CvjxeX+8Yklg4R/2ekxaeVz+PQFMMqVAHE7YIAI7Gom/Gn/rPxl5e/Q4b+1URkvLverwe89/Ev/e0xK+Z184gIYTQKyqpNE6F8aIAEFTQgAK39p/7R/LwJwVhkvXubjDH6PApBU8s6Y+NI8W+yRkXzSAhiUBTl1/7p0R+0HrgKw1C4m/4wI+DZW/tL+WfnLyt+r9/nTakTYlw4a/uOTSqtHxpYu5NMVwARE5dR8Zam97p1+AqCOeEJgqdgkSPtn5S/tP5Tb/5UDfuOTygYEfz8BSCz75ZjEsrv4RAUw2+2AnNqPiy2Cf+8Lf+eIw4FLd11g5S/tn/Yfiit/M+r6Dvh5DX9xul+8zS/TZm8awScpgFmvBNir1y6x1/xugASo43YugPZP+6f9W7j9i/f2j08ePPjFrYD3xyeUnBgbXz6TT08ACzDXXjNvsb325x4loPdcAO2f9h9qAhAy7V+s6Z2QXKFMSCoZKvzPjk2qXMMnJoDFmG4/NW7x9tp6jxKwo15Zsus87T/EBYD2b7Hwdwn+QcM/qeTnYxPLP8OnJIClUa4R5wIOiicELrtLwBJ1xC0BVv7S/hEAkwuAW/B7E4BxCcWvjkko+xfe4gcQSucCsqsfEucC3r4a/jVXJ7dRWbK7lfaPABD+Zgt/cY/fU/B7CP+/jE0syeB5foAQJSK3aoNo/b8eIACOqVOW7Gxh5S/hjwCYQQDEa3sniMN9noLfTQDeGJdYUjDFXjOBT0CAUL8SYG+atGh7be1AAeidPPVqQBvtHwFg5a/hwl8Ef/rQwa+OeKTvH2IOjU+unManHgD0Y0FOTZa4GvCeZxFQrwY00/5Z+Uv7N4IAiMY/Mb1WmSgR/OJU/9sTEkuPs7AHAAYlMqvsZvGUwK88ScDi7WLEGwQXi7MBtH/aPyt/dVj5K97VPzG9Rpko3tw3Mal08PBPLnvHEfwJxbP5ZAMAKRaJe4MLs6t/6lEAHFOrLM5v8ksAQq39s/KX9u+XAIjtfBNTKx2h7zoegz+x+C0R/IcIfgAYNlE5tfct2V7zWv/wdxnx3oDF4pAg7Z/2T/sPxMpfcZlfHOybmFI+IPg9hn9i6d/GJpbt4h4/AGhzS2Br3eyF2TXVHgVg+8DbAggA7Z/272f7d7vM722uhn/p78SK3qxpaeXj+cQCgABcDaj6xuKcmr94F4FaZVHeWWXRrlbCn/avmQCEVPvPbFAmpVUNGvr9wj+h9OVxCaXftj3cE8YnFAAElFmZNdPVswGL7TWXPUnAohwxqgjknxNB34oABEAAaP8Wa/+i7U8Sp/knicv8k5JLJcO/9Pz4uLK7eXMfAOhwW6D8ThH2rwwIf9fZXidEoCngh/9o/wiA+dp/k2j79Y62r4a+63gN/uTSdycml/xkTGrxej6BAEBXYuwvhS+w1+Qv2l7zD48C4EUEaP+s/A3Z9r/1jGj7NSLoywYEv9fwTy7944SkinxO9AOA4YjIqIqOzq4uFWF/2asE9IrAwrwmEe6trPyl/YfOyt9tzkv8FR5D36sAJJd1Tkgq+zr39wHA8MzLrvmwEIHnB5OAhTnVykJxRmBh3rlBRYD2z8pfU7d/cYl/srjEP1k8tz9U6LuF/5tiToxJKlrHJwoAmO+KQFbVN8Rjg7/xGP6uo4pA7hkR+BdY+Uv7N78AOEK/QZks7utPFoHuHDkBKHtuXGL5Fh7jAwDTs+GJnrCIrJo08cTAn7wKgOvsaFQWihcK0f5Z+Wuq8PcS+lLhn1L690lJJScmZlRt4BMDACzHHHvlmKicSru4NfDaoALgHHu9Ei3OCUSL2wOs/KX9G1IAnJf3vYT+EALwgZizE5IrHrQ9dHIUnxAAYHmm20+Ni9hWaVevCAwmAEIUeqdGiRa3B6ILWmj/tH/9H/0TB/mmZNYpU9Iqhgx9T+E/MbH0ZbGYJ2d0bPE8Pg0AICSZl3hqdMTWqvSFOVW/HVwAXEY8PRAtDg1G72yl/dP+g9f+xfKdKRk1ypTUCmVKSlnfSAuAeD2vmKNc4gcAcOXeU9fN31r1TdH0fz5o+LuPuEWwQMgA7d8YAmCp9q+2/K31ypT0qn6B7z6DBn9K2V8mJZc8NTGl+BO8pQ8AYAiECHx6QXZNnQj4D2QkYIFjapQF9gYhA02GEgDav4kEIKdJmZrVoEz10PJ9C/+y1yYnl/9wQmrZHarY8hMNAOCrCGyrWRi5reqICPfXBg9/9xEysL33ykAB7Z+Vv17Cvy/wa5Wp4vn8qallfSMT/q4CIB7b+4N6gl8c5rud0AcA0Igo+8lR87ZVfSsqq7pDhP7loQXAbXLqlKgdZ5Wo/POs/A3l9p99Tpm61XPgDy/8y/5T3NMvHJ9afguX9wEAAkyEvWZFVFZNoQj23y2QFICobVVXR1wdiBK3CqJym5Soggu0f6uu/BWH9qZln1GmiXv40zKqRbBXeA18aQFILXtXhH7TxJTy1AmplYv5aQQA0AXlmnmZtXdEbqs8HbWt+i1pAXCfnFpxdaDRIQSRImRZ+WvG9q+G/VllmricPy2zRpmWXqlME0HuOn6E/2+mJJWdFO/hv4e38gEAGAz15UJzs6ofjMyqqhKB/7Z0+LtMpHOya5XI7Q1KZO45JTKvhfZvtPa/vUmZLsJ+ujPs0waG/XDD3yEAqWV/n5JSXjMppTxpfHLlMn66AABMgvqCIYcMbKsuFQLwhs8CMGCqlUhxhiDS3iikoEmJEFJA+w9C+xetfrq4Zz89q1GZvrVOmS4u408XzX56WnnfDBX8UgKQUvbW1JSKJvEa3tzJ6SW32uz2a/kpAgAwOTH2l8LnZFXeJa4MnBC3CX7je/j3H7HUqHeqlQhxpSBie6MSYT+rROQ2KxEiqGn/PgqAuHw/Y/s5ZUZ2ozIjq16ZsbVWmaEGvXi7nmvQexo/wl80/NJ6EfjbJ6WXf8hmbxrBTwoAgMWZlV0XMzeramvk1spmIQRvD18AvM0VMZif06DMF3IwXzx5MF/Iwfy88wEXAEOGv71ZmZlzTpkpDuPN2NYgQr5OmSEu28/IqFJmiJCfIYLcfaZLjqQAXJ6SWv7KlOTSf5+UWhE7eWvtak7rAwBwdSB8XnrN7fO3Vh+M2FbdIwL8ff/C/8rM31rpZcTfy6pR5mfXOQRhnjrbzyrz7OeUeTualXlCFOYJUTB2+28R06zMEv/Ns8R/+6ycM8pMEewzRXufKcJ95tYaZWZmlTIzo1KZmV7ebzyFveYCkFb+J9HwGyenVeRPSqz4/PjNJVP5nQ4AAIOiHiSclV5x+5yMqt1iN8F5EfqvaysA/WfeYCOuJMzbViOmVpmrjpCGudn1ylwhDY7ZfqZ3zvbNnEHnjGNmi8Cene2cRjENvVN/ZbbVialVZokgn5VZLaZKmSXa+ixx7118bQaMe8h7mwCE/yVx7/7X01IrqienlO+clFh595S0GpbqAACAFojHDO21q+dkVG6Zl1n59PzMqhdFwL8b8PB3mbmZcjMns0JqZmfIjaew100AUsv/PD21tF2E/XemplXGTc4su43H8QAAILiIA2Ozsiuun5NeuXleVtWTIqTb5mdV/clKAqBT+P9TBP1/icCvnZ5acWRyavm3xSG9j4jH8Kbxmw4AAAzLrMya6TNTyj4xe2t1/NytlY+JUG6ct7Xqv0XYv0v7d8x709PKXp2RXtkpQv70jPSKfVPTKh6Zklj6qYkpFQs4mAcAABZDuWamCDhxG+FTszMr/3X21sqdczMqfjA3s+qc+OPLQhJeE2F/ycTt/58izH87M73yxRnp5Y3T08t+Iv78oLhHnzItvex+9bn6yemVETxbDwAA4I64rSBuKUTMyCy5aUZazRfEKfpviYN36bPSq/fMzqx6UoT3T2dnVFbPyahoFfOsmJfFX/uVkIjfzcmsfE3MG+Kv/VP8+Xvir19yC/7L4u9/IP7590XA/3N2ZsWbs9Mr/iZk5E+zMip+Oyuj/Fez0yt/If7e8+LP22emV5wRUzEzrfzHMzOqnpiVVnlgWnpFzvSUyripaaUPTkuvunOquAUyI7V0ofrCJb55AAAAAAAAAAAAAAAAAAAAAAAAAAAAAAAAAAAAAAAAAAAAAAAAAAAAAAAAAAAAAAAAAAAAAAAAAAAAAAAAAAAAAAAAAAAAAAAAAAAAAAAAAAAAAAAAAAAAAAAAAAAAAAAAAAAAAAAAAAAAAAAAAAAAAAAAAAAAAAAAAAAAAAAAAAAAAAAAAAAAAAAAAAAAAAAAAAAAAAAAAAAAAAAAAAAAAAAAAAAAAAAAAAAAAAAAAAAAAAAAAAAAAAAAAAAAAAAAAAAAAAAAAAAAAAAAAAAAAAAAAAAAAAAAAAAAAAAAAAAAAAAAAAAAAAAAAAAAAAAAAAAAAAAAAAAAAAAAAAAAAL7x/wGr8rr4h0l4pwAAAABJRU5ErkJggg==;" vertex="1" parent="QThOkOYovAdt5dILF7DS-15">
          <mxGeometry x="140" y="-20" width="42" height="42" as="geometry" />
        </mxCell>
        <mxCell id="QThOkOYovAdt5dILF7DS-17" value="" style="group" vertex="1" connectable="0" parent="1">
          <mxGeometry x="90" y="250" width="160" height="80" as="geometry" />
        </mxCell>
        <mxCell id="QThOkOYovAdt5dILF7DS-6" value="" style="rounded=0;whiteSpace=wrap;html=1;" vertex="1" parent="QThOkOYovAdt5dILF7DS-17">
          <mxGeometry width="160" height="80" as="geometry" />
        </mxCell>
        <mxCell id="QThOkOYovAdt5dILF7DS-16" value="" style="shape=image;verticalLabelPosition=bottom;labelBackgroundColor=default;verticalAlign=top;aspect=fixed;imageAspect=0;image=data:image/png,iVBORw0KGgoAAAANSUhEUgAAAXEAAACICAMAAAAmsyvzAAAAkFBMVEX///8PDQ4YFhYAAADs7Oz7+/s9PDzk5OS3t7fw8PCDg4Pf39+NjY0JBgjU1NQdGxygoKCUlJQiICGbmpv29vZPTk8TERHDw8PNzc3T09Pa2tpeXl5aWVltbGwFAAS1tbWtrKxFRER1dHQ1NDWIiIjGxcVmZmZTU1MtLCympqZDQkIwLzBzcnM6OTkhICAbGRkBqYAdAAAKCElEQVR4nO2daXuyOhCGxUgFFeuCqFgVt6pvt///7w5BSDIhLKFSW87cn3phwvIwTCYzgbZaCIIgCIIgCIIgCIIgCIIgCIIgCIIgCIIgCIIgCIIgD8L2l1ZwvQbW0rcffS6Nx54PZgRwHszdR59VY+lOD6HERlvEM8JN/0adR59bEwk+CPHaSkLVd9tHn1/DcAeycadFn6J3uR/jTPMW/Asho0efZ1OYf5EiuWPNL/NHn2sTcFfF9s01X6Nr+S4np5yBx5DnxaPP+I8zLm/giZmjN/8Or1oGHpv5/tFn/YeZVRA8lHz16PP+s1QTPJT85dFn/kepKjhKXpFVZcFDydflj+OaJoaUlN43BA8lH5c4RDfozdq3FKRxWA0Cv/aL+s1sueCbVMZQCc0iOlzyU8EB3NGFSu0YFMe5Cf9e1CtFfxjTh9uTzcOSKfxu0v5Rt73L4/DN2j9NdwWZFY+Q83Thrxy+If9SB4RsjBSE/BPa+MVXb/NMfVfcbrHNb6Wu1+T7GZbqcHd2grUu6YZOXjbLI5tRJPBceDLOObsfeiQtd2TsbTNu4u4joy9w8R22H1nxZPNTqes1+X4eo/hIcOIk2TgldKu3EUtADr0LPGtoiv2yU+aWyr5v15vE8rYTaUCc/GJHUxS3BXM2uK3a61Djy3q8Xfj9brfvL4LxK3XGe26IO+7wPZJln1aGgdPrvcZtnkgpxZqi+F401YHww2me8s6duZi7ehd79tR7H2YLbpDYdZ+4ArmDaUMU74uBIZnqdD2CrkqPYMbxiQrHiZ+LAVcguePDcYIwoDZE8TWQ7VrcgTMCXZVGvocm7rAhgV7uOdWIJcYGbPAQYv1mKN4Fc59ScxkGnDepPHkXCB4OxrP18Xjcv84+RTHHaRtnm8SnrhmKH6FqGd5YzdoBfRUeSTTxcNAdmuyXznzvJJe75Aokw0RzFTc9EHd7Hzqd32BfI9XAFQXfdRW7uDFLYpVZsqW5is+lhArJliVFX+6bqsEFXHHymrMn9406dodcmGNqruLrDRDNOGj0dS8wAZN2SWd+aQU7Hk/CWa4wiDRWcVM2U63VnHDUbXtOau/cxJdFO3PBwNtYxRdQMxLodR9J3aVklDAi6lYtuOJC7bouxTvDuTUf/sxyyjGQTMunRFzA2ClH86OSc8mWtbUitmzREZsUkfXtF3ozSyq+SPZmsRZ2vMnaUl0Fxf3WaZ9E/pOfWNr3AuM7q7gHJAB3zJFGRxYbOo6p7n+jz5Nl1Kv1g3ci+KN4IXWrtOJ8b8yVTdkmOtYIig+eCZsVb4juM16BDbRR7f4uUNxrw18/mBIzdfeYPlfApqEiSacGojSjoDhwAVBx8znpzb00e9okxQ3pSHrzkQp0gGAbjXplgvSQwIGXXU7BVBYqvlPlviTFN7uZwEeSDr7ZuI7iqeNoTbr1OcEJZ6C/Bzh2wqGTz39ysucUfcUNIsLy799X3JBH/ztjQb0KI7g0cAZFwHJbwQmwudHueSLyFSWzKiieIdcdFN9Vk7IkU6iXxnwzwYd7AMFKPz3QmaGLFiHRkPpgxR3gy+s1cimNVeFlNjgSwGSWSvENHKlulc5HKh46pfZEHKrJsaqaZdjfW3Ew7vjVFH+5rWkRJImqzq1aFCcrq2O23PmED8qXqmqWYX9vrzKAv1VS3LRt2+UzoLFrU2jv+yvOXIjdZidWxfBKs8+JNMqxuL/iEQV5lbspzva9VQzzNSApXuFQVo5XEYRM1lDdTXEQHfLu1RUXJg+BvgylOeZEGuUY5YycvOTGoka50FxVcXK1BHpwll9N8RVrAh7UOzP9RsntBsyvQ/Ow+YWx7ZJRVlY8Z5ZfUfEeaFIXcP6iV3K7cYCJGZgi5A8quwi3E2LPWYqrquJ5maxqik9Zk3d9GUojp8e1R+luboL8AvMdnOUvVJwNnbW+2mR/ryCRLknAW7ZOK3lj8QsVt35E8Ras5BvlSigC0Kl4z/DXKb+yAPzwGxW//oziKwfaqGZ8KK0EkF9PEapu/8APv1Fx7sdrnebDYEXbyGHRLR1eCvEzyCr+RsV7qiPen6Vcy9c62kDuLb0swmNcwzFET/4bFX9lTbRrj1oY0qsQOn5FXl0kF93A2nHyJJRtf0pxFqyWUPyNBVb1fmxgL6tWviwhC66aQYlZ0C/uWHSiQ2EGWE5xoc7JvFyx4sIEud5lFCdZNq+gQsa4pt4UUtwsvmqWLnL7GM+7tt1d8ml5puJsHHOE+KekjX8yxVlBu5elOFOXRbKOfn1dj89YN89x4r/IusRN7qZfufU+Fe1AHiWdespU/Mo37eiKXJe2K6n4B2/WC12Z2bkehC0tUXGH9BbU23V6vEXeAsl7EK8R8i6vL15stYQcCzLl/T1xZMHVibC5YOQKMhVf8H6EeJNJZK4lFX8V+x6ePkF9Q6pI0FcILk8TsUWFfJ4WcRGHzs/dUTvOSxFyDjJF7492RPWKM1GuAnrPlTxTcVvsRguib63Sio/EvhuYrVTWOeGDWPtquNvYaTzZrc6odU6kDK1j8jLdSuHe8jqYfWW805w1cZjlSZ6peOsFdtvQBXolFe/nHLG4ll9h0Y4msZFHa0oCX3iZ1nNI25bbEjmc5IpnLdrLk9wxshRfVFc874jFilcoPeoSv81Dv8DU7YLlzekyXCq04W2zFzP1SOYVkqiMq1Jc9Ma6incVx4vPASiuOK+612RFuCxIWbTctZANdBSfB9plfCUhPfsRWL4pNQ9HrV70YCgVZ6/V6isebpAWLhLy7/b2gKg4OQ/k86o1N85JvjzhhZHoyuZzItV095ph5CT/44fznbx8k64TSVYPC2trRdfUE7pED0OHtwOKb9nm5EsIS0fQMvz7YIXjqbC29sa+5e+ENXTOz302M4mt6SPlhtOTmy9Xjtryuz+J4IXjTSdYg2LwbCS4rGAUA+9xZzBJmu+iO3odxMD0j5tsPvL7vuWflZ4c6aHsW4voqMEx+pteX39wYZOEwY9979tmfoXa0XK5ik7gRTX5tJWKe1+568NZZ39hXUOsYenhiXaxFnKGrBSmfwrCYy0LZXT9uWVZyx/95HRSfaPRv9ta7Lv9ue9eVe81mM+qWOVRnyn5w0yTeCV6R+Hd7pCROVPZuFLx2qdpTSQeL41DPHRlPWIqxestmjSW+IOeziQ/W6tQHD/rWZGXxLGs4s+quKrhLa04Cl6Z5LO1NHw9v5yfNqpEcUpxFPwb8I93eEY49fAmijaS4l6ti/SaTwCygiUUr7sK23z8T6KjOPmoNDVBRHrczIsUr3kpzf8G/5BUjPMV98g/NPA7sY3rncpKcay4R77Qg9+RYELTh2obp2tDN+SC//XqzixeCVEHfu/hD2v8Fyk14C4y3nxbLvCT7QiCIAiCIAiCIAiCIAiCIAiCIAiCIAiCIAiCIAiCIFX4DxiRo5/IzhVMAAAAAElFTkSuQmCC;clipPath=inset(4.95% 11.33% 4.95% 11.33%);" vertex="1" parent="QThOkOYovAdt5dILF7DS-17">
          <mxGeometry x="10.399999999999977" y="10" width="139.2" height="60" as="geometry" />
        </mxCell>
        <mxCell id="QThOkOYovAdt5dILF7DS-19" value="" style="group" vertex="1" connectable="0" parent="1">
          <mxGeometry x="350" y="370" width="190" height="80" as="geometry" />
        </mxCell>
        <mxCell id="QThOkOYovAdt5dILF7DS-5" value="" style="rounded=0;whiteSpace=wrap;html=1;" vertex="1" parent="QThOkOYovAdt5dILF7DS-19">
          <mxGeometry x="-10" width="183.58531317494598" height="80" as="geometry" />
        </mxCell>
        <mxCell id="QThOkOYovAdt5dILF7DS-18" value="" style="shape=image;verticalLabelPosition=bottom;labelBackgroundColor=default;verticalAlign=top;aspect=fixed;imageAspect=0;image=data:image/png,iVBORw0KGgoAAAANSUhEUgAAAR0AAACxCAMAAADOHZloAAAA/FBMVEX////snEtPmsoBAQEAAADvnkzsm0jsmUVLmMnyoE3rlz7snUvrmEHrljzmmEnrm0v99e3zxZn1zKjyvon32b3uqGH//fnVjUT4+PjckUb88ejPiULilUjto1ntoFO/fj344MRWORt2TiXuqmknGgxkQiChajPw8PCUlJTV1dX7697x9/uVYy9uSSMPCgVIMBd9fX0xIA/Hx8cSEhJtbW2qqqrX19f10K/65dPd6/Rkp9Hwtn4cEwmFWCpQNRm2tra3eTo+Pj5RUVEdHR0sHQ3xs3agxuGz0ueAVSnO4/BHR0cyMjJeXl6Nvt292ux6enp+stZXQi7Wml/dzb/9VuYkAAAUBElEQVR4nO2dCVuqTN/ApVhC3FFMEde0jrkc27DQ8lS21+l9n+//XZ6ZYWYAwyVEpfP4v6773AmEzq//PjMYCv0IyZf1pGyMa5liUctkauOxnEr3E5v+VJsXpZwytGg0HIkIAs8zUHggghCORqNFQ89v+gNuTJSyDMBEBBOKi/BC5H+TkNJPZqLR6WAchGq6sunPu0ZRmkktvAAZSigcMcr/G4CUZioTjiyOxhQhWkz983yURHkc+TYarEBFXfmXASl5vRYRvKDBfLT0PxvmgUlpYU9qY/GJ1P5N/wM8cdGbSTn58Ml/T32g3vjABopQ6/9j6pNPZ3xiA/EU/yn1yafHS/obp/CC0dz0mPwSpS8vEafcRRj/I9aV17WIz2wgnn8idil9wz+HYxc+8/NTn6au+W1URARN/+F4+oav3tgpvPajK3clvQqPY4mQSf9cPPkkvzrFMfHUypsepFcB7ni1bBgU2Dc9TG+Srq0eDsDzI9PChF5cVaxyyk+sSRNJacUuh9LRfpxnXr0/tuTHuZ6mvDY2zI+zrb6xTjgMX/xJttU31smGgbb1c+JWf7xmOADPj5nK6Y/XalZI+NoPUZ7mus0KiZD6EY45L0uboMNnfoLyJJLF9dsVlJ+gPEpqQ3B+hPLo2obgMEwk8I2wdGZjcECtHvAVUM0NxHJL+GBXW0pyg2yAaQXbL6c353Sg8LUgm1ZzvaXnVwkH2LSU5IbhMJEANzI2bFdA+HFgTatprKeLPBNPYOnom4fDRMubpjBF+uMA0IkkA5ou6+uYuponwjiYbnkTHS8XkQLpeBQ9vGkwSKKBrNP7tUCoDhMub5qEiyiB8DpMQLsYzYCoTjCDVjogqsMIRvCCVl4OQK6DhM8Ej05/4xUWFSlwdJRUMMI5FCFwCc9m+6VOCQeOTjooXgdINGh0EsmgRCwmgHSawfHJvpcSx5eWHHu6QzlAquMjHQDm+ePh/QrL5+fD4/P3EQXKsJioT433y4+Hz6udPSA7QPawXH0+fDxf7n/jPvkARSyfdOf48vETENlBZBwCaX0+Pi+uQX2/F6Tw9B/b60XFB698/PwAteYLGQvQ1cPH5WL38r2zU8xo8J+i4/XCsnQ2uA/YTEdDCC2qQAm/ayyjnIxIcprclh+nkxBXMb7IL/PFJSuJ48ereWioAi2gP37HcykZSoelVCiFfb0gK+UMH9HLC70Pry1H5/ndxdlM15+5fPo+G5Y01mVBSimEDl9LyRoTTYQWaiHxtaXofHzONSoHn/c55kVH4UWECC+QrcZCROLRz0I0whA64AL4mueBs80s8mdYalJifzGrstvXHPNaxu3whp5O6+bShIisl9M6SA6kWtLAusNrsm7A18VxUgnpqeK8G0I7XILOd+HsmOY1Q33yi/dMpYnQLySbSj6v5FNxuPQmH0okQn05IiUVPYLo8MVUom/wcjOtJUEWk8gv4HkiSyzq/vg+HMTnfbr6NBfMdjhRysU4+xG+1kykDCOZUDK8YChK0jB04OOxV1ZSYQCnaUhAG8qZmpEIJeUFdCfsfb/Esyc4UD6fp91zMafMibnGU32YteMRkom+FhHCyeaYiTRDybAgaP2QzBM64D8Ah0F0BOh3FnFw3lPlS89w9vam4VlkqoYT46Nhvceyg5ZopyMnErIUEbRxhs+EQug+RmrMEDoQjnkZiOiAzkIm7HkudP/dKxzI5+rRtfaa75Q5UW21ux0WStVuhjzQlEQ/LRejvCCHmlE0uGKR5Dv5RAjozDfpeA/oH97ZIDwPbr55rlOWStXrAxZLPWc3LX6cBAV1oqkXI5AI+QVMJ9RsosVk36LjOWQde7YrjGfn3QVPft7KdvEaYtllO9cVlu2WHI4nUqwZybKipARCB2Q/hE5/nEzABVPfouM5ZD0sBweKC578HLfDlQCa3V2WreRKB2yvYXM8vCFrgiBlkqE8Pw7loWUVk03LK4e1NFxs9y06Xrs7x0uzAb75K55+dPbHBaqzC+n0RmK24qQT0RMyz/ORsZJneAWEJF7QEopB6UQEA9qWRWd+2skXPTrlx+VVBxjXw8RdlfTsgM6pRHU4LldluyObZYHyMi9LfK0f0hngePJjzeiH+hLNd0A9oSvNcdikA64az02tPM8TL+l1CJ7HCTpzArpYN1XnoCFy2Tp77fA7UjqkJGCCnAE/p8DPSqhfw35HhzU6n+kD2zJr9CR4s7m5sle38+wHHCjOvEeZ3VPmclh1ulCNumzdkQ7CMqoMQjrceMIXjVRZhz9KNRlUWzUZuhl+LBtaRh6DJLkop5Jzc2WvbufTJzp7Vw7XMyfdEaum6sA0kFMHbNvZweKloqZp5IkHRa2ImqQSrMckUpSB/6OfeKY4Fw6vecuUL/1SnZ09h+tJzAwkUhyrTi8mIRdUFScv4W0PPFi6i+bV7fjhkzGdPbttJWZuxxKHJp3dOqAijVj26QsdXyXsceHXMkXEJJ4r231nNxXEDjYsEMglELKcdZb/InksQa98gwPwfNjozAqy3Ig16dwjwxpMpMq+i+e9ff6pDhCb8uRnqk6FJDtAZeIAVXulcJiox96Of04Zik158jOSQUnChtWBEStXX7Vh8UWPhvXhK52dHYvOjEJCbO3iVLDAoYh1ra7WsGSPhuWjU4Ziha3mLDpdkgoCnxxruMVzXyWa9gbHt1yQ0PkkN55RhHK5gc2wsgP2vrFaw/K8Wd/PkIXwLEBHHBK3o3JSrAV7GF8MSzJlyh3MnNn2+svv2l9631DsOx1SjM6i08XxfABVZ7KpjIYXj8ViBfAf48JHYuKxglrKxeL0QEwtFeh5cNY6xzCxmDZZY+3vHx46XkxbduM7HRLUp9PhStiw2GtRij2xbD3uYAAGmx12wWl2cF2KfWUTK7V7sKt40MrhA6N7ls2R6qvQ6ELgWBth/c/+PbRQ7B/e/H5h2Rt84PAGvGBvT9zp+Ox3LNOaTkesYsMC5YMEAlZv5FAdKV6qs1QqBYfRQTYVerKuSvAA7MDecwROC53qkigIX1pjP3oxf/MOwzrBr1/d8fhPB0et6TGLGhY7EgtttjMRsArDATh/0DuAUR8M065YlNyg1+t1QKzLxdQ2ak4P8RXxhhkOD0xr5UbgzV4uyGh/ncKLwV3PTMX5zZKP8vtwPXQe59DhsvfoEwGnzDAgTe46OjuMCod/UB8VRj1znHanFGt0UJ++28pKahv83Bh2zOGqmKGKh2vSgV1Hlj2iIz/DeZZpWBdv5sXwyIur8vhP53MOHbFB3E5PVL+4ZBXaTacRFzmxjQyQ7Vjncy2EolNXRY4Rs9gA0UWmhkmxOibfg51YLobMjA788BXnWafQDf/6Q9iAQ68366GD0+WpuTIeNfiM1QJQ+7pTc5BTeYIRHlNkWUon+2TqCYCDbtTqkL89aZ5JWXwEZd8ADngr9o0a1tEpfudb8OLkDqOdQcfnXBniOZ5Dh7qdxnBiHouDZrXLVpCtcaV7kw5JhqCuIE+EvbjYuCdw2JF5SXyI4bBtkBYUGgfgbuw5jdcv5J3PARzoi/9QvLe/3Oj41/yidMxKdFoHg8v2yAiAAz2wZ8lcASoHGaoIxwYvM+FIuSfTLGiwFhs9Sidmvlu8gu8N7DWuDqHysXfUsG5eyTsfQjinb+c3d+QOfy/c6PhboyM67+jGiSndL+J2gK8YoFKCCqi40HBwMBafTL9zIOKT2GfQ/rzYGpCxVUw6Upw4/G5DHeEuyRkdN/XJf2DwOgVh6pDyOnJPCP2nY+aD0zqnxO3Aj8RW7U6HK3WR5bQKaKhc3QzpGCDpl1nahruv8GADp8aUTq99j/01tCJT9qlhHV3csadH4NAv4qasq5zid7JM3HJiyjp37pqOia3bUz2pMDQjkjnvJ5Z6CA5WC7WHR2ZN7YhPdGxZbMbxJ4s8RvHqYljgJwTn8Ihc/mdKsrwqt5xwf24Kp1rOoqt+VZ1d7Ke5QgX5ILNAhQUHNschUR0p1iZ36hWIk1PvTc8Ns2fTqVtVxN9TfI/TW6A+8MjhH8Lrr2syuBK3jBbLTZnPwr4WfqIDRwWBinV4vA6ZiTnoUmlbTMp2iEOhMY5TK4TOU4yGgIZZZxxcPw1NO7UM65aoGkyNkZuZa1ircMuIzpS5UOpKQchypIGcilcdtLMcx6lVuOhp0MbaFW+RX6rS4puGLJYtWYzhyo7OdatRKiAvbjOZk1ea3LBnSFX25xpWKLTwCu6F6aBKa8oqAxyJaCyy6IxwkjgsSOoILe2ptLBfkgpE4aylGqi6x9ZmtYekGMqhRFFUTTu16qcjGr3ZW/Pg4cs8w1qB48EJj/uiShqyYNfULjhiAzqjRn0Aq+yhypFRjwiICvXJ2E2hg9TtMFLDrE2wndpN5u8uuf4Vx/j5hrUC08J1qHs6KNbpQJ2GlW2TGqALbaoyHMWpRtAkzzazw7VoZtCgTSCogJ06miMzVcdmMm+UBS4aFjEsn1ao2OmY8+nuE+kidaV1V7cDP/1ud9hQLTYgyaO+inY7YFeLXK9aNwF1fQ/4KtTlcRrW4S25/o0cIVXoDMPyP2oROq5Bi6MQnG0dM71B/qgKXCrniPUx6mFoPLcVWdTtcFkQsODcM8kb7CZjZTtEUSzDOpoOJ3Tss1/GpYTrJhIuR72FY10BhyK46XhLIucwSrP8MsmRygMaIs12MB2uAKy204pLlupYdC7+3hEWoUnDovX5yS+XesLvOS1Mxy1o2ZLBtr3+zFYPaPk1cvQ0GDFbtUDQcyBtoiaKK48C7HS14J4C8i7WuH+dvZJc8I4Y1is1NeKlb89d6Pi2+stBJ9R0pUN1xxazJLXNdmiW2CrYVUdUiR9HdHDzonRNmzPsE7qey8EW6pOZA5Rw/CPu9tfb7h2h80LoTBrWrzfWjc6y65Un6eBVTm4LlqUCpTOgmQsDG+kDqlQ9e8tHRKkPoYMbidCuOl1ScVYhHRHBaZt1R4G0ee5M3TkBaTKlc0bMiLzf3TmB40rH58l00ll23W8tXtM/GYEQRwCurRjUpkmNJMLpF7ZrnQK6IYnZpwFbbXVJ4gR8ONIw8otc9v8canFzy9roYE2x3I7Z+IJN5jvXyH7sa/+U0HENWla+AxIeaBFiHALYbZdaVEM6VZAHchIYc6wFGxFtlfqYg2GWK4xAtnitjgidTquQReXVkLjn/6ex+s/RyfnvP+Dc+RtOBmm2c+agcwLOv7qqDvA8foYtskzFNWiRySxYDA7josiM4NRd5ynLNSwD6lRao2w8V2qhpPkpx1lNj0GlDffk9BoMyZVBNV6vwP0WpO7gx/+xiobXl1fooc73/5K/Cm6R7lOCd0eHF3Ceaxqc0L4PmwEsOmQdRtmltcyVrA5Gp16t1rvmrCZHk2V06qBbqVe6kA3UiHidgjOl04qJJZpXmjLCO+D4WvPi1Xn9KRj3b6I7F5N02Ne32zvw783UxzR436A1g07TbR+J2fKzjQpOhqK/+ujehodKA3oaalpYt4YFTopVbQfZwQjPCsJ13jQvNu/1B477N/E7OC/ef3MSfJkOx1fHvEc2Q7o6Hq50MAGhrcZIpLEzQOe7JXhOirftw4VwzAkbeqhXwusR4NYuOMdpu8cZyvGOJukcOQieXcx6wMexfynhHlnVraTdZm0kGwRoVY0cTo05mPY5PjILfLB5Th1Yf2kTDpoEJocqpMvIF8vwnU8sR0VmQs0GBssSOqELy89B1zODDbQt3+BYq+PcTSvW2CUdceCOVduG2UKjR/vBcBFByeo7qz3yK13iYOKtAW6TVkkKwDPmKq/DI3L12wnWiaM7bEFER/bPyTXs2cm8J8Ps+1aM0uVf0wrReKlrftL7VrZgX6HDxdSne+xvBkPVfk4yZ0nZXitHqncOdrpgk6xEkmue1/E7QzxAbm+oTpyfsqdvRxf2hTs35jud/ZqjOFCOfYpbpJAITTMt4EZyObXVKuVyMW5i1RZTyOVKjVZDBeckZ71VyJZAnLfvzeZiuRE4RCHyfNka+sXN0c2FbdgX4NXEKqb9w5PzGzuvWXLpT064Z9uK1J+y+xEMPBZjOO5rgwzkgOBU3OWcxMXhcWnyED3AOxe0709Yi6vxTF40C48/O7VsuyXya3zcvbDkM1Lmivc9+3Y6to1I8zb4+SiR2sofgfuxfEVhC1mh6ablu0SNVbPxJXDZnHJobY/IFcL6tCH5KcsHrj3nBsj+OnQnuq7v8AF4lty677xfXl75IweFyFoUx5TH5eB8TtzO96fqTQgfWe8XRSz1VIy9iY3XK35eJc8Xve4Q8SrP85+qN53Ol2carPArfgCbDXzx0/HDjAcyzobz/vVu/RV9nSHPaBv6UqyPK4+Zj9vNmsbyW6YDxCYE1ccLH/u2WZskUpm4r3x4ppjZ7JepXc584Kkbmp2ryUeFUMknM0WG94cQ8DYZY/NfCQ/57CyoQfCZup+zHj+YTxl+AAJotHEqGF/Yc/zxeWWOfDYaoGNXn5Ox/Is0dbmmSd4Bgd/UMuiZV4GRy8f3zyvrUdRfuCDru1rgqadIEml5DFRI4L/JCFwP7Gks6/2NW9QXQc/qvtrBj+km6oJ+hE81f18QjSmJcko2ajWtyC/ECFwjAGuqjeVUP3BfJkIFEHp4/wRCH/UO5P3h4xuP6rZJvp9OAkYZTRKg8ESookABx6UisCVDTqUDTMYmx8eXz1AuL4+PvX1PgCVKs6wDRkDG41qtlsloWhGKpmmZTKY2Ngw5mdLLzeAZ0xpFURL5Zr9fTqd1PQVF19PpdLnf/BHqspWtbGUrW9nKVrayla1sZStb2cpWtrKVrWxlK1vZyla2spWtbGUrW9nKVrayldnyX28Ub5XMQ1WvAAAAAElFTkSuQmCC;" vertex="1" parent="QThOkOYovAdt5dILF7DS-19">
          <mxGeometry x="18.142548596112313" y="6.5" width="107.88" height="67" as="geometry" />
        </mxCell>
        <mxCell id="QThOkOYovAdt5dILF7DS-33" value="" style="shape=image;verticalLabelPosition=bottom;labelBackgroundColor=default;verticalAlign=top;aspect=fixed;imageAspect=0;image=data:image/png,iVBORw0KGgoAAAANSUhEUgAAAgAAAAIACAYAAAD0eNT6AABA2ElEQVR42u2dB3hc5Zm2B7Dk3nuTZLlb7jaYmt6AkIQEkgAh4U92+TfY6t2y5LGKuy1XWmKckLax1XuxLclWtURN2CWb5U82bHpIQgmEYp//O2ONPBrNSN9ozswpc9/X9V4ssBAsWfPczznfOa/NBgAAAAAAAAAAAAAAAAAAAAAAAAAAAAAAAAAAAAAAAAAAAAAAAAAAAAAAAAAAAAAAAAAAAAAAAAAAAAAAAAAAAAAAAAAAAAAAAAAAAAAAAAAAAAAAAAAAAAAAAAAAAAAAAAAAAAAAAAAAAAAAAAAAAAAAAAAAAAAAAAAAAAAAAAAAAAAAAAAAAAAAAAAAAAAAAAAAAAAAAAAAAAAAAAAAAAAAAAAAAAAAAAAAAAAAAAAAAAAAAAAAAAAAAAAAAAAAAAAAAAAAAAAAAAAAAAAAAAAAAAAAAAAAAAAAAAAAAAAAAAAAAAAAAAAAAAAAAAAAAAAAAAAAAAAAAAAAAAAAACHDgp1tD37hey8og83nTz4vNZ+TnLue0nY+e2Lg8J0FAABAAAAAAMAXAdA6/LUWAE/hjwAAAAAYTACC0f4RAAAAAD8EwKztHwEAAACQEIDFu9sUT7NIchbukptoyVmws1VqogYZvrMAAADDEACtwx8BAAAACEEBCGb4IwAAAADDEACzt38EAAAAwAACEOzwRwAAAAB8FAArtH8EAAAAQGcB0CP8EQAAAIAACIDR2z8CAAAA4IMAWKX9RxYgAAAAAAgAAAAAeBYAK4U/AgAAAIAAAAAAgCcB0OvRv0CFPwIAAACggwBEIwAAAADWEAC9Hv0bTvgjAAAAAEEWACO0fwQAAABAAwEw+ot/3MMfAQAAAAiiABil/SMAAAAAfgqAGV77iwAAAADoJABGCn8EAAAAwA8BMGv7RwAAAACCIABGC38EAAAAYJgCYOb2jwAAAAAEWACMGP4IAAAAAAIAAAAAMgJg9vBHAAAAABAAAAAAGEoAzLTyFwEAAAAIsgBEIwAAAADWEACzrfz1NhEIAAAAgPYCYPT2jwAAAABICoAZV/56C38EAAAAQGMBMEP7RwAAAAAkBMDsr/11D38EAAAAQEMBMEv7RwAAAACGIKKg7WsIAAAAAAJg+vBHAAAAABAAAAAAGI4AmC38EQAAAAAEAAAAAHwVADOGPwIAAACAAAAAAEAgBMBo4Y8AAAAAyAhATrXiaaKz5WaB5ERtq5KaSMmJyPI+fGcBAAAMIADBDH8EAAAAYJgCYOb2jwAAAACYSAC0Cn8EAAAAYBgCYPb2jwAAAAAMQdSujqjIXa0PBHLm5Qd/+M4CAAAAAAAAAAAAAAAAAAAAAAAAAAAAAAAAAAAAAAAAAAAAAAAAAAAAAICBWLa/4xtf/eHPFG/zFcn58g9elJp7ZedpubnH0/zgxcuyv/6Fu9u//qXvv6A454uSc7fsfG/o+YLkfP7k81Lzue89L/3rV3cB3PXU84oW89kTcnPnieek5g7Juf27A4efbAAACwvAPRoLgB7hjwAgAAAAhhMAU7Z/kwmA5uFvcAEIRvgjAAAACIC0AFim/eskAEZq/wgAAIAfAmDa8LegAPgU/hYQAH/DHwEAAJAUgDUHOxX3WX1AblZJzsr9HVITIzkr9g0y+zt8EoBle9sVmVkqOUv2yM3i3W1Ss0hyFu7qnd1tPglAtPhnPM2Cna1SEyU5kQVyEyE58/MveB1+sgEAhiEApg7/EBWAvvA3uQBoEf4IAAAAAqCZAJim/WskAGZu/wgAAMAwBMD04Y8AWF4Ahgp/BAAAAAHQRABMFf4aCIDZ2z8CAAAQIAEwdPiLWY4AIAAAACAvAJZo/xoLgOnC308BsEL4IwAAADoKgG7hjwAgAAgAAIC8AFim/esgAIYKfz8EwCrhPw8BAAAwtgAEJPw1FIClCAACAABgZQGwVPs3qAAELfwDLABmCH8EAADAAgLgc/hrJACmbf/DFAArtX8EAABAQwEwTfs3oAAENfwNIAB6hz8CAABgcgEYVvhrIACmbv/DEACrtX8EAABAIwEwVfs3qQBoFv4mEYBAhj8CAAAQAgKwXGMBMH37D5AAmKn9IwAAABoIgOnav4UFQCr8TSAAgQ5/BAAAAAHwSQAs0f7VR/o0FgCztX8EAADATwEwZfgjAJYQAH/CHwEAAEAApAXAMuGvsQCYsf0jAAAAfgiAacMfAQgZAZiHAAAAIAD+CIBVwl9rATBr+0cAAAACLACGDP8QFoBoBAABAADwRwBWIQDmbf8aCYCZwx8BAAAwgAAEPfxDVACiEQAEAADAHwEwffvXUQAM0f41EACzhz8CAABgEgHQNPzFLNvXrqkAmKr9IwAIAACArwJgifavkwAYpv0HSQCMHP4IAACACQRA8/BX3+qnoQCYrv37KQBRCAAAQGgJgGXav4EFICjt30ACoFf4z81DAAAALCEAPoW/hgJgyvbvhwBYpf0jAAAAkgJgqfZvcgHwu/0bRAD0DH8EAAAghASgL/w1EgDTtv9hCoCV2j8CAAAgwZK9XV+3VPtHAEwjAIEKfwQAAAABGJYAmDr8hyEAVmv/CAAAgEYCYKrwRwAsJQDDCX8EAAAAAfBZAEy19EcDAZiXKycAZmr/CAAAgAYCYLrwt7gARCMAQ4Y/AmBuptg7J4zb1rKcrwQAAhA0AbBE+w+AAJit/SMA5uWWE63jbzn+zMUPPdbz7o3Hugs+Ym8awVcFwMACYKjwt7AAREvOgl0IAD/Z5iPK3jTqlqMXOz78WI/inFuP97y48UD7Or46AEEWAFO2/2EKgGXav8YCYMbwRwDMR4z9pfBbjz/T7Br+H3r0ytz2aM+7m4717ORqAIBJBSBo4W9RAZAOf/WtfggAAmAi1GC/7Xh3vWv4uwqAc2453v2zDYUd6/mKAQRYAEzb/gMoAKZo/xoKgFnDHwEwEXb7tbce764YKvz75rFnuBoAoKkA5Ncr7rMyr05qYiRmRa7cLN9RKzXLhprcWp8EYIm9RpGZxdvlZlGO3CzMqZaa6Gy5WXB1fBOAbVWKp4mUnIgsuZm/tVJq5knO3Ezvw0+2GVCuEa3+lHv4L9vboczOvaBsOnLRqwiIswHPbHq8czFfQwCNBUDL8A81AdA6/PUSADOHPwJgDm4+evFJ9/BXrwJOym5WJoqZlNOsXs1TzwB4kYCLb9xQ2HUfX0kAkwuAZuHvowAs2Nn2oMXaPwKAABie6w91PuIe/uqtQmf4u463qwGqGNz2WM/lm472HFKvJvBVBfBTAEzf/k0gAAFu/0ETAKOGPwJgbNYd6VwhDv297Rr+qw5cCX9PAtB3NWBv/6sBt7nMLcd6mm599MXJfHUBLCoAyyRn6Q5tBcBk7d9vAYhEACBgOO7797iG/5qDnYOGv+vM2nHlasBtbgJwm+OWQPcrGx/tXsrXGECSZYXPRS3Z3/mgnrNoT5vmI/vrj9rVEbVgt1iJG8SJ3NX6QKBH9tc/O78tcl5+6wOBmjkFrffrMfxkG5NNx7oTXMN/rQj/yTnN0gLgvBqwvPdqgIf566bjnR/lKw0AAGAQVu26MPm24z1/c4b/+kLfw1+dCduaHKM+Cnrzse6BEnC85x0OBwIAABiEG492H3WG/41HLypTt7f0hf9wBECdaeLfsfGwp1sC3R9cf7TnEb7qAAAAOrK88Pxs0cwdB//Eoh/HyX5/w9856j+vPkHgdhVA/ePlG452ZfHVBwAA0IlNh3uOO9v/0r0d/cLfXwFwziLxJsx+AtA7Nxztzuc7AAAAEGSid/dMFEH8lhr+m8Slf9f7/lqFv+u5APFIYD8BUEfcDtjJdwIAACCIbCzsynK2//liJ0Qg2r/rzLCfV2462j1AAoR85PLdAAAACBK3HOv+tRr+Gw51BTz8x2ddGfVw4KYjHiUgg+8IAABAgFm9t/0zzvY/J+9C0ARAnSniVsP16hMC/STgmUvXH37mYb4zAAAAAWTT4c4i5zP/wQx/50wW//zGQ/0lQLwx8P0bDnfdzXcHAAAgENibRt3ae/hPPZynhwCoo/5vbXCRACEAingd8VvrjzxzI9+kECfmQMdDD/z454o69//oZ1Jzn+z8cOj5quR8RXK+/IMXlS//8EXpd8GruwDuFf+M13labu6RnC99/wWp+aLk3O1pnn7Bp10Ad39P/DO98wWJ+fzJ56Xmcz7MXU9pOCef92kXwJ0nnlMGmzsk5/bvajuf+Y7cfPo7zw4Y2V//zNzW+z/15LOK63xS4/nEE89Izccl52OPDz1G+GxdV9j9oOPkv3h3v3v4TwpS+LtLgBr+zrnleM8f1x17NpIURAB0Cf9QE4CghL8fAvAFnQRA0/AX89mnEIDhCoAVwt8oAnDTke4yVQAWiufz9Wr/A24HHO7qLwHHun++4YmeMSQhAmBYAfAp/LUUADO2f4MIwOcsIgBmDH8EwAACYG8aIQL2DfWlPFNyWgIqADLhr844VQLEwcAbjvS/EiBeS1xOEoawAFiq/ZtcAPwO/2EKgGXa/wkEYLgCYJXw/6gBBGDl/s5Pqu1/1YEOQ7R/pwCoo+4gUHcRuErApiOdOaQhAmBaAegLf60EwKztHwEIugAYLfwRAP0FYOPh7iN6H/7zFP7OUV8WpG4SdJGA99cf7foYiRiCArBevKBiqFlXKDfqfmuZWSM5qw/IzSrXOdjpkwCsFIs03CdGclbsk5vlkrNM7PkeapYONfvafRKAxbvbFJlZJDnqPU+ZiZacBTtbpSbKObtafRKASPF2Nk8TITnzxYe8zMyTnLl5cjNnkPFFAGbnnlfUmbVj6JkpOWrAyMx0e4vUqC+2kZmpvaP7/f9jF58TJ+0D+trf4bR/11F/n7idB/j9uiPPTicVEYCQFgAjhz8CYE4BCGb4D0cAZMIfAZBjur1pnFjH+776WWK0y//uE72zzVUAFHFwsZ5URADMG/4IQEAEQOvwXxio8NdIAMzc/vUWAL3DX28BWLm3/bPq5f8It/f+Gy38naN+RjkFQB2xOCieZEQAQlIATB/+JhGAaAQgYOHvqwBYrf3rLQBrD3ft8XT636gCMGFbs+Nz3ikANx3rfmvt4c7FpCMCYL7wRwA0FwC92r+sAERpLABmb/9mEIBAhr/eArDpSNdZ91f/GjX8nTM5u8XxwiKnBIinBDpIRwQgpATAEuEvZsleYwtAQNu/xQVgjk4CYKb2r7cA3Hys549LdrebSgDGbm1yHAR1CoDjVsCRnjgSEgEwV/gjAJoKgNHbv9YCYIX2b3QBCHT46ykAM+1tMz4k7v/Pzr1gqvB3zpI9ba63Av5+/fGLs0jJEBUAU7b/YQqAZcJ/j7EFIODhjwA4mpyWAmC29q+nAKzc13bnrW6P/5lJAMZn9T8PsOlo97+TkgiA3wIQtPBHADQTAFO2fz8EwCrt3woC4E/46ykAawsvZm4Qn51mDH/nqF/Xm/tuBfRc2nC451aSMsQEwLTtP4ACYIrwN7AABCX8Q1wAnC/10UoAzNj+9RSAGw51fX/Z3g5TC4A60bta+64CCBnoISkRAHO0/2EIQAwCYJ32P0wBsFL7DxUBmGpAAbjxcFdb5M5WXVb+ahX+6qh/33krQL0asLGw6z7SMkQEwNTtX2cB0D38DSoAQQt/BEAzATBr+9dTAG462vWq+ms1c/t3jvrrcArAjccu/sJmU64hMRGAgAiAZuEfIAEwTfsPogAYsv0PQwCsFv4IgE4CYLdfK3YAvK/3yl8twt85S8Xnyc19VwG6v0liWlwATN/+TSAAAQ1/DQTA1O0fAdBEAMwc/noJwBx7a8T1h7ss0f6do/5v3yBeEMRVAARAdwFYJTkrD3RoKgCmav8IQEAEwEzhjwDoIwBLdrfeuupAh2FW/vob/mO2nnNMRH7r1asABzu/SmpaVAAs0f4tIgDDDn8/BcD04Y8A+C0AZg9/vQRg7cGu+9VL5lZp/04BGJt1TlEfbXRcBTjS3UVqIgCGFQDHW/00FADTtX8EQDcBMEr4IwD6CMC6wo4k9fefkQXA1/B3zpy881evAhzpvoHktJgAWKb9h5AAeAx/PwTAVCt/BxnxGJamAmC29h8MATBy+OsmAIcv7pq144Kl2r/rrC+8chXghsNdPyI5EQDLC4Ap27+BBCAaAdAl/P0RgJkIwLARBwC/M1WsADa7AHgKf9erAOq64KV7WseTnhYRAEuFPwIwLAEw3cpfb+FfoK0AmLH9G0UA9Ap/vQRgQ2Hnaau2f+c4zwJsOHTxEdITAbCsAJg2/A0iALq1fwsIgL/hP1wBsEr7nyIW8ejxWbr6YEetVdu/c9Tf66oAbDpysZX0DCEBME34IwA+C8Ais7/4xzX8NRQAs7Z/IwiAnu1fLwFYvrftvJXbvzrqv0t9L8CNx7ovbSjsmU2CIgCWEwBTh78BBEDX9h8iAjBY+A9HAKzU/vUSgCV72y5aXQDUWSg+C246Km4DFHYlkaAhIACmCn8EICACYPT2r7UAmLn9m0UAAtX+9RIAsUHvBauHvzrqi45UAdh09GITCYoAWEoATB/+OguA7uEfAgIwVPj7KgBWa/96CUBUQevLoSAAozPPKavF57h4GuCdKHvTKFIUATBO+CMAmguAqdq/BgJg9vZvJQGYaiIBEL8n/jsUwl8d9fe1ehVg/aFnPkuKWlgATNf+gyAAhg5/MYv36CMAhgh/BMAnAZhmb7nfau1fLwEQz8n/OlQEQP133ygE4PrDF3+ibgnceKSr4IbD3U+LA4J14tZA96YjXb8QTwq8Kv74x01Huv8sXiH8J/HnvxfzKzE/F/9/HRsPd1dtPHzxqQ2HL+auLez6l7WFHR9Zsr9nGqlsUQEISvj7IQCWaP8aC4Dp2r+fAmCF8EcA9BGA2TtafmXGlb++hr9z1M9a9SrAwLkoNTd6GSEIr2081N258XDXd9cdufjtNQfa16mrlknrIAuAKdu/QQRAt/BX3+qngwAYJvwRAM0FwGzhr5cAzLR7FgCrtX/32wBaC4CbDPRO15viasN5kUu7Vx9o//iGJ3rCSG8LCoDf4T9MAbBM+0cAhi0AVgl/9VQ/AhB8pm9vecWsK399DX911P/mQIZ/fwHoP+IWwlsbCzsb1x3qTF5b+FwUSa6xAJi2/ZtIAAIS/hoKgCnDHwHQVACMHv5GEgDx3/KLUGn/zlH3yOghAP1k4OjFy2IPw0vq1YF1B7rWkOoWF4BBw38YAmCp9o8ABFQAzBD+oSQAnsJfLwGYlNP0MzOv/PU1/NURnzWOw4DiMJ/js3nZ3g7xGdTu+HmP2tnW7+dS/XPxeSP+Xqv4vGoTn5XtjscJVYnYNMzw770a0G+EDLwsDhXmL+PKwPAEwNTt32IC4HP4ayQAhl/5W6CtAFip/WslAGZt/3oJwMRtLc+EUvtXx/nvUf/vUZIzMsPzqP/tU8Q2RfX3sfgZdnyuqblwg48CcHW6L11/pKt9zcGOfxNnBsaQ9gjAsAXANO0/yAIQjQAYLvxDRQC8hb9uVwC2NbdZZemPTPi7jr/h7z7hGWf7ZmTmWfH1bHL8Hlc/S1a5SMENkiMOEL6+vrDzxMp9natJ/UEEwPThH4IC0C/8NRAAU6z81VAArNb+gykARmz/ul0ByG5uCKX2HywB8DTqv0v9Ps8TPx/q56S6pniQ8O834nZF2+qD3V/l0UIEQEoATNX+gygAhmz/JhGAQIa/FgJg5vav3y2A5lLaf+DD3zlh6VdH/XN1R4H6c7pCZMD1gwhAnwgc6f716oNdqav3vTAWAbBK+KvP9IeQAAwIfz8FwDQrfzUSgNn5rQ9Yrf0HSwCM2v51vAXwNO1fHwFwH/Xfo/6eUj+n1h7s8ioBV6b7r2sPX9y5ateFyQgAAmDu9h8kATBs+zeBAAQ6/P0VALO3f90EILvlqFUEwMzh7zojemfCNvXqQKuyan+nFwlQJaHrjTUHL+6POdg+JeQEwDLhjwAMWwBM+dpfDxOhsQCYrf0bSQD0aP/6CUBTHu3fmALgOmPF10s9O9BfBrpc5uLr6hWBpXtaxyMAISwApgz/IAiAodu/RQTAn/D3RwCs0P71EoDx2c1JoSQAZgx/91G/durP7uoDHW4S0KVsPHTxz+oZAUu/dtgXATBF+CMAwxIAy7R/jQXAjO3fbAIw1SICMCG75eu0f3MJgDrXpV0Z9Xujfs6sK+x0F4FXVu/vvMeyAmCp9q+RAJg2/AMsAIZv/yEkAN7Cf7gCYJX2P1kvAdjafDsCYM7wdx31r0/d3qwsFW8rvCoB4pzcoc6mlYUdyxEAI4c/AuCzAFil/WstAGZt/wiAPgIwJuPcBsLf/ALgOqMzr9wiWCOySJWADYVd764q7NgdY38p3BICsGx/xzfWFjQoQ82agnqpWZ0vN6skZ2VendTEuE5+nW8CkFunuM/yHbVDzjLJWWqXmyX2GqlZvH2Isdf4JgA51YrMRGfLzQLJidpWJTWRkhOR1Te+CcDWSsXTzJOcuZlyMyezQmpmZ8jNrHTv45MApJcrM9LkZrrkTEstk5qpkjMlRW4mJ5c6Ro/P0tFZZ+ciAL4LgFHD3znXpp1Rrks/4xDLJaJgOUTgcNcvVh1s/zACMAwBCGj4ayAAMuGPAFhbAMwc/giAPgJgszeNEI+bXbLSyt9Qbv+uAuA6o8XXKkJcFVhXePHS+kMXn4w53jTO0gJgqvZvMAEIevj7KAARBW1fs1j4IwA+CoDRw19WAJzhr5sAqOcAtjX9gfavvQAYJfxdJ0z8d6m328Qt6FdXHez8PAKgoQAMO/z9FADTt38EwG8BMHv4W00AfG3/OgvAs1Zb+Uv7H3yctwfEmaZ/X72vbYalBMB07d+EAqBp+ItZlKOPABgk/BGAAAiA0du/gQSglvavjwDoEf7OuSZVzJZiZUxc8Z/Hxpd83TwCUPhc1PID7V8P1izZ3/lgMEb21x+1qyPK+c8s2tOmyyzY3fY1rceXX3/krtYHgjnz8gM/8gLQFjmnoPX+QM3M/Av36TGyv/7J9taIaTua79NqJtvPf1WPmZjT8hXX0U0AsprKaP+h0/77wj+hSrnmkVPOqbEBAEBoMTm7pZn2H2LtP6VRhP7p3vA//U9bXNFifhIAAEIIRVHCxHsNXmXlb4i1/7jyvvZ/7SOn9/CTAAAQYjx06j9XzdjRQvs3qAAEpP0n11299L/59Ku2hyvH8JMAABBifOzJZ3fPyTvPyt9Qav9bSvoEwBZbdB8/BQAAIca9p9pHf/h49x/mF1yg/ZtYAHxq//0P/p3npwAAIAS58Wj3wdse7XG8N56VvyHQ/pPrXQ/+vW/bUraKnwIAgBBj4+HOz9/2aPcHqgA4zwDQ/i0uAC6X/q/dXHSMnwIAgBBjQ2H7F0Tw/0MN/1uP9ygTs1n5a/nwj69wvfT/J9vDpybykwAAECLccqJ1/E3HLh679dGeS2r4q6OuL6f9W1wAkmtdw1+xPXL6//LTAABgaZRr1h1tnaNe7r/pWPcJccn/787gd47zCQAEwKLhn9qgXLulyPWxvzb194XH3y5f+/HPFfd5QHLu/9HPpOY+2fmh3HxVcr4iOV/+wYtDzr2y87Tc3CM5X/r+C1LzRcm5W3a+JzdfkJzPn3xeaj4nOXc9pe189oTc3HniOam5Q3Ju/66285nvyM2nv/PskPOpJ+XmkxrPJ554Rmo+Ljkfe1xuPio7j8nNRx7rkZoPS86HHpWb2waZtQc7Of1vaQFoVK6NLRb3+/va/zu2LUXLvPricAUglMIfATBW+OslAKEU/giA9QTg5mPdytTtzT4JAJf/TSYAcaWu4a/YNhclDXrBiPZP+NP+EYDhCgDhb47wv0WE/8wd52n/GgiAYcM/ocIR/i4C0DDkHSPaPwJA+9dOAGj/CIDRBGDj4YvKdHsLW/+s3P4Tq9zD/7e2fyuZ4ZMA0P79EADaP+0fAbB2+D9urvDfcKhLidzZqrD1z+Jb/5Kq+8K/VwDes3379G1SZ0Y3Hu5SnKP+hpGZ9RKzrlBu1EMpMrNGclYfkJtVkrNyf4fUxEjOin1ys1xylu1tl5qlkrNkj9ws3t025CySnIW75CdachaIDz6ZiZKcyAK5iZCY+eItbDIzT3Lm5snNHMmZnXteambtkJuZkjPDLjdqm5UZsfFOaqZKzpScZqmZLDmTsuVmouS4B723Yeufhdp/Uo17+ItH/k5tkX5oJBDhjwAQ/oEQACuEf6gJgFXCX2sBCKXwRwCCE/6OeeT04z49NaqnAND+EQDaP+2f9o8A0P59FAC3y/697b9BbHu6zmcBoP0bRwBo/7T/UBOAUGv/sgJA+0cAPB/4Gxj+124+/Zy49D/O5/dGGV0AaP8IQKgJAO2f9o8AEP4eBSChcmD4byn6L6kT/x6XRBzqpP2bTAAIf9p/qAlAqLX/SYQ/AuAuAC7P+V8N/1P/I5b8RAx/S5QFBID2jwCEmgDQ/mn/tP9QCf/Gvjf8uYX/q7bY0oV+ronspP1bUACsEv4LCX8EQFIAaP+0f8sJgLrYp/fd/v3np7/xO/xV1hd2XgoFAaD90/5DTQBo/7T/UBMAS4W/WOmrbvXzcODvl35d9u9/BaDjA9p/aAqAVdq/rADQ/hGAqSEmALR/kwqAp8N+Vy77P2+L//FMzbZHrz/Y8S4CQPun/YemAND+af+s/DVQ+Kee8Xy/X8x1m4vP2tLKx9u0RJwB+AfhT/u3evtfQPgjAAgA7d/IApBcp1y3pdhb+J+02ZtG2LRmw8H21xEA2j/tHwEg/Gn/CIAe4X9GuS6+QoT8aU/h/4Ft80/TbYFC3AL4M+0fAaD9ywsA7R8BCDUBoP0HSAAcrb/EEf4eBOCvtkdKPmMLJOsPtv8OAegk/Gn/tH+W/kgLAO0fAfAr/FOvtn6P4a8e9tPiMb8hBeBA2/+w8pf2z8pflv7Q/mn/rPwNQvtPrHHc63cNf1cBuG5L0ZO2h06OsgWDdQfafkn7Z+Uv7Z/2T/tn5S/tP4Arf5PrletiSwcEv0v4/9W25fS9tmCybn/bi6z8pf2z8pf2T/un/bPyNwDtP7VRXO4v9xj8fbOlqNEWWzzPFmzW7r/QRftn5S/tn/bPyl9W/tL+NRQA9XS/eKHPoMG/+fSbts1F37bpxdp9LS2s/KX9IwCs/KX90/5Z+qNB+IvgH5GoBn/R4OEfe7rWtrk40qYna/ddqKH9s/KX8Kf9s/KXpT+0fz8EQGztU4N/hHh//4gtg7b+34pDgF+xGYG1e5pPs/KX9o8AsPKX9k/7p/0PI/xT65URCRWO0HeOl+B/T8jBQdsjp8bZjMKa3c1P0f5Z+cvKX9o/K39p/7R/HwRAbOsbEV/WL/i9CsCWolIR/ItsRmP1znOHWflL+6f9s/KX9k/7Z+XvEOHvvMwfW+wx+N3Df0RsUZsI/lttRiUmvzGP9s/SH1b+0v5Z+cvKX9q/hxGH+sKSa7y2fU8CIP7Yc11c2R02o7Miry6ZpT+0f9o/K39p/7R/Vv46Rw39WiUsoVwJ6z3UJzdFndfFFt1lMwsrCmq+ub6wk/ZP+2flL+0fAWDlb+i2/96mHyaavhr6YSLQnTNE8F8esflU7YhHfvpRm9lYtqP+LrEQiPZP+6f9s/KX8Kf9h9bK35R6JSyxSgmLK+0X+JLh/2ZY7OnHbfHlS21mZXl+443rD7TT/ln5y9If2j8CwMpfC4f/GSVcPLIXnlythPde2vcW+oMKwOaiF67dXBRnSysfbzM7MbtbI9bvv4AA0P5p/wgAS39o/9YRgLQGJTylRglPqlLCxWX9cHFyPzy2qG98Cv/Y068JYXgiLL5ok81KxNhfCl+/7zzhjwDQ/ln6Q/tHAMwZ/uLQ3khx/z5cPKLnKezdRyb8xbwl7u2XiGf4v2R7uCfMZlXW7Wt5EwFg5S/tn/ZP+2flrykFQIT+yLiiQUNfSgBii/4WHlfy0+viir5se7hyjC0UWLen+Tes/KX9s/KX9k/7p/2bbuWveFzPj/C/HLa56D/C4ooOjvh28Sds9566zhZqrNnV9Cztn5W/tH/aPyt/WflrqvYvTvKPjCvxVQD+n5gfiOf1v2nbUj7HFuqs3tlYx8pf2j8CwMpf2j/t31RLf8Q9/8HDv/jt8LjizpGxxUfDE0rvs/3bqbk2cBOA/Ian1x/qpP2z8pfwp/2z8pf2b472L075q+F/VQCKfyeC/tzIuOIjYfHF3wpLOLU2JC/p+/42wPqd7i8DYuUv7R8BYOUv7Z/2b9j2H1/aF/7iHn48ST7sfQD1sesPtNH+WfnLyl/aPyt/Wflr/PYvHvnra/9xRc/Z7PZrSfJhvw645q71+y6w8pf2T/tn5S/tn/Zv7JW/joN/xc72fykstvhGUtyf1wEX1K9cv6+F9k/7Z+Uv7Z+Vv6z8NXb7T6xwufdfcoIE1+JtgHubL9H+af+0f1b+0v5p/4YVgNSrB//EVYA/2751agoJrsXLgHaf+xPtn5W/rPyl/SMArPw1Zvs/23fwT52wuOKHSW6tXgZU0PgcK39p/7R/Vv4S/rR/QwqAy8G/UXHFHTabcg3JrRGrChrK1x3soP2z8peVv7R/BICVv8YKf3XZT+/BP/HH9x3P+IOG5wDyzhxaJx4FZOUv7Z/2T/tn5S/t31ACkFDucu+/5BiJrfW7AHLr49aJtcC0f1b+0v5p/7R/Vv4a59J/revBv9/Z0srHk9haPwq4o/6TYisgAkD7p/2z8pelP7R/YwhAWqPLpX/x2F986ddI6wCw0F4/Y93us4Q/AsDKX9o/7R8BMEb7jy+72v5jTzeT1IF8FHDnmdcRAFb+0v4RANo/S390F4CkapdL/0XvhceWrSClA8jq/PoXvT0JQPgjAAgA7Z/2jwAE59K/6wt/1Mf+SnaR0AFmZW5d0br9rbR/Vv4S/rR/Vv7S/nUSgP4v/BErfp+32ZtGkNCBPgiYV5O7bm8LK39p/wgAK39p/7R/fVb+JlW5tv93whMrYkjnILDUXn+PeCUw7Z+lP6z8pf2z8peVv8Fv/6n1/S79j4wtSiWZg3UFIP9s5LpdZ1j6Q/un/bPyl/ZP+w/uyl/Hmt8St1P/vO43qKzd2fiG8yAg7Z/2z8pf2j8rf1n5G5T277Lmd2R88d9GbS6OJJGD/SRAQUO38yAg7Z/2T/tn5S/tn/YfcAFIqet36T8sseQbpLEOrMpvOLlubzPtn5W/rPyl/SMArPwNfPg7Fv24XPqPO11CEuv2SuC6ePUgICt/af+0f5b+EP60/4ALQL9FP+Jd/5tLppLEuj0J0LBxbUED7Z+Vv7R/2j8CwMrfwIZ//7f9XR6ZVHkHKawndvu1QgDeXitWA7Pyl/ZP+6f9s/KX9h8QAXB/5G9L0ZMEsCEOAtY/s3bvBdo/K39Z+Uv7p/2z8lf78Hfc9y92fdvfL20PV44hfY3wSuD8+hNr9zSx8pf2T/tn5S8rf2n/GguA26t+44rfH5Fw6iaS1yjnAPJqvyXeB0D7Z+UvK39p/7R/2r+27d/1eX8x4bElBaSugViUd3ah4yDggXZW/tL+af+s/KX90/61EYDkWrdX/Yq3/YlzZ6SuwVhT0PgHT+cAaP8IACt/af+0f1b++hz+qf1X/Irn/f/XFntqOmlrxBcC5dbVeDoHgAAQ/rR/BICVv7R/nwTA/T3/8UXvct/fyC8EyqvP8nQOgPBHABAA2j/tHwHwqf33e9mPeNVvfPEjpKyBWZxbv+nKOYA22j/hz8pfBICVv4T/8AQgqapf+I+KK3qahDU8yjVr8utfX7u3hfaPAND+WflL+0cAfF/567bkRzzv/7ztoZOjyFcznAPIr29Y27sXgPbPyl9W/tL+WfnLyl/p9p/e2O9lP6Pii14blVgcTbKa6RxA714AVv7S/mn/rPyl/dP+5QTgrAh815f9FF0amVBxO6lqIpbk1q1RBWDNvgu0f1b+svSH9k/7Z+WvXPtP7H/oLzy+aAeJatL3AazZ3cTKX9o/7Z/2T/un/Q8d/kmV6kE/11f9VqtnykhTExKTV3t6jXgckPbPyl/aP+0fAWDl76CTXOUW/kWv2B4+NZEkNSnqXoA1BfXiNkAbK39p/7R/Vv6y8pf273lSah3hf1UAiv8RllSyhhQ1Mct2npkqBOCDNXuaaf+s/GXlL+2f9s/Sn4GTVu8W/uJlPwmlD5KgFmBlXn3PYLcBWPlL+6f9s/KX9h+i7T+9QQR/sZsAlBwkOa1yFSC3rsDbbQDaPyt/WflL+6f9h2j7zzgjHvcrcW//RRz6sxCLCxrWOgTAw20AVv7S/mn/rPxl5W8Itv+MK8/6O8PfIQCxRa222CMjSU2LsTq/4VfutwFo/wgAK39p/7T/UFz5K8I/ocwt/Iv/05ZQOom0tCArdtQ/7n4bgPZP+NP+WfnLyt8QbP9JFf3CX8zvR205tYCktCiLcms+7BCA3pcC0f4RAFb+0v5p/yG48rf3Wf++iS95IyyheD0paXFW5dX+fo36auCDHaz8ZekP7R8BYOVvqLX/lBr35v8e7/gPEWJy659QrwKs3nue9k/7RwBo/7T/UBKA1Dr38Fcf/3uYZAyVpwHs9R9yCMCuswgAK38Jf9o/S39CJfzT+j/rr054bHEeqRhytwEa/md1vpCAA+2EP+0fAaD90/6tLgDpA8Nf3Pf/PmkYgiyz1x50CMDuZgSAlb+EPwJA+7fyyl81/F1e9OOY2OJG272nriMNQ/E2QF7VcocAFDSy8pf2jwCw8pf2b9X2n944IPxHxxe/YHvk1DiSMJQPA+Y1POuQgL0XaP+s/GXlL+0fAbDayl8P4T8qvug3Y9LK55CAIc4Se3WSQwC8HAZk5S/tn/bPyl+W/pi0/Tve71/qftr/L+GJFTGkH9iidzdOXJVf/45DAva30f5Z+cvKX9o/7d8K7d9D+I9OKPl7WOypG0g+uHobIL+uyNNhQFb+0v5p/6z8pf2bsP17bv5vi/koiQf9WGSv/YhDAPIbRPB30P5Z+cvKX9o/7d+sK389hX980bsjkyrvIO3AI6vyG37hkIA9LbR/2j/tn5W/rPw1Y/sX4T/abbOf+orf8ISSL5Jy4JWlO2pTnY8ErhJXAWj/tH9W/tL+af8mWvnrMfyL3w+PL/sKCQdD3AaombCqoP4NVQJW7TnPyl/aP+2flb+s/DVL+xeP+o1OKFWf7e8f/gnlD5BuIMWK3LoTq1QBcFwFoP0jAKz8pf3T/g0vAOINfwPDv+iDsITSB0k1kEZ9M6AQgEsOCRAvBmLlLyt/af+0f1b+Gjz8xUt+1PB3EQDCH4b5SGBufcNQVwFo/7R/2j/tn/avswCk9Q//KwLAZX/wg4X2+o85BGCQqwCs/KX90/5Z+cvKXx3DP7XOQ/iL0/6JJV8lxcC/swB59c94uwpA+6f9s/KX9k/711EAUmv7Bb9jEorfDY8v/RLpBf6fBcipvs/bVQBW/rLyl/bPyl9W/uoU/ik1A8M/vvidkfEVnyW5QLuzAOLFQO5XAWj/tH9W/tL+af86CUBKlafwf3NUXOnHSSzQ9irAjrr/03cVoPe9AAgAK39p/wgA7V+H8E+u9BD+JX8bnVxyK2kFAUC5ZmVu/StXrgI0ON4OSPjT/hEAwp/2H0wBOKuMTqrw1Pz/GJZUsoacgoCxKLf+m86rACt3NSMArPwl/BEABCBY4a++2jexbGD4xxX/amRc0WISCgJ+FcB5FmBlnph97YQ/7R8BYOUv4R9oAXC82ndg+I+JL3ppTFr5HLIJgnMWwF59/8q8OsUxO88iALR/Vv7S/hGAQK78Tasf8Iz/lSltsz18aiKpBEFlRW7Ds30SsLeVlb+0f9o/K39Z+RuI9u94wU+xpwN/lbaHTo4ijSD4VwFyqj/ZJwDisUDaPyt/WflL+6f9aywAKdUew39MfPF3bXb7tSQR6Mby3LqGPgnY3cLKX9o/7Z/2z8pfTcL/rDJGnPQfMzD8L49KKN1O+oDuLCyoXynC//0rEtD/QCDtHwGg/dP+af/DEIDMM8oYcdJ/zJWm3+/VvqMSS75B8oBhWJZb+4SnA4Gs/CX8af+s/GXlr4/hL076j0koHRj+cSV/HZVQ8jESBwxFlL1pUkxe3V/6JEC8IZD2jwCw8pf2T/v3UQDEYT9n8LsJwCvhCSXLSRsw5oHA7Nq4PgHIb1BixK0AVv6y8pf2z8pfVv7KhL+4359c5Tn8E0rax6WUzCBlwMAo16jrglUBiFFn5znaP+2flb+0f9r/UALguN9fPiD8rwhA0Y9tD/eEkS9geKKzK64XAvBBjFMCdp9n5S8rf2n/rPyl/XsLf7f7/S5zaVR86TZSBUzFUnvt430CkOf9VgDtn/bPyl/af0i3/9Raj61/bELJG6MTi+8mTcB0zEypH7tiR+2rfRJQcIaVv6z8pf0jAKz87Qt/9X5/pcfwH5MgDvsllq0iScC8twJyqu6Mya+7fPVWQAvtn/bPyl/Cn/afoV7yL/Nyv7/47PjNJVNJEDA9y+x1P7p6K6BeidnbRvtn5S/tHwEI3ZW/jkf8Srxd9j/Aa33BOlcBdjdOXJ5b/799EpDfKMK/nfZP+2flLyt/Q6z9n1PGpni55B9f/Obo5KL7SAywHItyqj4twv9SjMujgaz8ZekP7Z/2HzICIC75j030fMl/bHzJf4UnVsSQFGBZltrrHnMKwIpcMbtaaP+0f9o/K3+tH/5pteqlfTEemn/c6RLbI6fGkRBgaWLsL4WL4P+PPgHIrVdW7L2AAND+af+0f2sKQKa45J9c4Qh+57iE/3ujE8pSSAYIGRbYa1fH5Na+fUUAxOSpEtBO+6f9IwCs/LVW+Gc0iEv+pV7Cv+jV0UmnbyYRIPTOA+yo29wnAOqIQ4Er9rUjAAgA7Z/2bwEBEK0/tbpf8LsJQDWP+EGInweoPdVPAgrOsvKX8EcAaP/mDn/1oF9SmefwTyh+d3RcaRqf/hDyzLFXjlmWW/dyPwnY2UT7RwBY+Uv7N6cApNZ4DH51xiWWvCKW+Wzikx/AeSsgty5meW7d6/0kYHcLK39Z+Uv7Z+WvTwKga/hnnBGtv9xr+I+NL/4Rp/wBPB4KrLlHBP8lVwlYvvsC7Z/2z8pf2r/x27/L430Dp+T1UcklD/ApDzDYlQB77c5+ArBDzJ5W2j8rf2n/rPw15srfzMFbvzjl3zZqy6kFfLoDyBwK3FFXdiX8a6+MeEfAcrEzgPZP+2flL+3fUO1f3Osfl1DqOfwTi98dFV+81WZTruFTHUCSKPvJUaL5P9cnAA4JaPAqAVoKQKi1f1b+IgAIwDDCP7NRGSda/zivl/xLfzY2tXQtn+YAw5KA6lnLdtS92k8C8lQJaKf90/5Z+Uv469T+z4nWX+0Ifue4hf8Hovnvtz3cE8anOIAfLCyoXymuBPxtMAlg5S/tn/aPAARFAMTb/MYllnsP//iSl0cnFN/CJzeAZlcCaj+yLLf+bU8SQPun/dP+Wfkb8PDfelYZJ9b2uga/mwB8IML/oO2hk6P4xAbQmAU5tfeK4H/fXQKW7Wlj5a9BBID2T/u3pACIR/vUQ36ewt8hAPElL/Eef4DAS8C3lufWXnIKwDJ1coeWANo/7Z+Vv6z89Tn8M64e8vM4SSXvjokvKeBeP0CQiN5WnSgk4HKfAEhIACt/WflL+6f9ywuA98v9Vy/7l3aOTSxbxScyQLAlILs6Y5mrADgkoF5ZJt4YSPun/bPyl/Y/vPA/p4xPrxv0cv+4xNLXRyeUJvBcP4COLNxRnzVAAsQbA90lAAFg5S/tn/Y/pABk1CvjxeX+8Yklg4R/2ekxaeVz+PQFMMqVAHE7YIAI7Gom/Gn/rPxl5e/Q4b+1URkvLverwe89/Ev/e0xK+Z184gIYTQKyqpNE6F8aIAEFTQgAK39p/7R/LwJwVhkvXubjDH6PApBU8s6Y+NI8W+yRkXzSAhiUBTl1/7p0R+0HrgKw1C4m/4wI+DZW/tL+WfnLyt+r9/nTakTYlw4a/uOTSqtHxpYu5NMVwARE5dR8Zam97p1+AqCOeEJgqdgkSPtn5S/tP5Tb/5UDfuOTygYEfz8BSCz75ZjEsrv4RAUw2+2AnNqPiy2Cf+8Lf+eIw4FLd11g5S/tn/Yfiit/M+r6Dvh5DX9xul+8zS/TZm8awScpgFmvBNir1y6x1/xugASo43YugPZP+6f9W7j9i/f2j08ePPjFrYD3xyeUnBgbXz6TT08ACzDXXjNvsb325x4loPdcAO2f9h9qAhAy7V+s6Z2QXKFMSCoZKvzPjk2qXMMnJoDFmG4/NW7x9tp6jxKwo15Zsus87T/EBYD2b7Hwdwn+QcM/qeTnYxPLP8OnJIClUa4R5wIOiicELrtLwBJ1xC0BVv7S/hEAkwuAW/B7E4BxCcWvjkko+xfe4gcQSucCsqsfEucC3r4a/jVXJ7dRWbK7lfaPABD+Zgt/cY/fU/B7CP+/jE0syeB5foAQJSK3aoNo/b8eIACOqVOW7Gxh5S/hjwCYQQDEa3sniMN9noLfTQDeGJdYUjDFXjOBT0CAUL8SYG+atGh7be1AAeidPPVqQBvtHwFg5a/hwl8Ef/rQwa+OeKTvH2IOjU+unManHgD0Y0FOTZa4GvCeZxFQrwY00/5Z+Uv7N4IAiMY/Mb1WmSgR/OJU/9sTEkuPs7AHAAYlMqvsZvGUwK88ScDi7WLEGwQXi7MBtH/aPyt/dVj5K97VPzG9Rpko3tw3Mal08PBPLnvHEfwJxbP5ZAMAKRaJe4MLs6t/6lEAHFOrLM5v8ksAQq39s/KX9u+XAIjtfBNTKx2h7zoegz+x+C0R/IcIfgAYNlE5tfct2V7zWv/wdxnx3oDF4pAg7Z/2T/sPxMpfcZlfHOybmFI+IPg9hn9i6d/GJpbt4h4/AGhzS2Br3eyF2TXVHgVg+8DbAggA7Z/272f7d7vM722uhn/p78SK3qxpaeXj+cQCgABcDaj6xuKcmr94F4FaZVHeWWXRrlbCn/avmQCEVPvPbFAmpVUNGvr9wj+h9OVxCaXftj3cE8YnFAAElFmZNdPVswGL7TWXPUnAohwxqgjknxNB34oABEAAaP8Wa/+i7U8Sp/knicv8k5JLJcO/9Pz4uLK7eXMfAOhwW6D8ThH2rwwIf9fZXidEoCngh/9o/wiA+dp/k2j79Y62r4a+63gN/uTSdycml/xkTGrxej6BAEBXYuwvhS+w1+Qv2l7zD48C4EUEaP+s/A3Z9r/1jGj7NSLoywYEv9fwTy7944SkinxO9AOA4YjIqIqOzq4uFWF/2asE9IrAwrwmEe6trPyl/YfOyt9tzkv8FR5D36sAJJd1Tkgq+zr39wHA8MzLrvmwEIHnB5OAhTnVykJxRmBh3rlBRYD2z8pfU7d/cYl/srjEP1k8tz9U6LuF/5tiToxJKlrHJwoAmO+KQFbVN8Rjg7/xGP6uo4pA7hkR+BdY+Uv7N78AOEK/QZks7utPFoHuHDkBKHtuXGL5Fh7jAwDTs+GJnrCIrJo08cTAn7wKgOvsaFQWihcK0f5Z+Wuq8PcS+lLhn1L690lJJScmZlRt4BMDACzHHHvlmKicSru4NfDaoALgHHu9Ei3OCUSL2wOs/KX9G1IAnJf3vYT+EALwgZizE5IrHrQ9dHIUnxAAYHmm20+Ni9hWaVevCAwmAEIUeqdGiRa3B6ILWmj/tH/9H/0TB/mmZNYpU9Iqhgx9T+E/MbH0ZbGYJ2d0bPE8Pg0AICSZl3hqdMTWqvSFOVW/HVwAXEY8PRAtDg1G72yl/dP+g9f+xfKdKRk1ypTUCmVKSlnfSAuAeD2vmKNc4gcAcOXeU9fN31r1TdH0fz5o+LuPuEWwQMgA7d8YAmCp9q+2/K31ypT0qn6B7z6DBn9K2V8mJZc8NTGl+BO8pQ8AYAiECHx6QXZNnQj4D2QkYIFjapQF9gYhA02GEgDav4kEIKdJmZrVoEz10PJ9C/+y1yYnl/9wQmrZHarY8hMNAOCrCGyrWRi5reqICPfXBg9/9xEysL33ykAB7Z+Vv17Cvy/wa5Wp4vn8qallfSMT/q4CIB7b+4N6gl8c5rud0AcA0Igo+8lR87ZVfSsqq7pDhP7loQXAbXLqlKgdZ5Wo/POs/A3l9p99Tpm61XPgDy/8y/5T3NMvHJ9afguX9wEAAkyEvWZFVFZNoQj23y2QFICobVVXR1wdiBK3CqJym5Soggu0f6uu/BWH9qZln1GmiXv40zKqRbBXeA18aQFILXtXhH7TxJTy1AmplYv5aQQA0AXlmnmZtXdEbqs8HbWt+i1pAXCfnFpxdaDRIQSRImRZ+WvG9q+G/VllmricPy2zRpmWXqlME0HuOn6E/2+mJJWdFO/hv4e38gEAGAz15UJzs6ofjMyqqhKB/7Z0+LtMpHOya5XI7Q1KZO45JTKvhfZvtPa/vUmZLsJ+ujPs0waG/XDD3yEAqWV/n5JSXjMppTxpfHLlMn66AABMgvqCIYcMbKsuFQLwhs8CMGCqlUhxhiDS3iikoEmJEFJA+w9C+xetfrq4Zz89q1GZvrVOmS4u408XzX56WnnfDBX8UgKQUvbW1JSKJvEa3tzJ6SW32uz2a/kpAgAwOTH2l8LnZFXeJa4MnBC3CX7je/j3H7HUqHeqlQhxpSBie6MSYT+rROQ2KxEiqGn/PgqAuHw/Y/s5ZUZ2ozIjq16ZsbVWmaEGvXi7nmvQexo/wl80/NJ6EfjbJ6WXf8hmbxrBTwoAgMWZlV0XMzeramvk1spmIQRvD18AvM0VMZif06DMF3IwXzx5MF/Iwfy88wEXAEOGv71ZmZlzTpkpDuPN2NYgQr5OmSEu28/IqFJmiJCfIYLcfaZLjqQAXJ6SWv7KlOTSf5+UWhE7eWvtak7rAwBwdSB8XnrN7fO3Vh+M2FbdIwL8ff/C/8rM31rpZcTfy6pR5mfXOQRhnjrbzyrz7OeUeTualXlCFOYJUTB2+28R06zMEv/Ns8R/+6ycM8pMEewzRXufKcJ95tYaZWZmlTIzo1KZmV7ebzyFveYCkFb+J9HwGyenVeRPSqz4/PjNJVP5nQ4AAIOiHiSclV5x+5yMqt1iN8F5EfqvaysA/WfeYCOuJMzbViOmVpmrjpCGudn1ylwhDY7ZfqZ3zvbNnEHnjGNmi8Cene2cRjENvVN/ZbbVialVZokgn5VZLaZKmSXa+ixx7118bQaMe8h7mwCE/yVx7/7X01IrqienlO+clFh595S0GpbqAACAFojHDO21q+dkVG6Zl1n59PzMqhdFwL8b8PB3mbmZcjMns0JqZmfIjaew100AUsv/PD21tF2E/XemplXGTc4su43H8QAAILiIA2Ozsiuun5NeuXleVtWTIqTb5mdV/clKAqBT+P9TBP1/icCvnZ5acWRyavm3xSG9j4jH8Kbxmw4AAAzLrMya6TNTyj4xe2t1/NytlY+JUG6ct7Xqv0XYv0v7d8x709PKXp2RXtkpQv70jPSKfVPTKh6Zklj6qYkpFQs4mAcAABZDuWamCDhxG+FTszMr/3X21sqdczMqfjA3s+qc+OPLQhJeE2F/ycTt/58izH87M73yxRnp5Y3T08t+Iv78oLhHnzItvex+9bn6yemVETxbDwAA4I64rSBuKUTMyCy5aUZazRfEKfpviYN36bPSq/fMzqx6UoT3T2dnVFbPyahoFfOsmJfFX/uVkIjfzcmsfE3MG+Kv/VP8+Xvir19yC/7L4u9/IP7590XA/3N2ZsWbs9Mr/iZk5E+zMip+Oyuj/Fez0yt/If7e8+LP22emV5wRUzEzrfzHMzOqnpiVVnlgWnpFzvSUyripaaUPTkuvunOquAUyI7V0ofrCJb55AAAAAAAAAAAAAAAAAAAAAAAAAAAAAAAAAAAAAAAAAAAAAAAAAAAAAAAAAAAAAAAAAAAAAAAAAAAAAAAAAAAAAAAAAAAAAAAAAAAAAAAAAAAAAAAAAAAAAAAAAAAAAAAAAAAAAAAAAAAAAAAAAAAAAAAAAAAAAAAAAAAAAAAAAAAAAAAAAAAAAAAAAAAAAAAAAAAAAAAAAAAAAAAAAAAAAAAAAAAAAAAAAAAAAAAAAAAAAAAAAAAAAAAAAAAAAAAAAAAAAAAAAAAAAAAAAAAAAAAAAAAAAAAAAAAAAAAAAAAAAAAAAAAAAAAAAAAAAAAAAAAAAAAAAAAAAAAAAAAAAL7x/wGr8rr4h0l4pwAAAABJRU5ErkJggg==;" vertex="1" parent="QThOkOYovAdt5dILF7DS-19">
          <mxGeometry x="134.6436285097192" y="-20" width="42" height="42" as="geometry" />
        </mxCell>
        <mxCell id="QThOkOYovAdt5dILF7DS-35" value="" style="shape=image;verticalLabelPosition=bottom;labelBackgroundColor=default;verticalAlign=top;aspect=fixed;imageAspect=0;image=data:image/png,iVBORw0KGgoAAAANSUhEUgAAAgAAAAIACAYAAAD0eNT6AABA2ElEQVR42u2dB3hc5Zm2B7Dk3nuTZLlb7jaYmt6AkIQEkgAh4U92+TfY6t2y5LGKuy1XWmKckLax1XuxLclWtURN2CWb5U82bHpIQgmEYp//O2ONPBrNSN9ozswpc9/X9V4ssBAsWfPczznfOa/NBgAAAAAAAAAAAAAAAAAAAAAAAAAAAAAAAAAAAAAAAAAAAAAAAAAAAAAAAAAAAAAAAAAAAAAAAAAAAAAAAAAAAAAAAAAAAAAAAAAAAAAAAAAAAAAAAAAAAAAAAAAAAAAAAAAAAAAAAAAAAAAAAAAAAAAAAAAAAAAAAAAAAAAAAAAAAAAAAAAAAAAAAAAAAAAAAAAAAAAAAAAAAAAAAAAAAAAAAAAAAAAAAAAAAAAAAAAAAAAAAAAAAAAAAAAAAAAAAAAAAAAAAAAAAAAAAAAAAAAAAAAAAAAAAAAAAAAAAAAAAAAAAAAAAAAAAAAAAAAAAAAAAAAAAAAAAAAAAAAAACHDgp1tD37hey8og83nTz4vNZ+TnLue0nY+e2Lg8J0FAABAAAAAAMAXAdA6/LUWAE/hjwAAAAAYTACC0f4RAAAAAD8EwKztHwEAAACQEIDFu9sUT7NIchbukptoyVmws1VqogYZvrMAAADDEACtwx8BAAAACEEBCGb4IwAAAADDEACzt38EAAAAwAACEOzwRwAAAAB8FAArtH8EAAAAQGcB0CP8EQAAAIAACIDR2z8CAAAA4IMAWKX9RxYgAAAAAAgAAAAAeBYAK4U/AgAAAIAAAAAAgCcB0OvRv0CFPwIAAACggwBEIwAAAADWEAC9Hv0bTvgjAAAAAEEWACO0fwQAAABAAwEw+ot/3MMfAQAAAAiiABil/SMAAAAAfgqAGV77iwAAAADoJABGCn8EAAAAwA8BMGv7RwAAAACCIABGC38EAAAAYJgCYOb2jwAAAAAEWACMGP4IAAAAAAIAAAAAMgJg9vBHAAAAABAAAAAAGEoAzLTyFwEAAAAIsgBEIwAAAADWEACzrfz1NhEIAAAAgPYCYPT2jwAAAABICoAZV/56C38EAAAAQGMBMEP7RwAAAAAkBMDsr/11D38EAAAAQEMBMEv7RwAAAACGIKKg7WsIAAAAAAJg+vBHAAAAABAAAAAAGI4AmC38EQAAAAAEAAAAAHwVADOGPwIAAACAAAAAAEAgBMBo4Y8AAAAAyAhATrXiaaKz5WaB5ERtq5KaSMmJyPI+fGcBAAAMIADBDH8EAAAAYJgCYOb2jwAAAACYSAC0Cn8EAAAAYBgCYPb2jwAAAAAMQdSujqjIXa0PBHLm5Qd/+M4CAAAAAAAAAAAAAAAAAAAAAAAAAAAAAAAAAAAAAAAAAAAAAAAAAAAAAICBWLa/4xtf/eHPFG/zFcn58g9elJp7ZedpubnH0/zgxcuyv/6Fu9u//qXvv6A454uSc7fsfG/o+YLkfP7k81Lzue89L/3rV3cB3PXU84oW89kTcnPnieek5g7Juf27A4efbAAACwvAPRoLgB7hjwAgAAAAhhMAU7Z/kwmA5uFvcAEIRvgjAAAACIC0AFim/eskAEZq/wgAAIAfAmDa8LegAPgU/hYQAH/DHwEAAJAUgDUHOxX3WX1AblZJzsr9HVITIzkr9g0y+zt8EoBle9sVmVkqOUv2yM3i3W1Ss0hyFu7qnd1tPglAtPhnPM2Cna1SEyU5kQVyEyE58/MveB1+sgEAhiEApg7/EBWAvvA3uQBoEf4IAAAAAqCZAJim/WskAGZu/wgAAMAwBMD04Y8AWF4Ahgp/BAAAAAHQRABMFf4aCIDZ2z8CAAAQIAEwdPiLWY4AIAAAACAvAJZo/xoLgOnC308BsEL4IwAAADoKgG7hjwAgAAgAAIC8AFim/esgAIYKfz8EwCrhPw8BAAAwtgAEJPw1FIClCAACAABgZQGwVPs3qAAELfwDLABmCH8EAADAAgLgc/hrJACmbf/DFAArtX8EAABAQwEwTfs3oAAENfwNIAB6hz8CAABgcgEYVvhrIACmbv/DEACrtX8EAABAIwEwVfs3qQBoFv4mEYBAhj8CAAAQAgKwXGMBMH37D5AAmKn9IwAAABoIgOnav4UFQCr8TSAAgQ5/BAAAAAHwSQAs0f7VR/o0FgCztX8EAADATwEwZfgjAJYQAH/CHwEAAEAApAXAMuGvsQCYsf0jAAAAfgiAacMfAQgZAZiHAAAAIAD+CIBVwl9rATBr+0cAAAACLACGDP8QFoBoBAABAADwRwBWIQDmbf8aCYCZwx8BAAAwgAAEPfxDVACiEQAEAADAHwEwffvXUQAM0f41EACzhz8CAABgEgHQNPzFLNvXrqkAmKr9IwAIAACArwJgifavkwAYpv0HSQCMHP4IAACACQRA8/BX3+qnoQCYrv37KQBRCAAAQGgJgGXav4EFICjt30ACoFf4z81DAAAALCEAPoW/hgJgyvbvhwBYpf0jAAAAkgJgqfZvcgHwu/0bRAD0DH8EAAAghASgL/w1EgDTtv9hCoCV2j8CAAAgwZK9XV+3VPtHAEwjAIEKfwQAAAABGJYAmDr8hyEAVmv/CAAAgEYCYKrwRwAsJQDDCX8EAAAAAfBZAEy19EcDAZiXKycAZmr/CAAAgAYCYLrwt7gARCMAQ4Y/AmBuptg7J4zb1rKcrwQAAhA0AbBE+w+AAJit/SMA5uWWE63jbzn+zMUPPdbz7o3Hugs+Ym8awVcFwMACYKjwt7AAREvOgl0IAD/Z5iPK3jTqlqMXOz78WI/inFuP97y48UD7Or46AEEWAFO2/2EKgGXav8YCYMbwRwDMR4z9pfBbjz/T7Br+H3r0ytz2aM+7m4717ORqAIBJBSBo4W9RAZAOf/WtfggAAmAi1GC/7Xh3vWv4uwqAc2453v2zDYUd6/mKAQRYAEzb/gMoAKZo/xoKgFnDHwEwEXb7tbce764YKvz75rFnuBoAoKkA5Ncr7rMyr05qYiRmRa7cLN9RKzXLhprcWp8EYIm9RpGZxdvlZlGO3CzMqZaa6Gy5WXB1fBOAbVWKp4mUnIgsuZm/tVJq5knO3Ezvw0+2GVCuEa3+lHv4L9vboczOvaBsOnLRqwiIswHPbHq8czFfQwCNBUDL8A81AdA6/PUSADOHPwJgDm4+evFJ9/BXrwJOym5WJoqZlNOsXs1TzwB4kYCLb9xQ2HUfX0kAkwuAZuHvowAs2Nn2oMXaPwKAABie6w91PuIe/uqtQmf4u463qwGqGNz2WM/lm472HFKvJvBVBfBTAEzf/k0gAAFu/0ETAKOGPwJgbNYd6VwhDv297Rr+qw5cCX9PAtB3NWBv/6sBt7nMLcd6mm599MXJfHUBLCoAyyRn6Q5tBcBk7d9vAYhEACBgOO7797iG/5qDnYOGv+vM2nHlasBtbgJwm+OWQPcrGx/tXsrXGECSZYXPRS3Z3/mgnrNoT5vmI/vrj9rVEbVgt1iJG8SJ3NX6QKBH9tc/O78tcl5+6wOBmjkFrffrMfxkG5NNx7oTXMN/rQj/yTnN0gLgvBqwvPdqgIf566bjnR/lKw0AAGAQVu26MPm24z1/c4b/+kLfw1+dCduaHKM+Cnrzse6BEnC85x0OBwIAABiEG492H3WG/41HLypTt7f0hf9wBECdaeLfsfGwp1sC3R9cf7TnEb7qAAAAOrK88Pxs0cwdB//Eoh/HyX5/w9856j+vPkHgdhVA/ePlG452ZfHVBwAA0IlNh3uOO9v/0r0d/cLfXwFwziLxJsx+AtA7Nxztzuc7AAAAEGSid/dMFEH8lhr+m8Slf9f7/lqFv+u5APFIYD8BUEfcDtjJdwIAACCIbCzsynK2//liJ0Qg2r/rzLCfV2462j1AAoR85PLdAAAACBK3HOv+tRr+Gw51BTz8x2ddGfVw4KYjHiUgg+8IAABAgFm9t/0zzvY/J+9C0ARAnSniVsP16hMC/STgmUvXH37mYb4zAAAAAWTT4c4i5zP/wQx/50wW//zGQ/0lQLwx8P0bDnfdzXcHAAAgENibRt3ae/hPPZynhwCoo/5vbXCRACEAingd8VvrjzxzI9+kECfmQMdDD/z454o69//oZ1Jzn+z8cOj5quR8RXK+/IMXlS//8EXpd8GruwDuFf+M13labu6RnC99/wWp+aLk3O1pnn7Bp10Ad39P/DO98wWJ+fzJ56Xmcz7MXU9pOCef92kXwJ0nnlMGmzsk5/bvajuf+Y7cfPo7zw4Y2V//zNzW+z/15LOK63xS4/nEE89Izccl52OPDz1G+GxdV9j9oOPkv3h3v3v4TwpS+LtLgBr+zrnleM8f1x17NpIURAB0Cf9QE4CghL8fAvAFnQRA0/AX89mnEIDhCoAVwt8oAnDTke4yVQAWiufz9Wr/A24HHO7qLwHHun++4YmeMSQhAmBYAfAp/LUUADO2f4MIwOcsIgBmDH8EwAACYG8aIQL2DfWlPFNyWgIqADLhr844VQLEwcAbjvS/EiBeS1xOEoawAFiq/ZtcAPwO/2EKgGXa/wkEYLgCYJXw/6gBBGDl/s5Pqu1/1YEOQ7R/pwCoo+4gUHcRuErApiOdOaQhAmBaAegLf60EwKztHwEIugAYLfwRAP0FYOPh7iN6H/7zFP7OUV8WpG4SdJGA99cf7foYiRiCArBevKBiqFlXKDfqfmuZWSM5qw/IzSrXOdjpkwCsFIs03CdGclbsk5vlkrNM7PkeapYONfvafRKAxbvbFJlZJDnqPU+ZiZacBTtbpSbKObtafRKASPF2Nk8TITnzxYe8zMyTnLl5cjNnkPFFAGbnnlfUmbVj6JkpOWrAyMx0e4vUqC+2kZmpvaP7/f9jF58TJ+0D+trf4bR/11F/n7idB/j9uiPPTicVEYCQFgAjhz8CYE4BCGb4D0cAZMIfAZBjur1pnFjH+776WWK0y//uE72zzVUAFHFwsZ5URADMG/4IQEAEQOvwXxio8NdIAMzc/vUWAL3DX28BWLm3/bPq5f8It/f+Gy38naN+RjkFQB2xOCieZEQAQlIATB/+JhGAaAQgYOHvqwBYrf3rLQBrD3ft8XT636gCMGFbs+Nz3ikANx3rfmvt4c7FpCMCYL7wRwA0FwC92r+sAERpLABmb/9mEIBAhr/eArDpSNdZ91f/GjX8nTM5u8XxwiKnBIinBDpIRwQgpATAEuEvZsleYwtAQNu/xQVgjk4CYKb2r7cA3Hys549LdrebSgDGbm1yHAR1CoDjVsCRnjgSEgEwV/gjAJoKgNHbv9YCYIX2b3QBCHT46ykAM+1tMz4k7v/Pzr1gqvB3zpI9ba63Av5+/fGLs0jJEBUAU7b/YQqAZcJ/j7EFIODhjwA4mpyWAmC29q+nAKzc13bnrW6P/5lJAMZn9T8PsOlo97+TkgiA3wIQtPBHADQTAFO2fz8EwCrt3woC4E/46ykAawsvZm4Qn51mDH/nqF/Xm/tuBfRc2nC451aSMsQEwLTtP4ACYIrwN7AABCX8Q1wAnC/10UoAzNj+9RSAGw51fX/Z3g5TC4A60bta+64CCBnoISkRAHO0/2EIQAwCYJ32P0wBsFL7DxUBmGpAAbjxcFdb5M5WXVb+ahX+6qh/33krQL0asLGw6z7SMkQEwNTtX2cB0D38DSoAQQt/BEAzATBr+9dTAG462vWq+ms1c/t3jvrrcArAjccu/sJmU64hMRGAgAiAZuEfIAEwTfsPogAYsv0PQwCsFv4IgE4CYLdfK3YAvK/3yl8twt85S8Xnyc19VwG6v0liWlwATN/+TSAAAQ1/DQTA1O0fAdBEAMwc/noJwBx7a8T1h7ss0f6do/5v3yBeEMRVAARAdwFYJTkrD3RoKgCmav8IQEAEwEzhjwDoIwBLdrfeuupAh2FW/vob/mO2nnNMRH7r1asABzu/SmpaVAAs0f4tIgDDDn8/BcD04Y8A+C0AZg9/vQRg7cGu+9VL5lZp/04BGJt1TlEfbXRcBTjS3UVqIgCGFQDHW/00FADTtX8EQDcBMEr4IwD6CMC6wo4k9fefkQXA1/B3zpy881evAhzpvoHktJgAWKb9h5AAeAx/PwTAVCt/BxnxGJamAmC29h8MATBy+OsmAIcv7pq144Kl2r/rrC+8chXghsNdPyI5EQDLC4Ap27+BBCAaAdAl/P0RgJkIwLARBwC/M1WsADa7AHgKf9erAOq64KV7WseTnhYRAEuFPwIwLAEw3cpfb+FfoK0AmLH9G0UA9Ap/vQRgQ2Hnaau2f+c4zwJsOHTxEdITAbCsAJg2/A0iALq1fwsIgL/hP1wBsEr7nyIW8ejxWbr6YEetVdu/c9Tf66oAbDpysZX0DCEBME34IwA+C8Ais7/4xzX8NRQAs7Z/IwiAnu1fLwFYvrftvJXbvzrqv0t9L8CNx7ovbSjsmU2CIgCWEwBTh78BBEDX9h8iAjBY+A9HAKzU/vUSgCV72y5aXQDUWSg+C246Km4DFHYlkaAhIACmCn8EICACYPT2r7UAmLn9m0UAAtX+9RIAsUHvBauHvzrqi45UAdh09GITCYoAWEoATB/+OguA7uEfAgIwVPj7KgBWa/96CUBUQevLoSAAozPPKavF57h4GuCdKHvTKFIUATBO+CMAmguAqdq/BgJg9vZvJQGYaiIBEL8n/jsUwl8d9fe1ehVg/aFnPkuKWlgATNf+gyAAhg5/MYv36CMAhgh/BMAnAZhmb7nfau1fLwEQz8n/OlQEQP133ygE4PrDF3+ibgnceKSr4IbD3U+LA4J14tZA96YjXb8QTwq8Kv74x01Huv8sXiH8J/HnvxfzKzE/F/9/HRsPd1dtPHzxqQ2HL+auLez6l7WFHR9Zsr9nGqlsUQEISvj7IQCWaP8aC4Dp2r+fAmCF8EcA9BGA2TtafmXGlb++hr9z1M9a9SrAwLkoNTd6GSEIr2081N258XDXd9cdufjtNQfa16mrlknrIAuAKdu/QQRAt/BX3+qngwAYJvwRAM0FwGzhr5cAzLR7FgCrtX/32wBaC4CbDPRO15viasN5kUu7Vx9o//iGJ3rCSG8LCoDf4T9MAbBM+0cAhi0AVgl/9VQ/AhB8pm9vecWsK399DX911P/mQIZ/fwHoP+IWwlsbCzsb1x3qTF5b+FwUSa6xAJi2/ZtIAAIS/hoKgCnDHwHQVACMHv5GEgDx3/KLUGn/zlH3yOghAP1k4OjFy2IPw0vq1YF1B7rWkOoWF4BBw38YAmCp9o8ABFQAzBD+oSQAnsJfLwGYlNP0MzOv/PU1/NURnzWOw4DiMJ/js3nZ3g7xGdTu+HmP2tnW7+dS/XPxeSP+Xqv4vGoTn5XtjscJVYnYNMzw770a0G+EDLwsDhXmL+PKwPAEwNTt32IC4HP4ayQAhl/5W6CtAFip/WslAGZt/3oJwMRtLc+EUvtXx/nvUf/vUZIzMsPzqP/tU8Q2RfX3sfgZdnyuqblwg48CcHW6L11/pKt9zcGOfxNnBsaQ9gjAsAXANO0/yAIQjQAYLvxDRQC8hb9uVwC2NbdZZemPTPi7jr/h7z7hGWf7ZmTmWfH1bHL8Hlc/S1a5SMENkiMOEL6+vrDzxMp9natJ/UEEwPThH4IC0C/8NRAAU6z81VAArNb+gykARmz/ul0ByG5uCKX2HywB8DTqv0v9Ps8TPx/q56S6pniQ8O834nZF2+qD3V/l0UIEQEoATNX+gygAhmz/JhGAQIa/FgJg5vav3y2A5lLaf+DD3zlh6VdH/XN1R4H6c7pCZMD1gwhAnwgc6f716oNdqav3vTAWAbBK+KvP9IeQAAwIfz8FwDQrfzUSgNn5rQ9Yrf0HSwCM2v51vAXwNO1fHwFwH/Xfo/6eUj+n1h7s8ioBV6b7r2sPX9y5ateFyQgAAmDu9h8kATBs+zeBAAQ6/P0VALO3f90EILvlqFUEwMzh7zojemfCNvXqQKuyan+nFwlQJaHrjTUHL+6POdg+JeQEwDLhjwAMWwBM+dpfDxOhsQCYrf0bSQD0aP/6CUBTHu3fmALgOmPF10s9O9BfBrpc5uLr6hWBpXtaxyMAISwApgz/IAiAodu/RQTAn/D3RwCs0P71EoDx2c1JoSQAZgx/91G/durP7uoDHW4S0KVsPHTxz+oZAUu/dtgXATBF+CMAwxIAy7R/jQXAjO3fbAIw1SICMCG75eu0f3MJgDrXpV0Z9Xujfs6sK+x0F4FXVu/vvMeyAmCp9q+RAJg2/AMsAIZv/yEkAN7Cf7gCYJX2P1kvAdjafDsCYM7wdx31r0/d3qwsFW8rvCoB4pzcoc6mlYUdyxEAI4c/AuCzAFil/WstAGZt/wiAPgIwJuPcBsLf/ALgOqMzr9wiWCOySJWADYVd764q7NgdY38p3BICsGx/xzfWFjQoQ82agnqpWZ0vN6skZ2VendTEuE5+nW8CkFunuM/yHbVDzjLJWWqXmyX2GqlZvH2Isdf4JgA51YrMRGfLzQLJidpWJTWRkhOR1Te+CcDWSsXTzJOcuZlyMyezQmpmZ8jNrHTv45MApJcrM9LkZrrkTEstk5qpkjMlRW4mJ5c6Ro/P0tFZZ+ciAL4LgFHD3znXpp1Rrks/4xDLJaJgOUTgcNcvVh1s/zACMAwBCGj4ayAAMuGPAFhbAMwc/giAPgJgszeNEI+bXbLSyt9Qbv+uAuA6o8XXKkJcFVhXePHS+kMXn4w53jTO0gJgqvZvMAEIevj7KAARBW1fs1j4IwA+CoDRw19WAJzhr5sAqOcAtjX9gfavvQAYJfxdJ0z8d6m328Qt6FdXHez8PAKgoQAMO/z9FADTt38EwG8BMHv4W00AfG3/OgvAs1Zb+Uv7H3yctwfEmaZ/X72vbYalBMB07d+EAqBp+ItZlKOPABgk/BGAAAiA0du/gQSglvavjwDoEf7OuSZVzJZiZUxc8Z/Hxpd83TwCUPhc1PID7V8P1izZ3/lgMEb21x+1qyPK+c8s2tOmyyzY3fY1rceXX3/krtYHgjnz8gM/8gLQFjmnoPX+QM3M/Av36TGyv/7J9taIaTua79NqJtvPf1WPmZjT8hXX0U0AsprKaP+h0/77wj+hSrnmkVPOqbEBAEBoMTm7pZn2H2LtP6VRhP7p3vA//U9bXNFifhIAAEIIRVHCxHsNXmXlb4i1/7jyvvZ/7SOn9/CTAAAQYjx06j9XzdjRQvs3qAAEpP0n11299L/59Ku2hyvH8JMAABBifOzJZ3fPyTvPyt9Qav9bSvoEwBZbdB8/BQAAIca9p9pHf/h49x/mF1yg/ZtYAHxq//0P/p3npwAAIAS58Wj3wdse7XG8N56VvyHQ/pPrXQ/+vW/bUraKnwIAgBBj4+HOz9/2aPcHqgA4zwDQ/i0uAC6X/q/dXHSMnwIAgBBjQ2H7F0Tw/0MN/1uP9ygTs1n5a/nwj69wvfT/J9vDpybykwAAECLccqJ1/E3HLh679dGeS2r4q6OuL6f9W1wAkmtdw1+xPXL6//LTAABgaZRr1h1tnaNe7r/pWPcJccn/787gd47zCQAEwKLhn9qgXLulyPWxvzb194XH3y5f+/HPFfd5QHLu/9HPpOY+2fmh3HxVcr4iOV/+wYtDzr2y87Tc3CM5X/r+C1LzRcm5W3a+JzdfkJzPn3xeaj4nOXc9pe189oTc3HniOam5Q3Ju/66285nvyM2nv/PskPOpJ+XmkxrPJ554Rmo+Ljkfe1xuPio7j8nNRx7rkZoPS86HHpWb2waZtQc7Of1vaQFoVK6NLRb3+/va/zu2LUXLvPricAUglMIfATBW+OslAKEU/giA9QTg5mPdytTtzT4JAJf/TSYAcaWu4a/YNhclDXrBiPZP+NP+EYDhCgDhb47wv0WE/8wd52n/GgiAYcM/ocIR/i4C0DDkHSPaPwJA+9dOAGj/CIDRBGDj4YvKdHsLW/+s3P4Tq9zD/7e2fyuZ4ZMA0P79EADaP+0fAbB2+D9urvDfcKhLidzZqrD1z+Jb/5Kq+8K/VwDes3379G1SZ0Y3Hu5SnKP+hpGZ9RKzrlBu1EMpMrNGclYfkJtVkrNyf4fUxEjOin1ys1xylu1tl5qlkrNkj9ws3t025CySnIW75CdachaIDz6ZiZKcyAK5iZCY+eItbDIzT3Lm5snNHMmZnXteambtkJuZkjPDLjdqm5UZsfFOaqZKzpScZqmZLDmTsuVmouS4B723Yeufhdp/Uo17+ItH/k5tkX5oJBDhjwAQ/oEQACuEf6gJgFXCX2sBCKXwRwCCE/6OeeT04z49NaqnAND+EQDaP+2f9o8A0P59FAC3y/697b9BbHu6zmcBoP0bRwBo/7T/UBOAUGv/sgJA+0cAPB/4Gxj+124+/Zy49D/O5/dGGV0AaP8IQKgJAO2f9o8AEP4eBSChcmD4byn6L6kT/x6XRBzqpP2bTAAIf9p/qAlAqLX/SYQ/AuAuAC7P+V8N/1P/I5b8RAx/S5QFBID2jwCEmgDQ/mn/tP9QCf/Gvjf8uYX/q7bY0oV+ronspP1bUACsEv4LCX8EQFIAaP+0f8sJgLrYp/fd/v3np7/xO/xV1hd2XgoFAaD90/5DTQBo/7T/UBMAS4W/WOmrbvXzcODvl35d9u9/BaDjA9p/aAqAVdq/rADQ/hGAqSEmALR/kwqAp8N+Vy77P2+L//FMzbZHrz/Y8S4CQPun/YemAND+af+s/DVQ+Kee8Xy/X8x1m4vP2tLKx9u0RJwB+AfhT/u3evtfQPgjAAgA7d/IApBcp1y3pdhb+J+02ZtG2LRmw8H21xEA2j/tHwEg/Gn/CIAe4X9GuS6+QoT8aU/h/4Ft80/TbYFC3AL4M+0fAaD9ywsA7R8BCDUBoP0HSAAcrb/EEf4eBOCvtkdKPmMLJOsPtv8OAegk/Gn/tH+W/kgLAO0fAfAr/FOvtn6P4a8e9tPiMb8hBeBA2/+w8pf2z8pflv7Q/mn/rPwNQvtPrHHc63cNf1cBuG5L0ZO2h06OsgWDdQfafkn7Z+Uv7Z/2T/tn5S/tP4Arf5PrletiSwcEv0v4/9W25fS9tmCybn/bi6z8pf2z8pf2T/un/bPyNwDtP7VRXO4v9xj8fbOlqNEWWzzPFmzW7r/QRftn5S/tn/bPyl9W/tL+NRQA9XS/eKHPoMG/+fSbts1F37bpxdp9LS2s/KX9IwCs/KX90/5Z+qNB+IvgH5GoBn/R4OEfe7rWtrk40qYna/ddqKH9s/KX8Kf9s/KXpT+0fz8EQGztU4N/hHh//4gtg7b+34pDgF+xGYG1e5pPs/KX9o8AsPKX9k/7p/0PI/xT65URCRWO0HeOl+B/T8jBQdsjp8bZjMKa3c1P0f5Z+cvKX9o/K39p/7R/HwRAbOsbEV/WL/i9CsCWolIR/ItsRmP1znOHWflL+6f9s/KX9k/7Z+XvEOHvvMwfW+wx+N3Df0RsUZsI/lttRiUmvzGP9s/SH1b+0v5Z+cvKX9q/hxGH+sKSa7y2fU8CIP7Yc11c2R02o7Miry6ZpT+0f9o/K39p/7R/Vv46Rw39WiUsoVwJ6z3UJzdFndfFFt1lMwsrCmq+ub6wk/ZP+2flL+0fAWDlb+i2/96mHyaavhr6YSLQnTNE8F8esflU7YhHfvpRm9lYtqP+LrEQiPZP+6f9s/KX8Kf9h9bK35R6JSyxSgmLK+0X+JLh/2ZY7OnHbfHlS21mZXl+443rD7TT/ln5y9If2j8CwMpfC4f/GSVcPLIXnlythPde2vcW+oMKwOaiF67dXBRnSysfbzM7MbtbI9bvv4AA0P5p/wgAS39o/9YRgLQGJTylRglPqlLCxWX9cHFyPzy2qG98Cv/Y068JYXgiLL5ok81KxNhfCl+/7zzhjwDQ/ln6Q/tHAMwZ/uLQ3khx/z5cPKLnKezdRyb8xbwl7u2XiGf4v2R7uCfMZlXW7Wt5EwFg5S/tn/ZP+2flrykFQIT+yLiiQUNfSgBii/4WHlfy0+viir5se7hyjC0UWLen+Tes/KX9s/KX9k/7p/2bbuWveFzPj/C/HLa56D/C4ooOjvh28Sds9566zhZqrNnV9Cztn5W/tH/aPyt/WflrqvYvTvKPjCvxVQD+n5gfiOf1v2nbUj7HFuqs3tlYx8pf2j8CwMpf2j/t31RLf8Q9/8HDv/jt8LjizpGxxUfDE0rvs/3bqbk2cBOA/Ian1x/qpP2z8pfwp/2z8pf2b472L075q+F/VQCKfyeC/tzIuOIjYfHF3wpLOLU2JC/p+/42wPqd7i8DYuUv7R8BYOUv7Z/2b9j2H1/aF/7iHn48ST7sfQD1sesPtNH+WfnLyl/aPyt/Wflr/PYvHvnra/9xRc/Z7PZrSfJhvw645q71+y6w8pf2T/tn5S/tn/Zv7JW/joN/xc72fykstvhGUtyf1wEX1K9cv6+F9k/7Z+Uv7Z+Vv6z8NXb7T6xwufdfcoIE1+JtgHubL9H+af+0f1b+0v5p/4YVgNSrB//EVYA/2751agoJrsXLgHaf+xPtn5W/rPyl/SMArPw1Zvs/23fwT52wuOKHSW6tXgZU0PgcK39p/7R/Vv4S/rR/QwqAy8G/UXHFHTabcg3JrRGrChrK1x3soP2z8peVv7R/BICVv8YKf3XZT+/BP/HH9x3P+IOG5wDyzhxaJx4FZOUv7Z/2T/tn5S/t31ACkFDucu+/5BiJrfW7AHLr49aJtcC0f1b+0v5p/7R/Vv4a59J/revBv9/Z0srHk9haPwq4o/6TYisgAkD7p/2z8pelP7R/YwhAWqPLpX/x2F986ddI6wCw0F4/Y93us4Q/AsDKX9o/7R8BMEb7jy+72v5jTzeT1IF8FHDnmdcRAFb+0v4RANo/S390F4CkapdL/0XvhceWrSClA8jq/PoXvT0JQPgjAAgA7Z/2jwAE59K/6wt/1Mf+SnaR0AFmZW5d0br9rbR/Vv4S/rR/Vv7S/nUSgP4v/BErfp+32ZtGkNCBPgiYV5O7bm8LK39p/wgAK39p/7R/fVb+JlW5tv93whMrYkjnILDUXn+PeCUw7Z+lP6z8pf2z8peVv8Fv/6n1/S79j4wtSiWZg3UFIP9s5LpdZ1j6Q/un/bPyl/ZP+w/uyl/Hmt8St1P/vO43qKzd2fiG8yAg7Z/2z8pf2j8rf1n5G5T277Lmd2R88d9GbS6OJJGD/SRAQUO38yAg7Z/2T/tn5S/tn/YfcAFIqet36T8sseQbpLEOrMpvOLlubzPtn5W/rPyl/SMArPwNfPg7Fv24XPqPO11CEuv2SuC6ePUgICt/af+0f5b+EP60/4ALQL9FP+Jd/5tLppLEuj0J0LBxbUED7Z+Vv7R/2j8CwMrfwIZ//7f9XR6ZVHkHKawndvu1QgDeXitWA7Pyl/ZP+6f9s/KX9h8QAXB/5G9L0ZMEsCEOAtY/s3bvBdo/K39Z+Uv7p/2z8lf78Hfc9y92fdvfL20PV44hfY3wSuD8+hNr9zSx8pf2T/tn5S8rf2n/GguA26t+44rfH5Fw6iaS1yjnAPJqvyXeB0D7Z+UvK39p/7R/2r+27d/1eX8x4bElBaSugViUd3ah4yDggXZW/tL+af+s/KX90/61EYDkWrdX/Yq3/YlzZ6SuwVhT0PgHT+cAaP8IACt/af+0f1b++hz+qf1X/Irn/f/XFntqOmlrxBcC5dbVeDoHgAAQ/rR/BICVv7R/nwTA/T3/8UXvct/fyC8EyqvP8nQOgPBHABAA2j/tHwHwqf33e9mPeNVvfPEjpKyBWZxbv+nKOYA22j/hz8pfBICVv4T/8AQgqapf+I+KK3qahDU8yjVr8utfX7u3hfaPAND+WflL+0cAfF/567bkRzzv/7ztoZOjyFcznAPIr29Y27sXgPbPyl9W/tL+WfnLyl/p9p/e2O9lP6Pii14blVgcTbKa6RxA714AVv7S/mn/rPyl/dP+5QTgrAh815f9FF0amVBxO6lqIpbk1q1RBWDNvgu0f1b+svSH9k/7Z+WvXPtP7H/oLzy+aAeJatL3AazZ3cTKX9o/7Z/2T/un/Q8d/kmV6kE/11f9VqtnykhTExKTV3t6jXgckPbPyl/aP+0fAWDl76CTXOUW/kWv2B4+NZEkNSnqXoA1BfXiNkAbK39p/7R/Vv6y8pf273lSah3hf1UAiv8RllSyhhQ1Mct2npkqBOCDNXuaaf+s/GXlL+2f9s/Sn4GTVu8W/uJlPwmlD5KgFmBlXn3PYLcBWPlL+6f9s/KX9h+i7T+9QQR/sZsAlBwkOa1yFSC3rsDbbQDaPyt/WflL+6f9h2j7zzgjHvcrcW//RRz6sxCLCxrWOgTAw20AVv7S/mn/rPxl5W8Itv+MK8/6O8PfIQCxRa222CMjSU2LsTq/4VfutwFo/wgAK39p/7T/UFz5K8I/ocwt/Iv/05ZQOom0tCArdtQ/7n4bgPZP+NP+WfnLyt8QbP9JFf3CX8zvR205tYCktCiLcms+7BCA3pcC0f4RAFb+0v5p/yG48rf3Wf++iS95IyyheD0paXFW5dX+fo36auCDHaz8ZekP7R8BYOVvqLX/lBr35v8e7/gPEWJy659QrwKs3nue9k/7RwBo/7T/UBKA1Dr38Fcf/3uYZAyVpwHs9R9yCMCuswgAK38Jf9o/S39CJfzT+j/rr054bHEeqRhytwEa/md1vpCAA+2EP+0fAaD90/6tLgDpA8Nf3Pf/PmkYgiyz1x50CMDuZgSAlb+EPwJA+7fyyl81/F1e9OOY2OJG272nriMNQ/E2QF7VcocAFDSy8pf2jwCw8pf2b9X2n944IPxHxxe/YHvk1DiSMJQPA+Y1POuQgL0XaP+s/GXlL+0fAbDayl8P4T8qvug3Y9LK55CAIc4Se3WSQwC8HAZk5S/tn/bPyl+W/pi0/Tve71/qftr/L+GJFTGkH9iidzdOXJVf/45DAva30f5Z+cvKX9o/7d8K7d9D+I9OKPl7WOypG0g+uHobIL+uyNNhQFb+0v5p/6z8pf2bsP17bv5vi/koiQf9WGSv/YhDAPIbRPB30P5Z+cvKX9o/7d+sK389hX980bsjkyrvIO3AI6vyG37hkIA9LbR/2j/tn5W/rPw1Y/sX4T/abbOf+orf8ISSL5Jy4JWlO2pTnY8ErhJXAWj/tH9W/tL+af8mWvnrMfyL3w+PL/sKCQdD3AaombCqoP4NVQJW7TnPyl/aP+2flb+s/DVL+xeP+o1OKFWf7e8f/gnlD5BuIMWK3LoTq1QBcFwFoP0jAKz8pf3T/g0vAOINfwPDv+iDsITSB0k1kEZ9M6AQgEsOCRAvBmLlLyt/af+0f1b+Gjz8xUt+1PB3EQDCH4b5SGBufcNQVwFo/7R/2j/tn/avswCk9Q//KwLAZX/wg4X2+o85BGCQqwCs/KX90/5Z+cvKXx3DP7XOQ/iL0/6JJV8lxcC/swB59c94uwpA+6f9s/KX9k/711EAUmv7Bb9jEorfDY8v/RLpBf6fBcipvs/bVQBW/rLyl/bPyl9W/uoU/ik1A8M/vvidkfEVnyW5QLuzAOLFQO5XAWj/tH9W/tL+af86CUBKlafwf3NUXOnHSSzQ9irAjrr/03cVoPe9AAgAK39p/wgA7V+H8E+u9BD+JX8bnVxyK2kFAUC5ZmVu/StXrgI0ON4OSPjT/hEAwp/2H0wBOKuMTqrw1Pz/GJZUsoacgoCxKLf+m86rACt3NSMArPwl/BEABCBY4a++2jexbGD4xxX/amRc0WISCgJ+FcB5FmBlnph97YQ/7R8BYOUv4R9oAXC82ndg+I+JL3ppTFr5HLIJgnMWwF59/8q8OsUxO88iALR/Vv7S/hGAQK78Tasf8Iz/lSltsz18aiKpBEFlRW7Ds30SsLeVlb+0f9o/K39Z+RuI9u94wU+xpwN/lbaHTo4ijSD4VwFyqj/ZJwDisUDaPyt/WflL+6f9aywAKdUew39MfPF3bXb7tSQR6Mby3LqGPgnY3cLKX9o/7Z/2z8pfTcL/rDJGnPQfMzD8L49KKN1O+oDuLCyoXynC//0rEtD/QCDtHwGg/dP+af/DEIDMM8oYcdJ/zJWm3+/VvqMSS75B8oBhWJZb+4SnA4Gs/CX8af+s/GXlr4/hL076j0koHRj+cSV/HZVQ8jESBwxFlL1pUkxe3V/6JEC8IZD2jwCw8pf2T/v3UQDEYT9n8LsJwCvhCSXLSRsw5oHA7Nq4PgHIb1BixK0AVv6y8pf2z8pfVv7KhL+4359c5Tn8E0rax6WUzCBlwMAo16jrglUBiFFn5znaP+2flb+0f9r/UALguN9fPiD8rwhA0Y9tD/eEkS9geKKzK64XAvBBjFMCdp9n5S8rf2n/rPyl/XsLf7f7/S5zaVR86TZSBUzFUnvt430CkOf9VgDtn/bPyl/af0i3/9Raj61/bELJG6MTi+8mTcB0zEypH7tiR+2rfRJQcIaVv6z8pf0jAKz87Qt/9X5/pcfwH5MgDvsllq0iScC8twJyqu6Mya+7fPVWQAvtn/bPyl/Cn/afoV7yL/Nyv7/47PjNJVNJEDA9y+x1P7p6K6BeidnbRvtn5S/tHwEI3ZW/jkf8Srxd9j/Aa33BOlcBdjdOXJ5b/799EpDfKMK/nfZP+2flLyt/Q6z9n1PGpni55B9f/Obo5KL7SAywHItyqj4twv9SjMujgaz8ZekP7Z/2HzICIC75j030fMl/bHzJf4UnVsSQFGBZltrrHnMKwIpcMbtaaP+0f9o/K3+tH/5pteqlfTEemn/c6RLbI6fGkRBgaWLsL4WL4P+PPgHIrVdW7L2AAND+af+0f2sKQKa45J9c4Qh+57iE/3ujE8pSSAYIGRbYa1fH5Na+fUUAxOSpEtBO+6f9IwCs/LVW+Gc0iEv+pV7Cv+jV0UmnbyYRIPTOA+yo29wnAOqIQ4Er9rUjAAgA7Z/2bwEBEK0/tbpf8LsJQDWP+EGInweoPdVPAgrOsvKX8EcAaP/mDn/1oF9SmefwTyh+d3RcaRqf/hDyzLFXjlmWW/dyPwnY2UT7RwBY+Uv7N6cApNZ4DH51xiWWvCKW+Wzikx/AeSsgty5meW7d6/0kYHcLK39Z+Uv7Z+WvTwKga/hnnBGtv9xr+I+NL/4Rp/wBPB4KrLlHBP8lVwlYvvsC7Z/2z8pf2r/x27/L430Dp+T1UcklD/ApDzDYlQB77c5+ArBDzJ5W2j8rf2n/rPw15srfzMFbvzjl3zZqy6kFfLoDyBwK3FFXdiX8a6+MeEfAcrEzgPZP+2flL+3fUO1f3Osfl1DqOfwTi98dFV+81WZTruFTHUCSKPvJUaL5P9cnAA4JaPAqAVoKQKi1f1b+IgAIwDDCP7NRGSda/zivl/xLfzY2tXQtn+YAw5KA6lnLdtS92k8C8lQJaKf90/5Z+Uv469T+z4nWX+0Ifue4hf8Hovnvtz3cE8anOIAfLCyoXymuBPxtMAlg5S/tn/aPAARFAMTb/MYllnsP//iSl0cnFN/CJzeAZlcCaj+yLLf+bU8SQPun/dP+Wfkb8PDfelYZJ9b2uga/mwB8IML/oO2hk6P4xAbQmAU5tfeK4H/fXQKW7Wlj5a9BBID2T/u3pACIR/vUQ36ewt8hAPElL/Eef4DAS8C3lufWXnIKwDJ1coeWANo/7Z+Vv6z89Tn8M64e8vM4SSXvjokvKeBeP0CQiN5WnSgk4HKfAEhIACt/WflL+6f9ywuA98v9Vy/7l3aOTSxbxScyQLAlILs6Y5mrADgkoF5ZJt4YSPun/bPyl/Y/vPA/p4xPrxv0cv+4xNLXRyeUJvBcP4COLNxRnzVAAsQbA90lAAFg5S/tn/Y/pABk1CvjxeX+8Yklg4R/2ekxaeVz+PQFMMqVAHE7YIAI7Gom/Gn/rPxl5e/Q4b+1URkvLverwe89/Ev/e0xK+Z184gIYTQKyqpNE6F8aIAEFTQgAK39p/7R/LwJwVhkvXubjDH6PApBU8s6Y+NI8W+yRkXzSAhiUBTl1/7p0R+0HrgKw1C4m/4wI+DZW/tL+WfnLyt+r9/nTakTYlw4a/uOTSqtHxpYu5NMVwARE5dR8Zam97p1+AqCOeEJgqdgkSPtn5S/tP5Tb/5UDfuOTygYEfz8BSCz75ZjEsrv4RAUw2+2AnNqPiy2Cf+8Lf+eIw4FLd11g5S/tn/Yfiit/M+r6Dvh5DX9xul+8zS/TZm8awScpgFmvBNir1y6x1/xugASo43YugPZP+6f9W7j9i/f2j08ePPjFrYD3xyeUnBgbXz6TT08ACzDXXjNvsb325x4loPdcAO2f9h9qAhAy7V+s6Z2QXKFMSCoZKvzPjk2qXMMnJoDFmG4/NW7x9tp6jxKwo15Zsus87T/EBYD2b7Hwdwn+QcM/qeTnYxPLP8OnJIClUa4R5wIOiicELrtLwBJ1xC0BVv7S/hEAkwuAW/B7E4BxCcWvjkko+xfe4gcQSucCsqsfEucC3r4a/jVXJ7dRWbK7lfaPABD+Zgt/cY/fU/B7CP+/jE0syeB5foAQJSK3aoNo/b8eIACOqVOW7Gxh5S/hjwCYQQDEa3sniMN9noLfTQDeGJdYUjDFXjOBT0CAUL8SYG+atGh7be1AAeidPPVqQBvtHwFg5a/hwl8Ef/rQwa+OeKTvH2IOjU+unManHgD0Y0FOTZa4GvCeZxFQrwY00/5Z+Uv7N4IAiMY/Mb1WmSgR/OJU/9sTEkuPs7AHAAYlMqvsZvGUwK88ScDi7WLEGwQXi7MBtH/aPyt/dVj5K97VPzG9Rpko3tw3Mal08PBPLnvHEfwJxbP5ZAMAKRaJe4MLs6t/6lEAHFOrLM5v8ksAQq39s/KX9u+XAIjtfBNTKx2h7zoegz+x+C0R/IcIfgAYNlE5tfct2V7zWv/wdxnx3oDF4pAg7Z/2T/sPxMpfcZlfHOybmFI+IPg9hn9i6d/GJpbt4h4/AGhzS2Br3eyF2TXVHgVg+8DbAggA7Z/272f7d7vM722uhn/p78SK3qxpaeXj+cQCgABcDaj6xuKcmr94F4FaZVHeWWXRrlbCn/avmQCEVPvPbFAmpVUNGvr9wj+h9OVxCaXftj3cE8YnFAAElFmZNdPVswGL7TWXPUnAohwxqgjknxNB34oABEAAaP8Wa/+i7U8Sp/knicv8k5JLJcO/9Pz4uLK7eXMfAOhwW6D8ThH2rwwIf9fZXidEoCngh/9o/wiA+dp/k2j79Y62r4a+63gN/uTSdycml/xkTGrxej6BAEBXYuwvhS+w1+Qv2l7zD48C4EUEaP+s/A3Z9r/1jGj7NSLoywYEv9fwTy7944SkinxO9AOA4YjIqIqOzq4uFWF/2asE9IrAwrwmEe6trPyl/YfOyt9tzkv8FR5D36sAJJd1Tkgq+zr39wHA8MzLrvmwEIHnB5OAhTnVykJxRmBh3rlBRYD2z8pfU7d/cYl/srjEP1k8tz9U6LuF/5tiToxJKlrHJwoAmO+KQFbVN8Rjg7/xGP6uo4pA7hkR+BdY+Uv7N78AOEK/QZks7utPFoHuHDkBKHtuXGL5Fh7jAwDTs+GJnrCIrJo08cTAn7wKgOvsaFQWihcK0f5Z+Wuq8PcS+lLhn1L690lJJScmZlRt4BMDACzHHHvlmKicSru4NfDaoALgHHu9Ei3OCUSL2wOs/KX9G1IAnJf3vYT+EALwgZizE5IrHrQ9dHIUnxAAYHmm20+Ni9hWaVevCAwmAEIUeqdGiRa3B6ILWmj/tH/9H/0TB/mmZNYpU9Iqhgx9T+E/MbH0ZbGYJ2d0bPE8Pg0AICSZl3hqdMTWqvSFOVW/HVwAXEY8PRAtDg1G72yl/dP+g9f+xfKdKRk1ypTUCmVKSlnfSAuAeD2vmKNc4gcAcOXeU9fN31r1TdH0fz5o+LuPuEWwQMgA7d8YAmCp9q+2/K31ypT0qn6B7z6DBn9K2V8mJZc8NTGl+BO8pQ8AYAiECHx6QXZNnQj4D2QkYIFjapQF9gYhA02GEgDav4kEIKdJmZrVoEz10PJ9C/+y1yYnl/9wQmrZHarY8hMNAOCrCGyrWRi5reqICPfXBg9/9xEysL33ykAB7Z+Vv17Cvy/wa5Wp4vn8qallfSMT/q4CIB7b+4N6gl8c5rud0AcA0Igo+8lR87ZVfSsqq7pDhP7loQXAbXLqlKgdZ5Wo/POs/A3l9p99Tpm61XPgDy/8y/5T3NMvHJ9afguX9wEAAkyEvWZFVFZNoQj23y2QFICobVVXR1wdiBK3CqJym5Soggu0f6uu/BWH9qZln1GmiXv40zKqRbBXeA18aQFILXtXhH7TxJTy1AmplYv5aQQA0AXlmnmZtXdEbqs8HbWt+i1pAXCfnFpxdaDRIQSRImRZ+WvG9q+G/VllmricPy2zRpmWXqlME0HuOn6E/2+mJJWdFO/hv4e38gEAGAz15UJzs6ofjMyqqhKB/7Z0+LtMpHOya5XI7Q1KZO45JTKvhfZvtPa/vUmZLsJ+ujPs0waG/XDD3yEAqWV/n5JSXjMppTxpfHLlMn66AABMgvqCIYcMbKsuFQLwhs8CMGCqlUhxhiDS3iikoEmJEFJA+w9C+xetfrq4Zz89q1GZvrVOmS4u408XzX56WnnfDBX8UgKQUvbW1JSKJvEa3tzJ6SW32uz2a/kpAgAwOTH2l8LnZFXeJa4MnBC3CX7je/j3H7HUqHeqlQhxpSBie6MSYT+rROQ2KxEiqGn/PgqAuHw/Y/s5ZUZ2ozIjq16ZsbVWmaEGvXi7nmvQexo/wl80/NJ6EfjbJ6WXf8hmbxrBTwoAgMWZlV0XMzeramvk1spmIQRvD18AvM0VMZif06DMF3IwXzx5MF/Iwfy88wEXAEOGv71ZmZlzTpkpDuPN2NYgQr5OmSEu28/IqFJmiJCfIYLcfaZLjqQAXJ6SWv7KlOTSf5+UWhE7eWvtak7rAwBwdSB8XnrN7fO3Vh+M2FbdIwL8ff/C/8rM31rpZcTfy6pR5mfXOQRhnjrbzyrz7OeUeTualXlCFOYJUTB2+28R06zMEv/Ns8R/+6ycM8pMEewzRXufKcJ95tYaZWZmlTIzo1KZmV7ebzyFveYCkFb+J9HwGyenVeRPSqz4/PjNJVP5nQ4AAIOiHiSclV5x+5yMqt1iN8F5EfqvaysA/WfeYCOuJMzbViOmVpmrjpCGudn1ylwhDY7ZfqZ3zvbNnEHnjGNmi8Cene2cRjENvVN/ZbbVialVZokgn5VZLaZKmSXa+ixx7118bQaMe8h7mwCE/yVx7/7X01IrqienlO+clFh595S0GpbqAACAFojHDO21q+dkVG6Zl1n59PzMqhdFwL8b8PB3mbmZcjMns0JqZmfIjaew100AUsv/PD21tF2E/XemplXGTc4su43H8QAAILiIA2Ozsiuun5NeuXleVtWTIqTb5mdV/clKAqBT+P9TBP1/icCvnZ5acWRyavm3xSG9j4jH8Kbxmw4AAAzLrMya6TNTyj4xe2t1/NytlY+JUG6ct7Xqv0XYv0v7d8x709PKXp2RXtkpQv70jPSKfVPTKh6Zklj6qYkpFQs4mAcAABZDuWamCDhxG+FTszMr/3X21sqdczMqfjA3s+qc+OPLQhJeE2F/ycTt/58izH87M73yxRnp5Y3T08t+Iv78oLhHnzItvex+9bn6yemVETxbDwAA4I64rSBuKUTMyCy5aUZazRfEKfpviYN36bPSq/fMzqx6UoT3T2dnVFbPyahoFfOsmJfFX/uVkIjfzcmsfE3MG+Kv/VP8+Xvir19yC/7L4u9/IP7590XA/3N2ZsWbs9Mr/iZk5E+zMip+Oyuj/Fez0yt/If7e8+LP22emV5wRUzEzrfzHMzOqnpiVVnlgWnpFzvSUyripaaUPTkuvunOquAUyI7V0ofrCJb55AAAAAAAAAAAAAAAAAAAAAAAAAAAAAAAAAAAAAAAAAAAAAAAAAAAAAAAAAAAAAAAAAAAAAAAAAAAAAAAAAAAAAAAAAAAAAAAAAAAAAAAAAAAAAAAAAAAAAAAAAAAAAAAAAAAAAAAAAAAAAAAAAAAAAAAAAAAAAAAAAAAAAAAAAAAAAAAAAAAAAAAAAAAAAAAAAAAAAAAAAAAAAAAAAAAAAAAAAAAAAAAAAAAAAAAAAAAAAAAAAAAAAAAAAAAAAAAAAAAAAAAAAAAAAAAAAAAAAAAAAAAAAAAAAAAAAAAAAAAAAAAAAAAAAAAAAAAAAAAAAAAAAAAAAAAAAAAAAAAAAL7x/wGr8rr4h0l4pwAAAABJRU5ErkJggg==;" vertex="1" parent="1">
          <mxGeometry x="930" y="350" width="42" height="42" as="geometry" />
        </mxCell>
        <mxCell id="QThOkOYovAdt5dILF7DS-37" value="" style="group" vertex="1" connectable="0" parent="1">
          <mxGeometry x="350" y="250" width="160" height="80" as="geometry" />
        </mxCell>
        <mxCell id="QThOkOYovAdt5dILF7DS-2" value="" style="rounded=0;whiteSpace=wrap;html=1;" vertex="1" parent="QThOkOYovAdt5dILF7DS-37">
          <mxGeometry width="160" height="80" as="geometry" />
        </mxCell>
        <mxCell id="QThOkOYovAdt5dILF7DS-36" value="" style="shape=image;verticalLabelPosition=bottom;labelBackgroundColor=default;verticalAlign=top;aspect=fixed;imageAspect=0;image=data:image/png,iVBORw0KGgoAAAANSUhEUgAAAWEAAACPCAMAAAAcGJqjAAAAyVBMVEX///8TB1QAAEgAAE4RA1MAAEmxrsMAAEsAAFO8usv19PcAAE0HAFD/ygDnBIjV0+BjX4cQAFMAAEFqZY2Sjqvu7fIAAEQeFlhIQXfNy9l8eJoIAFXl4+xuapGhnrXmAIG4tsT/4o3/2F3/3XUzLWTrO573t9j+9vr2rNNua4opIGLe3eZUUHhcV4Gsqb5GQXCGg6EcElovKGQ/OG+Yla88N2oZEVbEwtFQSnt5d5P/6qowKmP/11Z2cpb/5pmIhp8AADr84vD1p9HTtONsAAALYUlEQVR4nO2cfX/iuBHHsWwjsNSCATvhIXTvjl67PAUCOdhLub32/b+o2pZGtiUTA4k2n6bz+2sNWj18JY9GoyGNBgqFQqFQKBQKhUKhUCgUCoVCoVAoFAqFQqFQqM+mSOmje/JJFYxbYyHa/ui+fE4FrVCKIGErClqeI4SE7QgJ2xYSfquGX0DDyu+R8Fu1iolQb1X5PRJ+q7quBOj2K79Hwm8VErYtJGxbSNi2kLBtIWHbQsK2hYRt61MTjr5KbT6wE5+a8MRlbiq6+8BOfG7C4zDrOr//wE4gYdtCwraFhG0LCdsWEn5nHboPUl3xgU542IcCD0H6jISvVLPnSvXEBzrhNhRgLhK+RU3iADDxgUEYCngtJHyLDMKrXvmeDgm/UQbhaCKz0iYiL+29CAfD6cNquTpNO68UWqxPSZn+fhhcWOtw310tu6Mvi+qvo8Omv0y+X8vvzxMe7rPerV/rXarDprt8fH5c9gfDC/P2DMK6biXcYXepfptlT4tTSKnrcpdROt+f4beeUZ+5nLvU512RSzAKs1rcpigx4NljKAI30chJKk3KM8IeDxVd6Lokq4/5bD5NGz1DONp4vuidT8ebSfbZ/LesKVLs62TjZBVy0cdj8zUAIHuE4yy5jXvpCPo9FkI7XujTdVVDLuFQtRO6vVU60q9MpMgBYZo9sm/pwzQuVMqN5IPJseeq7x3up7NUTXgQ00LvWJzOXxDyrKlegfC+MIq0j5zQTf1CtkeYyG4kb+CWOSWF8YNRfhSH5UJuK6l/JfZdXxEWX31NZu1IvFJ5WkZ84G65vrTRKsLRPSkXdPzZpBFxUbJA+CH2tIKOF48+nLDHGm3G9Z45/lEr3teHmSAh68aRVxHmq0b0xPTyfnG0bT/Uv3f81cIzCFdU5LjbxcT1NMKbvIc5aVJhnH40YX4Qr2DIE0OXd01bcUXAYeJ8Z//Fi5v31YTvG0/aCs2K53lgB5IDzlrOHtnLnaMRDgoVeaogn7e5RvggV3DICGXU97PBhHxyPeHffwL9/h6EHWeb9NlzyXzVXT2z3OCRQaHwNFY4GH1JSr5Q5qVDvvOqCIe7U/oPz6UxIbltdNWLEbXyD4lz7HYfW346V/BpTnilVnBI+XO3u9ySFDmHkorwTsw1b40Ow05n2Ow/UxryWS1gk/C//gL6+X0IJ30N/ZPwvxaDMSwZj+Qe1kQNiLujTloy6GxoMiRPtqURTsql7OjDdNFpb1pqFcawonJu8aqdbUaT6Qz+b5FwU01t4m1k/zs6rNL1D4MEwpOeHEzuzi0G894Ft1EG4Z/fm3AyHp6/vtE9DDRfcY0TAHHnOfbFPH9/DcKpTejLfTzaQUE6FZ8MgVtIpqq+4FToERAew9SSbr6lNQs2HAh/IaUWZJWDejP8IwiHrZJLo9ZXD5bDAoryp6L3GbyoHdIkHLLc4wvmYXnS5P7oeLREIN+rgPDUh7kp+QSd3GsAwlN6wZgrZZ+w55cTkRUPdpKfALfQLe8bC+XPGoQ9UvT21xJUOBb/j4Fx2Zf7dITFDoSf5VRwzbWZKipAeC1aZvXemS77hI1OtYHHXPb+ToIkU62kAmoQLlc6kRu/x7Ia97IUf9HqAxcMCC/gdYr1Uze8BYpw05ct6H2slXXCHjNiBrCl+8JMLHqS+FY/TQdgTw3CcbnoS1hsaynxEONU++CWCIORcI1kdDVqIAym3aNV5/PXZJ2w/gI28jUmtw25PHKrkavvVhPW3wtYcjSds2gMvI36DtApQRiAmyOJwJQpb01ZLE7Ianom0lQl64TpwPgKxukKpBt2tj5p/QzCvrY6IahNU5M/ic+tzMakfKbbwWI3Q1HyuJ4T3sOmmNZM4+2o+mcupqz7wxXnykiaBbdbHIzHzMjhkFQT1psGdy/bVGEC2XezV3JrE4QDudjDJ7MgTLsiHNyVzv7J0W5XFb8yZRD+4xfQH9lzO5Y/AeX8JsJ+xVzL5cAfsyd5MvZa5gkUlmMd4VGRMAyJ7o36wJwIwpHcICsMGXhnhbhERw+vcDKriyY3GpfEJe5mUvN3IwwRrllW4yuEgwvX8MWE5ftST1ieMIqxtY6jx4h47wL3uJawMehrCVdsvbIK/pw9SS/V4+b2Ed2yhtuvEF5WWYmqOyXYfovx4ahLtHiTd8EJxDph8sX8Ttphvsye1DZlvnOLWwgPX7HDjyXCW2mH52bBvWElUg1XPb8YIbwkuGadMDODIx3Y7MVt9uC8L9G8xUqA8eamLxHdlVbt43lfoq/7ElDDujtnhXhehYt5ZgzWCMvtrCjYRaQjp/xh80SqyF1DOArP+sMd2GMF4a/gDxuWLJjp/nBBk/boCeLP8hj5iirumkHVV1BXn+lcw7wqN1RsgupM92R0FqKaVxHOz3RGB8EHk4TBFLjGpRZYmkrCKYWmIxuJ6/yJiowU+SdQ3pi3dj4uAb0PHTmHEEI0TrlrqOM6whuIS+ivD2xtQBiWtEP01aTycs4QThayNOK1e10FYen/MkH4178r/SPr5dXRS6LNMixhdeaClRU65eEoIFcS7lCvupiKQ4P3APFRpi3igwrMnyUMvb6FsHyWa/jXv/0VdCNhfldaISMVvTnoRVlpbwrym4rrCKs5DMclC7VW3IBwHrwrhczyOxdFODIGK03MLVbivQmXbi7ymwaen1WX6pJilS+ZaJlfaFxJWA2Ke4U9bG/ecUSw2r1i+GS4zU9vQPjw50o7OonDi0ev3uksEHY4h8yNw5PC1ssHr/YVh83BFjfHBe/+SsINFUMIfWi5s/Q9df2mzhgbsMSef5SLMchuCHXCA+r6x2KrazE50qf/UMJheuvNevP+fvrQIqrztOhIqoE6IXGTgvsuy9whvr2NcEdlq3gsvv8+nY62cXaFLBHnp7gn1SEet0bT6ff7Hsuu6TXCieHxOCGn9TAKgmDShHwYUhv+sU44fArFZLuMFrKc2GPp7drlCzZMCjJxGRHvq/MlagkXroGSlhml4ojAlvJ0kxNe5CY3aTkpyMW/BmEpXyIQPrbn+qRHWiSGlcLrf5hnnbB7Wuv5UulYn8r+UTSvyjDZwKnrasLFDJ280Vm0ViktoENFclBImlrOz7BYnVcoWB9ds0/4odGMtbhfSHb6/hDtfC0rjMf7ZDu5lXBj0zMaTV4bGTIrxnqGxDVabqurP0m4M66YCIf3Lsi+/BGEG4sdKQw3ZK2KqFdyTmCFkXIyS2l9db1Uee6lJ54NwuLzYqj08FSEElKeegsHkpVzi9G0ycovTgYnu0VmFrKSyh+ezolbhhz6d5fcc1xAWOlmwkkzR+K7ab4oZ2Q8qo5HLfoulPHJo9hBTqyVShH2W+JZJ0zl58UhB/u7mKVmNrGvsSPSgg8kK+eWzWf7MaaZPU5LPoq2xjwrWThxHB44YXCrzVm8PZcHXVYt4X//558g0e+bCKdpTaf77Xh+3LTPp9xG0/58PN7uvk1hDgKZkB+UHyNtbEH1n5MNDt92Y+JvC0n1Z/7ubGewdGiP3T2oO86qglF7cGzFvTjukdm39oV5+rWEdd1K+PMomOgT/KqQsG0hYdtCwraFhG2rlnB0GIKyZyR8pep/dfun/I1oTG7Kl0DCtYTfmFWFhHXCq5gKxSKrzCDMGPyYHwlfIoNwewoSAA3C6u9NdF89lSNhqat/T3epkLAUErYte4RlVqx+Uf5/J3uEx/NM29rErk8ua4QbAegdevm/LHuEUUJI2LaQsG0hYdtCwraFhG0LCdsWErYtJGxbSNi2kLBt1RJuwj0dqfhdH6petYT1u2bUlbr6N6GoK4WEbQsJ21aTyJ+AhkjYjppU/ox5TD+6K59UKnvcSAtHoVAoFAqFQqFQKBQKhUKhUCgUCoVCoVAoFAqF+hz6L2JcBXZHnfn1AAAAAElFTkSuQmCC;" vertex="1" parent="QThOkOYovAdt5dILF7DS-37">
          <mxGeometry x="4.47999999999999" y="8.5" width="155.52" height="63" as="geometry" />
        </mxCell>
        <mxCell id="QThOkOYovAdt5dILF7DS-49" value="" style="group" vertex="1" connectable="0" parent="1">
          <mxGeometry x="790" y="470" width="185" height="100" as="geometry" />
        </mxCell>
        <mxCell id="QThOkOYovAdt5dILF7DS-47" value="" style="group" vertex="1" connectable="0" parent="QThOkOYovAdt5dILF7DS-49">
          <mxGeometry y="20" width="160" height="80" as="geometry" />
        </mxCell>
        <mxCell id="QThOkOYovAdt5dILF7DS-44" value="" style="rounded=0;whiteSpace=wrap;html=1;" vertex="1" parent="QThOkOYovAdt5dILF7DS-47">
          <mxGeometry width="160" height="80" as="geometry" />
        </mxCell>
        <mxCell id="QThOkOYovAdt5dILF7DS-46" value="" style="shape=image;verticalLabelPosition=bottom;labelBackgroundColor=default;verticalAlign=top;aspect=fixed;imageAspect=0;image=https://seeklogo.com/images/M/minio-logo-4B2D780928-seeklogo.com.png;clipPath=inset(27.33% 1.67% 29% 2%);" vertex="1" parent="QThOkOYovAdt5dILF7DS-47">
          <mxGeometry x="5" y="6.009999999999991" width="150" height="67.99" as="geometry" />
        </mxCell>
        <mxCell id="QThOkOYovAdt5dILF7DS-48" value="" style="shape=image;verticalLabelPosition=bottom;labelBackgroundColor=default;verticalAlign=top;aspect=fixed;imageAspect=0;image=data:image/png,iVBORw0KGgoAAAANSUhEUgAAAgAAAAIACAYAAAD0eNT6AABA2ElEQVR42u2dB3hc5Zm2B7Dk3nuTZLlb7jaYmt6AkIQEkgAh4U92+TfY6t2y5LGKuy1XWmKckLax1XuxLclWtURN2CWb5U82bHpIQgmEYp//O2ONPBrNSN9ozswpc9/X9V4ssBAsWfPczznfOa/NBgAAAAAAAAAAAAAAAAAAAAAAAAAAAAAAAAAAAAAAAAAAAAAAAAAAAAAAAAAAAAAAAAAAAAAAAAAAAAAAAAAAAAAAAAAAAAAAAAAAAAAAAAAAAAAAAAAAAAAAAAAAAAAAAAAAAAAAAAAAAAAAAAAAAAAAAAAAAAAAAAAAAAAAAAAAAAAAAAAAAAAAAAAAAAAAAAAAAAAAAAAAAAAAAAAAAAAAAAAAAAAAAAAAAAAAAAAAAAAAAAAAAAAAAAAAAAAAAAAAAAAAAAAAAAAAAAAAAAAAAAAAAAAAAAAAAAAAAAAAAAAAAAAAAAAAAAAAAAAAAAAAAAAAAAAAAAAAAAAAACHDgp1tD37hey8og83nTz4vNZ+TnLue0nY+e2Lg8J0FAABAAAAAAMAXAdA6/LUWAE/hjwAAAAAYTACC0f4RAAAAAD8EwKztHwEAAACQEIDFu9sUT7NIchbukptoyVmws1VqogYZvrMAAADDEACtwx8BAAAACEEBCGb4IwAAAADDEACzt38EAAAAwAACEOzwRwAAAAB8FAArtH8EAAAAQGcB0CP8EQAAAIAACIDR2z8CAAAA4IMAWKX9RxYgAAAAAAgAAAAAeBYAK4U/AgAAAIAAAAAAgCcB0OvRv0CFPwIAAACggwBEIwAAAADWEAC9Hv0bTvgjAAAAAEEWACO0fwQAAABAAwEw+ot/3MMfAQAAAAiiABil/SMAAAAAfgqAGV77iwAAAADoJABGCn8EAAAAwA8BMGv7RwAAAACCIABGC38EAAAAYJgCYOb2jwAAAAAEWACMGP4IAAAAAAIAAAAAMgJg9vBHAAAAABAAAAAAGEoAzLTyFwEAAAAIsgBEIwAAAADWEACzrfz1NhEIAAAAgPYCYPT2jwAAAABICoAZV/56C38EAAAAQGMBMEP7RwAAAAAkBMDsr/11D38EAAAAQEMBMEv7RwAAAACGIKKg7WsIAAAAAAJg+vBHAAAAABAAAAAAGI4AmC38EQAAAAAEAAAAAHwVADOGPwIAAACAAAAAAEAgBMBo4Y8AAAAAyAhATrXiaaKz5WaB5ERtq5KaSMmJyPI+fGcBAAAMIADBDH8EAAAAYJgCYOb2jwAAAACYSAC0Cn8EAAAAYBgCYPb2jwAAAAAMQdSujqjIXa0PBHLm5Qd/+M4CAAAAAAAAAAAAAAAAAAAAAAAAAAAAAAAAAAAAAAAAAAAAAAAAAAAAAICBWLa/4xtf/eHPFG/zFcn58g9elJp7ZedpubnH0/zgxcuyv/6Fu9u//qXvv6A454uSc7fsfG/o+YLkfP7k81Lzue89L/3rV3cB3PXU84oW89kTcnPnieek5g7Juf27A4efbAAACwvAPRoLgB7hjwAgAAAAhhMAU7Z/kwmA5uFvcAEIRvgjAAAACIC0AFim/eskAEZq/wgAAIAfAmDa8LegAPgU/hYQAH/DHwEAAJAUgDUHOxX3WX1AblZJzsr9HVITIzkr9g0y+zt8EoBle9sVmVkqOUv2yM3i3W1Ss0hyFu7qnd1tPglAtPhnPM2Cna1SEyU5kQVyEyE58/MveB1+sgEAhiEApg7/EBWAvvA3uQBoEf4IAAAAAqCZAJim/WskAGZu/wgAAMAwBMD04Y8AWF4Ahgp/BAAAAAHQRABMFf4aCIDZ2z8CAAAQIAEwdPiLWY4AIAAAACAvAJZo/xoLgOnC308BsEL4IwAAADoKgG7hjwAgAAgAAIC8AFim/esgAIYKfz8EwCrhPw8BAAAwtgAEJPw1FIClCAACAABgZQGwVPs3qAAELfwDLABmCH8EAADAAgLgc/hrJACmbf/DFAArtX8EAABAQwEwTfs3oAAENfwNIAB6hz8CAABgcgEYVvhrIACmbv/DEACrtX8EAABAIwEwVfs3qQBoFv4mEYBAhj8CAAAQAgKwXGMBMH37D5AAmKn9IwAAABoIgOnav4UFQCr8TSAAgQ5/BAAAAAHwSQAs0f7VR/o0FgCztX8EAADATwEwZfgjAJYQAH/CHwEAAEAApAXAMuGvsQCYsf0jAAAAfgiAacMfAQgZAZiHAAAAIAD+CIBVwl9rATBr+0cAAAACLACGDP8QFoBoBAABAADwRwBWIQDmbf8aCYCZwx8BAAAwgAAEPfxDVACiEQAEAADAHwEwffvXUQAM0f41EACzhz8CAABgEgHQNPzFLNvXrqkAmKr9IwAIAACArwJgifavkwAYpv0HSQCMHP4IAACACQRA8/BX3+qnoQCYrv37KQBRCAAAQGgJgGXav4EFICjt30ACoFf4z81DAAAALCEAPoW/hgJgyvbvhwBYpf0jAAAAkgJgqfZvcgHwu/0bRAD0DH8EAAAghASgL/w1EgDTtv9hCoCV2j8CAAAgwZK9XV+3VPtHAEwjAIEKfwQAAAABGJYAmDr8hyEAVmv/CAAAgEYCYKrwRwAsJQDDCX8EAAAAAfBZAEy19EcDAZiXKycAZmr/CAAAgAYCYLrwt7gARCMAQ4Y/AmBuptg7J4zb1rKcrwQAAhA0AbBE+w+AAJit/SMA5uWWE63jbzn+zMUPPdbz7o3Hugs+Ym8awVcFwMACYKjwt7AAREvOgl0IAD/Z5iPK3jTqlqMXOz78WI/inFuP97y48UD7Or46AEEWAFO2/2EKgGXav8YCYMbwRwDMR4z9pfBbjz/T7Br+H3r0ytz2aM+7m4717ORqAIBJBSBo4W9RAZAOf/WtfggAAmAi1GC/7Xh3vWv4uwqAc2453v2zDYUd6/mKAQRYAEzb/gMoAKZo/xoKgFnDHwEwEXb7tbce764YKvz75rFnuBoAoKkA5Ncr7rMyr05qYiRmRa7cLN9RKzXLhprcWp8EYIm9RpGZxdvlZlGO3CzMqZaa6Gy5WXB1fBOAbVWKp4mUnIgsuZm/tVJq5knO3Ezvw0+2GVCuEa3+lHv4L9vboczOvaBsOnLRqwiIswHPbHq8czFfQwCNBUDL8A81AdA6/PUSADOHPwJgDm4+evFJ9/BXrwJOym5WJoqZlNOsXs1TzwB4kYCLb9xQ2HUfX0kAkwuAZuHvowAs2Nn2oMXaPwKAABie6w91PuIe/uqtQmf4u463qwGqGNz2WM/lm472HFKvJvBVBfBTAEzf/k0gAAFu/0ETAKOGPwJgbNYd6VwhDv297Rr+qw5cCX9PAtB3NWBv/6sBt7nMLcd6mm599MXJfHUBLCoAyyRn6Q5tBcBk7d9vAYhEACBgOO7797iG/5qDnYOGv+vM2nHlasBtbgJwm+OWQPcrGx/tXsrXGECSZYXPRS3Z3/mgnrNoT5vmI/vrj9rVEbVgt1iJG8SJ3NX6QKBH9tc/O78tcl5+6wOBmjkFrffrMfxkG5NNx7oTXMN/rQj/yTnN0gLgvBqwvPdqgIf566bjnR/lKw0AAGAQVu26MPm24z1/c4b/+kLfw1+dCduaHKM+Cnrzse6BEnC85x0OBwIAABiEG492H3WG/41HLypTt7f0hf9wBECdaeLfsfGwp1sC3R9cf7TnEb7qAAAAOrK88Pxs0cwdB//Eoh/HyX5/w9856j+vPkHgdhVA/ePlG452ZfHVBwAA0IlNh3uOO9v/0r0d/cLfXwFwziLxJsx+AtA7Nxztzuc7AAAAEGSid/dMFEH8lhr+m8Slf9f7/lqFv+u5APFIYD8BUEfcDtjJdwIAACCIbCzsynK2//liJ0Qg2r/rzLCfV2462j1AAoR85PLdAAAACBK3HOv+tRr+Gw51BTz8x2ddGfVw4KYjHiUgg+8IAABAgFm9t/0zzvY/J+9C0ARAnSniVsP16hMC/STgmUvXH37mYb4zAAAAAWTT4c4i5zP/wQx/50wW//zGQ/0lQLwx8P0bDnfdzXcHAAAgENibRt3ae/hPPZynhwCoo/5vbXCRACEAingd8VvrjzxzI9+kECfmQMdDD/z454o69//oZ1Jzn+z8cOj5quR8RXK+/IMXlS//8EXpd8GruwDuFf+M13labu6RnC99/wWp+aLk3O1pnn7Bp10Ad39P/DO98wWJ+fzJ56Xmcz7MXU9pOCef92kXwJ0nnlMGmzsk5/bvajuf+Y7cfPo7zw4Y2V//zNzW+z/15LOK63xS4/nEE89Izccl52OPDz1G+GxdV9j9oOPkv3h3v3v4TwpS+LtLgBr+zrnleM8f1x17NpIURAB0Cf9QE4CghL8fAvAFnQRA0/AX89mnEIDhCoAVwt8oAnDTke4yVQAWiufz9Wr/A24HHO7qLwHHun++4YmeMSQhAmBYAfAp/LUUADO2f4MIwOcsIgBmDH8EwAACYG8aIQL2DfWlPFNyWgIqADLhr844VQLEwcAbjvS/EiBeS1xOEoawAFiq/ZtcAPwO/2EKgGXa/wkEYLgCYJXw/6gBBGDl/s5Pqu1/1YEOQ7R/pwCoo+4gUHcRuErApiOdOaQhAmBaAegLf60EwKztHwEIugAYLfwRAP0FYOPh7iN6H/7zFP7OUV8WpG4SdJGA99cf7foYiRiCArBevKBiqFlXKDfqfmuZWSM5qw/IzSrXOdjpkwCsFIs03CdGclbsk5vlkrNM7PkeapYONfvafRKAxbvbFJlZJDnqPU+ZiZacBTtbpSbKObtafRKASPF2Nk8TITnzxYe8zMyTnLl5cjNnkPFFAGbnnlfUmbVj6JkpOWrAyMx0e4vUqC+2kZmpvaP7/f9jF58TJ+0D+trf4bR/11F/n7idB/j9uiPPTicVEYCQFgAjhz8CYE4BCGb4D0cAZMIfAZBjur1pnFjH+776WWK0y//uE72zzVUAFHFwsZ5URADMG/4IQEAEQOvwXxio8NdIAMzc/vUWAL3DX28BWLm3/bPq5f8It/f+Gy38naN+RjkFQB2xOCieZEQAQlIATB/+JhGAaAQgYOHvqwBYrf3rLQBrD3ft8XT636gCMGFbs+Nz3ikANx3rfmvt4c7FpCMCYL7wRwA0FwC92r+sAERpLABmb/9mEIBAhr/eArDpSNdZ91f/GjX8nTM5u8XxwiKnBIinBDpIRwQgpATAEuEvZsleYwtAQNu/xQVgjk4CYKb2r7cA3Hys549LdrebSgDGbm1yHAR1CoDjVsCRnjgSEgEwV/gjAJoKgNHbv9YCYIX2b3QBCHT46ykAM+1tMz4k7v/Pzr1gqvB3zpI9ba63Av5+/fGLs0jJEBUAU7b/YQqAZcJ/j7EFIODhjwA4mpyWAmC29q+nAKzc13bnrW6P/5lJAMZn9T8PsOlo97+TkgiA3wIQtPBHADQTAFO2fz8EwCrt3woC4E/46ykAawsvZm4Qn51mDH/nqF/Xm/tuBfRc2nC451aSMsQEwLTtP4ACYIrwN7AABCX8Q1wAnC/10UoAzNj+9RSAGw51fX/Z3g5TC4A60bta+64CCBnoISkRAHO0/2EIQAwCYJ32P0wBsFL7DxUBmGpAAbjxcFdb5M5WXVb+ahX+6qh/33krQL0asLGw6z7SMkQEwNTtX2cB0D38DSoAQQt/BEAzATBr+9dTAG462vWq+ms1c/t3jvrrcArAjccu/sJmU64hMRGAgAiAZuEfIAEwTfsPogAYsv0PQwCsFv4IgE4CYLdfK3YAvK/3yl8twt85S8Xnyc19VwG6v0liWlwATN/+TSAAAQ1/DQTA1O0fAdBEAMwc/noJwBx7a8T1h7ss0f6do/5v3yBeEMRVAARAdwFYJTkrD3RoKgCmav8IQEAEwEzhjwDoIwBLdrfeuupAh2FW/vob/mO2nnNMRH7r1asABzu/SmpaVAAs0f4tIgDDDn8/BcD04Y8A+C0AZg9/vQRg7cGu+9VL5lZp/04BGJt1TlEfbXRcBTjS3UVqIgCGFQDHW/00FADTtX8EQDcBMEr4IwD6CMC6wo4k9fefkQXA1/B3zpy881evAhzpvoHktJgAWKb9h5AAeAx/PwTAVCt/BxnxGJamAmC29h8MATBy+OsmAIcv7pq144Kl2r/rrC+8chXghsNdPyI5EQDLC4Ap27+BBCAaAdAl/P0RgJkIwLARBwC/M1WsADa7AHgKf9erAOq64KV7WseTnhYRAEuFPwIwLAEw3cpfb+FfoK0AmLH9G0UA9Ap/vQRgQ2Hnaau2f+c4zwJsOHTxEdITAbCsAJg2/A0iALq1fwsIgL/hP1wBsEr7nyIW8ejxWbr6YEetVdu/c9Tf66oAbDpysZX0DCEBME34IwA+C8Ais7/4xzX8NRQAs7Z/IwiAnu1fLwFYvrftvJXbvzrqv0t9L8CNx7ovbSjsmU2CIgCWEwBTh78BBEDX9h8iAjBY+A9HAKzU/vUSgCV72y5aXQDUWSg+C246Km4DFHYlkaAhIACmCn8EICACYPT2r7UAmLn9m0UAAtX+9RIAsUHvBauHvzrqi45UAdh09GITCYoAWEoATB/+OguA7uEfAgIwVPj7KgBWa/96CUBUQevLoSAAozPPKavF57h4GuCdKHvTKFIUATBO+CMAmguAqdq/BgJg9vZvJQGYaiIBEL8n/jsUwl8d9fe1ehVg/aFnPkuKWlgATNf+gyAAhg5/MYv36CMAhgh/BMAnAZhmb7nfau1fLwEQz8n/OlQEQP133ygE4PrDF3+ibgnceKSr4IbD3U+LA4J14tZA96YjXb8QTwq8Kv74x01Huv8sXiH8J/HnvxfzKzE/F/9/HRsPd1dtPHzxqQ2HL+auLez6l7WFHR9Zsr9nGqlsUQEISvj7IQCWaP8aC4Dp2r+fAmCF8EcA9BGA2TtafmXGlb++hr9z1M9a9SrAwLkoNTd6GSEIr2081N258XDXd9cdufjtNQfa16mrlknrIAuAKdu/QQRAt/BX3+qngwAYJvwRAM0FwGzhr5cAzLR7FgCrtX/32wBaC4CbDPRO15viasN5kUu7Vx9o//iGJ3rCSG8LCoDf4T9MAbBM+0cAhi0AVgl/9VQ/AhB8pm9vecWsK399DX911P/mQIZ/fwHoP+IWwlsbCzsb1x3qTF5b+FwUSa6xAJi2/ZtIAAIS/hoKgCnDHwHQVACMHv5GEgDx3/KLUGn/zlH3yOghAP1k4OjFy2IPw0vq1YF1B7rWkOoWF4BBw38YAmCp9o8ABFQAzBD+oSQAnsJfLwGYlNP0MzOv/PU1/NURnzWOw4DiMJ/js3nZ3g7xGdTu+HmP2tnW7+dS/XPxeSP+Xqv4vGoTn5XtjscJVYnYNMzw770a0G+EDLwsDhXmL+PKwPAEwNTt32IC4HP4ayQAhl/5W6CtAFip/WslAGZt/3oJwMRtLc+EUvtXx/nvUf/vUZIzMsPzqP/tU8Q2RfX3sfgZdnyuqblwg48CcHW6L11/pKt9zcGOfxNnBsaQ9gjAsAXANO0/yAIQjQAYLvxDRQC8hb9uVwC2NbdZZemPTPi7jr/h7z7hGWf7ZmTmWfH1bHL8Hlc/S1a5SMENkiMOEL6+vrDzxMp9natJ/UEEwPThH4IC0C/8NRAAU6z81VAArNb+gykARmz/ul0ByG5uCKX2HywB8DTqv0v9Ps8TPx/q56S6pniQ8O834nZF2+qD3V/l0UIEQEoATNX+gygAhmz/JhGAQIa/FgJg5vav3y2A5lLaf+DD3zlh6VdH/XN1R4H6c7pCZMD1gwhAnwgc6f716oNdqav3vTAWAbBK+KvP9IeQAAwIfz8FwDQrfzUSgNn5rQ9Yrf0HSwCM2v51vAXwNO1fHwFwH/Xfo/6eUj+n1h7s8ioBV6b7r2sPX9y5ateFyQgAAmDu9h8kATBs+zeBAAQ6/P0VALO3f90EILvlqFUEwMzh7zojemfCNvXqQKuyan+nFwlQJaHrjTUHL+6POdg+JeQEwDLhjwAMWwBM+dpfDxOhsQCYrf0bSQD0aP/6CUBTHu3fmALgOmPF10s9O9BfBrpc5uLr6hWBpXtaxyMAISwApgz/IAiAodu/RQTAn/D3RwCs0P71EoDx2c1JoSQAZgx/91G/durP7uoDHW4S0KVsPHTxz+oZAUu/dtgXATBF+CMAwxIAy7R/jQXAjO3fbAIw1SICMCG75eu0f3MJgDrXpV0Z9Xujfs6sK+x0F4FXVu/vvMeyAmCp9q+RAJg2/AMsAIZv/yEkAN7Cf7gCYJX2P1kvAdjafDsCYM7wdx31r0/d3qwsFW8rvCoB4pzcoc6mlYUdyxEAI4c/AuCzAFil/WstAGZt/wiAPgIwJuPcBsLf/ALgOqMzr9wiWCOySJWADYVd764q7NgdY38p3BICsGx/xzfWFjQoQ82agnqpWZ0vN6skZ2VendTEuE5+nW8CkFunuM/yHbVDzjLJWWqXmyX2GqlZvH2Isdf4JgA51YrMRGfLzQLJidpWJTWRkhOR1Te+CcDWSsXTzJOcuZlyMyezQmpmZ8jNrHTv45MApJcrM9LkZrrkTEstk5qpkjMlRW4mJ5c6Ro/P0tFZZ+ciAL4LgFHD3znXpp1Rrks/4xDLJaJgOUTgcNcvVh1s/zACMAwBCGj4ayAAMuGPAFhbAMwc/giAPgJgszeNEI+bXbLSyt9Qbv+uAuA6o8XXKkJcFVhXePHS+kMXn4w53jTO0gJgqvZvMAEIevj7KAARBW1fs1j4IwA+CoDRw19WAJzhr5sAqOcAtjX9gfavvQAYJfxdJ0z8d6m328Qt6FdXHez8PAKgoQAMO/z9FADTt38EwG8BMHv4W00AfG3/OgvAs1Zb+Uv7H3yctwfEmaZ/X72vbYalBMB07d+EAqBp+ItZlKOPABgk/BGAAAiA0du/gQSglvavjwDoEf7OuSZVzJZiZUxc8Z/Hxpd83TwCUPhc1PID7V8P1izZ3/lgMEb21x+1qyPK+c8s2tOmyyzY3fY1rceXX3/krtYHgjnz8gM/8gLQFjmnoPX+QM3M/Av36TGyv/7J9taIaTua79NqJtvPf1WPmZjT8hXX0U0AsprKaP+h0/77wj+hSrnmkVPOqbEBAEBoMTm7pZn2H2LtP6VRhP7p3vA//U9bXNFifhIAAEIIRVHCxHsNXmXlb4i1/7jyvvZ/7SOn9/CTAAAQYjx06j9XzdjRQvs3qAAEpP0n11299L/59Ku2hyvH8JMAABBifOzJZ3fPyTvPyt9Qav9bSvoEwBZbdB8/BQAAIca9p9pHf/h49x/mF1yg/ZtYAHxq//0P/p3npwAAIAS58Wj3wdse7XG8N56VvyHQ/pPrXQ/+vW/bUraKnwIAgBBj4+HOz9/2aPcHqgA4zwDQ/i0uAC6X/q/dXHSMnwIAgBBjQ2H7F0Tw/0MN/1uP9ygTs1n5a/nwj69wvfT/J9vDpybykwAAECLccqJ1/E3HLh679dGeS2r4q6OuL6f9W1wAkmtdw1+xPXL6//LTAABgaZRr1h1tnaNe7r/pWPcJccn/787gd47zCQAEwKLhn9qgXLulyPWxvzb194XH3y5f+/HPFfd5QHLu/9HPpOY+2fmh3HxVcr4iOV/+wYtDzr2y87Tc3CM5X/r+C1LzRcm5W3a+JzdfkJzPn3xeaj4nOXc9pe189oTc3HniOam5Q3Ju/66285nvyM2nv/PskPOpJ+XmkxrPJ554Rmo+Ljkfe1xuPio7j8nNRx7rkZoPS86HHpWb2waZtQc7Of1vaQFoVK6NLRb3+/va/zu2LUXLvPricAUglMIfATBW+OslAKEU/giA9QTg5mPdytTtzT4JAJf/TSYAcaWu4a/YNhclDXrBiPZP+NP+EYDhCgDhb47wv0WE/8wd52n/GgiAYcM/ocIR/i4C0DDkHSPaPwJA+9dOAGj/CIDRBGDj4YvKdHsLW/+s3P4Tq9zD/7e2fyuZ4ZMA0P79EADaP+0fAbB2+D9urvDfcKhLidzZqrD1z+Jb/5Kq+8K/VwDes3379G1SZ0Y3Hu5SnKP+hpGZ9RKzrlBu1EMpMrNGclYfkJtVkrNyf4fUxEjOin1ys1xylu1tl5qlkrNkj9ws3t025CySnIW75CdachaIDz6ZiZKcyAK5iZCY+eItbDIzT3Lm5snNHMmZnXteambtkJuZkjPDLjdqm5UZsfFOaqZKzpScZqmZLDmTsuVmouS4B723Yeufhdp/Uo17+ItH/k5tkX5oJBDhjwAQ/oEQACuEf6gJgFXCX2sBCKXwRwCCE/6OeeT04z49NaqnAND+EQDaP+2f9o8A0P59FAC3y/697b9BbHu6zmcBoP0bRwBo/7T/UBOAUGv/sgJA+0cAPB/4Gxj+124+/Zy49D/O5/dGGV0AaP8IQKgJAO2f9o8AEP4eBSChcmD4byn6L6kT/x6XRBzqpP2bTAAIf9p/qAlAqLX/SYQ/AuAuAC7P+V8N/1P/I5b8RAx/S5QFBID2jwCEmgDQ/mn/tP9QCf/Gvjf8uYX/q7bY0oV+ronspP1bUACsEv4LCX8EQFIAaP+0f8sJgLrYp/fd/v3np7/xO/xV1hd2XgoFAaD90/5DTQBo/7T/UBMAS4W/WOmrbvXzcODvl35d9u9/BaDjA9p/aAqAVdq/rADQ/hGAqSEmALR/kwqAp8N+Vy77P2+L//FMzbZHrz/Y8S4CQPun/YemAND+af+s/DVQ+Kee8Xy/X8x1m4vP2tLKx9u0RJwB+AfhT/u3evtfQPgjAAgA7d/IApBcp1y3pdhb+J+02ZtG2LRmw8H21xEA2j/tHwEg/Gn/CIAe4X9GuS6+QoT8aU/h/4Ft80/TbYFC3AL4M+0fAaD9ywsA7R8BCDUBoP0HSAAcrb/EEf4eBOCvtkdKPmMLJOsPtv8OAegk/Gn/tH+W/kgLAO0fAfAr/FOvtn6P4a8e9tPiMb8hBeBA2/+w8pf2z8pflv7Q/mn/rPwNQvtPrHHc63cNf1cBuG5L0ZO2h06OsgWDdQfafkn7Z+Uv7Z/2T/tn5S/tP4Arf5PrletiSwcEv0v4/9W25fS9tmCybn/bi6z8pf2z8pf2T/un/bPyNwDtP7VRXO4v9xj8fbOlqNEWWzzPFmzW7r/QRftn5S/tn/bPyl9W/tL+NRQA9XS/eKHPoMG/+fSbts1F37bpxdp9LS2s/KX9IwCs/KX90/5Z+qNB+IvgH5GoBn/R4OEfe7rWtrk40qYna/ddqKH9s/KX8Kf9s/KXpT+0fz8EQGztU4N/hHh//4gtg7b+34pDgF+xGYG1e5pPs/KX9o8AsPKX9k/7p/0PI/xT65URCRWO0HeOl+B/T8jBQdsjp8bZjMKa3c1P0f5Z+cvKX9o/K39p/7R/HwRAbOsbEV/WL/i9CsCWolIR/ItsRmP1znOHWflL+6f9s/KX9k/7Z+XvEOHvvMwfW+wx+N3Df0RsUZsI/lttRiUmvzGP9s/SH1b+0v5Z+cvKX9q/hxGH+sKSa7y2fU8CIP7Yc11c2R02o7Miry6ZpT+0f9o/K39p/7R/Vv46Rw39WiUsoVwJ6z3UJzdFndfFFt1lMwsrCmq+ub6wk/ZP+2flL+0fAWDlb+i2/96mHyaavhr6YSLQnTNE8F8esflU7YhHfvpRm9lYtqP+LrEQiPZP+6f9s/KX8Kf9h9bK35R6JSyxSgmLK+0X+JLh/2ZY7OnHbfHlS21mZXl+443rD7TT/ln5y9If2j8CwMpfC4f/GSVcPLIXnlythPde2vcW+oMKwOaiF67dXBRnSysfbzM7MbtbI9bvv4AA0P5p/wgAS39o/9YRgLQGJTylRglPqlLCxWX9cHFyPzy2qG98Cv/Y068JYXgiLL5ok81KxNhfCl+/7zzhjwDQ/ln6Q/tHAMwZ/uLQ3khx/z5cPKLnKezdRyb8xbwl7u2XiGf4v2R7uCfMZlXW7Wt5EwFg5S/tn/ZP+2flrykFQIT+yLiiQUNfSgBii/4WHlfy0+viir5se7hyjC0UWLen+Tes/KX9s/KX9k/7p/2bbuWveFzPj/C/HLa56D/C4ooOjvh28Sds9566zhZqrNnV9Cztn5W/tH/aPyt/WflrqvYvTvKPjCvxVQD+n5gfiOf1v2nbUj7HFuqs3tlYx8pf2j8CwMpf2j/t31RLf8Q9/8HDv/jt8LjizpGxxUfDE0rvs/3bqbk2cBOA/Ian1x/qpP2z8pfwp/2z8pf2b472L075q+F/VQCKfyeC/tzIuOIjYfHF3wpLOLU2JC/p+/42wPqd7i8DYuUv7R8BYOUv7Z/2b9j2H1/aF/7iHn48ST7sfQD1sesPtNH+WfnLyl/aPyt/Wflr/PYvHvnra/9xRc/Z7PZrSfJhvw645q71+y6w8pf2T/tn5S/tn/Zv7JW/joN/xc72fykstvhGUtyf1wEX1K9cv6+F9k/7Z+Uv7Z+Vv6z8NXb7T6xwufdfcoIE1+JtgHubL9H+af+0f1b+0v5p/4YVgNSrB//EVYA/2751agoJrsXLgHaf+xPtn5W/rPyl/SMArPw1Zvs/23fwT52wuOKHSW6tXgZU0PgcK39p/7R/Vv4S/rR/QwqAy8G/UXHFHTabcg3JrRGrChrK1x3soP2z8peVv7R/BICVv8YKf3XZT+/BP/HH9x3P+IOG5wDyzhxaJx4FZOUv7Z/2T/tn5S/t31ACkFDucu+/5BiJrfW7AHLr49aJtcC0f1b+0v5p/7R/Vv4a59J/revBv9/Z0srHk9haPwq4o/6TYisgAkD7p/2z8pelP7R/YwhAWqPLpX/x2F986ddI6wCw0F4/Y93us4Q/AsDKX9o/7R8BMEb7jy+72v5jTzeT1IF8FHDnmdcRAFb+0v4RANo/S390F4CkapdL/0XvhceWrSClA8jq/PoXvT0JQPgjAAgA7Z/2jwAE59K/6wt/1Mf+SnaR0AFmZW5d0br9rbR/Vv4S/rR/Vv7S/nUSgP4v/BErfp+32ZtGkNCBPgiYV5O7bm8LK39p/wgAK39p/7R/fVb+JlW5tv93whMrYkjnILDUXn+PeCUw7Z+lP6z8pf2z8peVv8Fv/6n1/S79j4wtSiWZg3UFIP9s5LpdZ1j6Q/un/bPyl/ZP+w/uyl/Hmt8St1P/vO43qKzd2fiG8yAg7Z/2z8pf2j8rf1n5G5T277Lmd2R88d9GbS6OJJGD/SRAQUO38yAg7Z/2T/tn5S/tn/YfcAFIqet36T8sseQbpLEOrMpvOLlubzPtn5W/rPyl/SMArPwNfPg7Fv24XPqPO11CEuv2SuC6ePUgICt/af+0f5b+EP60/4ALQL9FP+Jd/5tLppLEuj0J0LBxbUED7Z+Vv7R/2j8CwMrfwIZ//7f9XR6ZVHkHKawndvu1QgDeXitWA7Pyl/ZP+6f9s/KX9h8QAXB/5G9L0ZMEsCEOAtY/s3bvBdo/K39Z+Uv7p/2z8lf78Hfc9y92fdvfL20PV44hfY3wSuD8+hNr9zSx8pf2T/tn5S8rf2n/GguA26t+44rfH5Fw6iaS1yjnAPJqvyXeB0D7Z+UvK39p/7R/2r+27d/1eX8x4bElBaSugViUd3ah4yDggXZW/tL+af+s/KX90/61EYDkWrdX/Yq3/YlzZ6SuwVhT0PgHT+cAaP8IACt/af+0f1b++hz+qf1X/Irn/f/XFntqOmlrxBcC5dbVeDoHgAAQ/rR/BICVv7R/nwTA/T3/8UXvct/fyC8EyqvP8nQOgPBHABAA2j/tHwHwqf33e9mPeNVvfPEjpKyBWZxbv+nKOYA22j/hz8pfBICVv4T/8AQgqapf+I+KK3qahDU8yjVr8utfX7u3hfaPAND+WflL+0cAfF/567bkRzzv/7ztoZOjyFcznAPIr29Y27sXgPbPyl9W/tL+WfnLyl/p9p/e2O9lP6Pii14blVgcTbKa6RxA714AVv7S/mn/rPyl/dP+5QTgrAh815f9FF0amVBxO6lqIpbk1q1RBWDNvgu0f1b+svSH9k/7Z+WvXPtP7H/oLzy+aAeJatL3AazZ3cTKX9o/7Z/2T/un/Q8d/kmV6kE/11f9VqtnykhTExKTV3t6jXgckPbPyl/aP+0fAWDl76CTXOUW/kWv2B4+NZEkNSnqXoA1BfXiNkAbK39p/7R/Vv6y8pf273lSah3hf1UAiv8RllSyhhQ1Mct2npkqBOCDNXuaaf+s/GXlL+2f9s/Sn4GTVu8W/uJlPwmlD5KgFmBlXn3PYLcBWPlL+6f9s/KX9h+i7T+9QQR/sZsAlBwkOa1yFSC3rsDbbQDaPyt/WflL+6f9h2j7zzgjHvcrcW//RRz6sxCLCxrWOgTAw20AVv7S/mn/rPxl5W8Itv+MK8/6O8PfIQCxRa222CMjSU2LsTq/4VfutwFo/wgAK39p/7T/UFz5K8I/ocwt/Iv/05ZQOom0tCArdtQ/7n4bgPZP+NP+WfnLyt8QbP9JFf3CX8zvR205tYCktCiLcms+7BCA3pcC0f4RAFb+0v5p/yG48rf3Wf++iS95IyyheD0paXFW5dX+fo36auCDHaz8ZekP7R8BYOVvqLX/lBr35v8e7/gPEWJy659QrwKs3nue9k/7RwBo/7T/UBKA1Dr38Fcf/3uYZAyVpwHs9R9yCMCuswgAK38Jf9o/S39CJfzT+j/rr054bHEeqRhytwEa/md1vpCAA+2EP+0fAaD90/6tLgDpA8Nf3Pf/PmkYgiyz1x50CMDuZgSAlb+EPwJA+7fyyl81/F1e9OOY2OJG272nriMNQ/E2QF7VcocAFDSy8pf2jwCw8pf2b9X2n944IPxHxxe/YHvk1DiSMJQPA+Y1POuQgL0XaP+s/GXlL+0fAbDayl8P4T8qvug3Y9LK55CAIc4Se3WSQwC8HAZk5S/tn/bPyl+W/pi0/Tve71/qftr/L+GJFTGkH9iidzdOXJVf/45DAva30f5Z+cvKX9o/7d8K7d9D+I9OKPl7WOypG0g+uHobIL+uyNNhQFb+0v5p/6z8pf2bsP17bv5vi/koiQf9WGSv/YhDAPIbRPB30P5Z+cvKX9o/7d+sK389hX980bsjkyrvIO3AI6vyG37hkIA9LbR/2j/tn5W/rPw1Y/sX4T/abbOf+orf8ISSL5Jy4JWlO2pTnY8ErhJXAWj/tH9W/tL+af8mWvnrMfyL3w+PL/sKCQdD3AaombCqoP4NVQJW7TnPyl/aP+2flb+s/DVL+xeP+o1OKFWf7e8f/gnlD5BuIMWK3LoTq1QBcFwFoP0jAKz8pf3T/g0vAOINfwPDv+iDsITSB0k1kEZ9M6AQgEsOCRAvBmLlLyt/af+0f1b+Gjz8xUt+1PB3EQDCH4b5SGBufcNQVwFo/7R/2j/tn/avswCk9Q//KwLAZX/wg4X2+o85BGCQqwCs/KX90/5Z+cvKXx3DP7XOQ/iL0/6JJV8lxcC/swB59c94uwpA+6f9s/KX9k/711EAUmv7Bb9jEorfDY8v/RLpBf6fBcipvs/bVQBW/rLyl/bPyl9W/uoU/ik1A8M/vvidkfEVnyW5QLuzAOLFQO5XAWj/tH9W/tL+af86CUBKlafwf3NUXOnHSSzQ9irAjrr/03cVoPe9AAgAK39p/wgA7V+H8E+u9BD+JX8bnVxyK2kFAUC5ZmVu/StXrgI0ON4OSPjT/hEAwp/2H0wBOKuMTqrw1Pz/GJZUsoacgoCxKLf+m86rACt3NSMArPwl/BEABCBY4a++2jexbGD4xxX/amRc0WISCgJ+FcB5FmBlnph97YQ/7R8BYOUv4R9oAXC82ndg+I+JL3ppTFr5HLIJgnMWwF59/8q8OsUxO88iALR/Vv7S/hGAQK78Tasf8Iz/lSltsz18aiKpBEFlRW7Ds30SsLeVlb+0f9o/K39Z+RuI9u94wU+xpwN/lbaHTo4ijSD4VwFyqj/ZJwDisUDaPyt/WflL+6f9aywAKdUew39MfPF3bXb7tSQR6Mby3LqGPgnY3cLKX9o/7Z/2z8pfTcL/rDJGnPQfMzD8L49KKN1O+oDuLCyoXynC//0rEtD/QCDtHwGg/dP+af/DEIDMM8oYcdJ/zJWm3+/VvqMSS75B8oBhWJZb+4SnA4Gs/CX8af+s/GXlr4/hL076j0koHRj+cSV/HZVQ8jESBwxFlL1pUkxe3V/6JEC8IZD2jwCw8pf2T/v3UQDEYT9n8LsJwCvhCSXLSRsw5oHA7Nq4PgHIb1BixK0AVv6y8pf2z8pfVv7KhL+4359c5Tn8E0rax6WUzCBlwMAo16jrglUBiFFn5znaP+2flb+0f9r/UALguN9fPiD8rwhA0Y9tD/eEkS9geKKzK64XAvBBjFMCdp9n5S8rf2n/rPyl/XsLf7f7/S5zaVR86TZSBUzFUnvt430CkOf9VgDtn/bPyl/af0i3/9Raj61/bELJG6MTi+8mTcB0zEypH7tiR+2rfRJQcIaVv6z8pf0jAKz87Qt/9X5/pcfwH5MgDvsllq0iScC8twJyqu6Mya+7fPVWQAvtn/bPyl/Cn/afoV7yL/Nyv7/47PjNJVNJEDA9y+x1P7p6K6BeidnbRvtn5S/tHwEI3ZW/jkf8Srxd9j/Aa33BOlcBdjdOXJ5b/799EpDfKMK/nfZP+2flLyt/Q6z9n1PGpni55B9f/Obo5KL7SAywHItyqj4twv9SjMujgaz8ZekP7Z/2HzICIC75j030fMl/bHzJf4UnVsSQFGBZltrrHnMKwIpcMbtaaP+0f9o/K3+tH/5pteqlfTEemn/c6RLbI6fGkRBgaWLsL4WL4P+PPgHIrVdW7L2AAND+af+0f2sKQKa45J9c4Qh+57iE/3ujE8pSSAYIGRbYa1fH5Na+fUUAxOSpEtBO+6f9IwCs/LVW+Gc0iEv+pV7Cv+jV0UmnbyYRIPTOA+yo29wnAOqIQ4Er9rUjAAgA7Z/2bwEBEK0/tbpf8LsJQDWP+EGInweoPdVPAgrOsvKX8EcAaP/mDn/1oF9SmefwTyh+d3RcaRqf/hDyzLFXjlmWW/dyPwnY2UT7RwBY+Uv7N6cApNZ4DH51xiWWvCKW+Wzikx/AeSsgty5meW7d6/0kYHcLK39Z+Uv7Z+WvTwKga/hnnBGtv9xr+I+NL/4Rp/wBPB4KrLlHBP8lVwlYvvsC7Z/2z8pf2r/x27/L430Dp+T1UcklD/ApDzDYlQB77c5+ArBDzJ5W2j8rf2n/rPw15srfzMFbvzjl3zZqy6kFfLoDyBwK3FFXdiX8a6+MeEfAcrEzgPZP+2flL+3fUO1f3Osfl1DqOfwTi98dFV+81WZTruFTHUCSKPvJUaL5P9cnAA4JaPAqAVoKQKi1f1b+IgAIwDDCP7NRGSda/zivl/xLfzY2tXQtn+YAw5KA6lnLdtS92k8C8lQJaKf90/5Z+Uv469T+z4nWX+0Ifue4hf8Hovnvtz3cE8anOIAfLCyoXymuBPxtMAlg5S/tn/aPAARFAMTb/MYllnsP//iSl0cnFN/CJzeAZlcCaj+yLLf+bU8SQPun/dP+Wfkb8PDfelYZJ9b2uga/mwB8IML/oO2hk6P4xAbQmAU5tfeK4H/fXQKW7Wlj5a9BBID2T/u3pACIR/vUQ36ewt8hAPElL/Eef4DAS8C3lufWXnIKwDJ1coeWANo/7Z+Vv6z89Tn8M64e8vM4SSXvjokvKeBeP0CQiN5WnSgk4HKfAEhIACt/WflL+6f9ywuA98v9Vy/7l3aOTSxbxScyQLAlILs6Y5mrADgkoF5ZJt4YSPun/bPyl/Y/vPA/p4xPrxv0cv+4xNLXRyeUJvBcP4COLNxRnzVAAsQbA90lAAFg5S/tn/Y/pABk1CvjxeX+8Yklg4R/2ekxaeVz+PQFMMqVAHE7YIAI7Gom/Gn/rPxl5e/Q4b+1URkvLverwe89/Ev/e0xK+Z184gIYTQKyqpNE6F8aIAEFTQgAK39p/7R/LwJwVhkvXubjDH6PApBU8s6Y+NI8W+yRkXzSAhiUBTl1/7p0R+0HrgKw1C4m/4wI+DZW/tL+WfnLyt+r9/nTakTYlw4a/uOTSqtHxpYu5NMVwARE5dR8Zam97p1+AqCOeEJgqdgkSPtn5S/tP5Tb/5UDfuOTygYEfz8BSCz75ZjEsrv4RAUw2+2AnNqPiy2Cf+8Lf+eIw4FLd11g5S/tn/Yfiit/M+r6Dvh5DX9xul+8zS/TZm8awScpgFmvBNir1y6x1/xugASo43YugPZP+6f9W7j9i/f2j08ePPjFrYD3xyeUnBgbXz6TT08ACzDXXjNvsb325x4loPdcAO2f9h9qAhAy7V+s6Z2QXKFMSCoZKvzPjk2qXMMnJoDFmG4/NW7x9tp6jxKwo15Zsus87T/EBYD2b7Hwdwn+QcM/qeTnYxPLP8OnJIClUa4R5wIOiicELrtLwBJ1xC0BVv7S/hEAkwuAW/B7E4BxCcWvjkko+xfe4gcQSucCsqsfEucC3r4a/jVXJ7dRWbK7lfaPABD+Zgt/cY/fU/B7CP+/jE0syeB5foAQJSK3aoNo/b8eIACOqVOW7Gxh5S/hjwCYQQDEa3sniMN9noLfTQDeGJdYUjDFXjOBT0CAUL8SYG+atGh7be1AAeidPPVqQBvtHwFg5a/hwl8Ef/rQwa+OeKTvH2IOjU+unManHgD0Y0FOTZa4GvCeZxFQrwY00/5Z+Uv7N4IAiMY/Mb1WmSgR/OJU/9sTEkuPs7AHAAYlMqvsZvGUwK88ScDi7WLEGwQXi7MBtH/aPyt/dVj5K97VPzG9Rpko3tw3Mal08PBPLnvHEfwJxbP5ZAMAKRaJe4MLs6t/6lEAHFOrLM5v8ksAQq39s/KX9u+XAIjtfBNTKx2h7zoegz+x+C0R/IcIfgAYNlE5tfct2V7zWv/wdxnx3oDF4pAg7Z/2T/sPxMpfcZlfHOybmFI+IPg9hn9i6d/GJpbt4h4/AGhzS2Br3eyF2TXVHgVg+8DbAggA7Z/272f7d7vM722uhn/p78SK3qxpaeXj+cQCgABcDaj6xuKcmr94F4FaZVHeWWXRrlbCn/avmQCEVPvPbFAmpVUNGvr9wj+h9OVxCaXftj3cE8YnFAAElFmZNdPVswGL7TWXPUnAohwxqgjknxNB34oABEAAaP8Wa/+i7U8Sp/knicv8k5JLJcO/9Pz4uLK7eXMfAOhwW6D8ThH2rwwIf9fZXidEoCngh/9o/wiA+dp/k2j79Y62r4a+63gN/uTSdycml/xkTGrxej6BAEBXYuwvhS+w1+Qv2l7zD48C4EUEaP+s/A3Z9r/1jGj7NSLoywYEv9fwTy7944SkinxO9AOA4YjIqIqOzq4uFWF/2asE9IrAwrwmEe6trPyl/YfOyt9tzkv8FR5D36sAJJd1Tkgq+zr39wHA8MzLrvmwEIHnB5OAhTnVykJxRmBh3rlBRYD2z8pfU7d/cYl/srjEP1k8tz9U6LuF/5tiToxJKlrHJwoAmO+KQFbVN8Rjg7/xGP6uo4pA7hkR+BdY+Uv7N78AOEK/QZks7utPFoHuHDkBKHtuXGL5Fh7jAwDTs+GJnrCIrJo08cTAn7wKgOvsaFQWihcK0f5Z+Wuq8PcS+lLhn1L690lJJScmZlRt4BMDACzHHHvlmKicSru4NfDaoALgHHu9Ei3OCUSL2wOs/KX9G1IAnJf3vYT+EALwgZizE5IrHrQ9dHIUnxAAYHmm20+Ni9hWaVevCAwmAEIUeqdGiRa3B6ILWmj/tH/9H/0TB/mmZNYpU9Iqhgx9T+E/MbH0ZbGYJ2d0bPE8Pg0AICSZl3hqdMTWqvSFOVW/HVwAXEY8PRAtDg1G72yl/dP+g9f+xfKdKRk1ypTUCmVKSlnfSAuAeD2vmKNc4gcAcOXeU9fN31r1TdH0fz5o+LuPuEWwQMgA7d8YAmCp9q+2/K31ypT0qn6B7z6DBn9K2V8mJZc8NTGl+BO8pQ8AYAiECHx6QXZNnQj4D2QkYIFjapQF9gYhA02GEgDav4kEIKdJmZrVoEz10PJ9C/+y1yYnl/9wQmrZHarY8hMNAOCrCGyrWRi5reqICPfXBg9/9xEysL33ykAB7Z+Vv17Cvy/wa5Wp4vn8qallfSMT/q4CIB7b+4N6gl8c5rud0AcA0Igo+8lR87ZVfSsqq7pDhP7loQXAbXLqlKgdZ5Wo/POs/A3l9p99Tpm61XPgDy/8y/5T3NMvHJ9afguX9wEAAkyEvWZFVFZNoQj23y2QFICobVVXR1wdiBK3CqJym5Soggu0f6uu/BWH9qZln1GmiXv40zKqRbBXeA18aQFILXtXhH7TxJTy1AmplYv5aQQA0AXlmnmZtXdEbqs8HbWt+i1pAXCfnFpxdaDRIQSRImRZ+WvG9q+G/VllmricPy2zRpmWXqlME0HuOn6E/2+mJJWdFO/hv4e38gEAGAz15UJzs6ofjMyqqhKB/7Z0+LtMpHOya5XI7Q1KZO45JTKvhfZvtPa/vUmZLsJ+ujPs0waG/XDD3yEAqWV/n5JSXjMppTxpfHLlMn66AABMgvqCIYcMbKsuFQLwhs8CMGCqlUhxhiDS3iikoEmJEFJA+w9C+xetfrq4Zz89q1GZvrVOmS4u408XzX56WnnfDBX8UgKQUvbW1JSKJvEa3tzJ6SW32uz2a/kpAgAwOTH2l8LnZFXeJa4MnBC3CX7je/j3H7HUqHeqlQhxpSBie6MSYT+rROQ2KxEiqGn/PgqAuHw/Y/s5ZUZ2ozIjq16ZsbVWmaEGvXi7nmvQexo/wl80/NJ6EfjbJ6WXf8hmbxrBTwoAgMWZlV0XMzeramvk1spmIQRvD18AvM0VMZif06DMF3IwXzx5MF/Iwfy88wEXAEOGv71ZmZlzTpkpDuPN2NYgQr5OmSEu28/IqFJmiJCfIYLcfaZLjqQAXJ6SWv7KlOTSf5+UWhE7eWvtak7rAwBwdSB8XnrN7fO3Vh+M2FbdIwL8ff/C/8rM31rpZcTfy6pR5mfXOQRhnjrbzyrz7OeUeTualXlCFOYJUTB2+28R06zMEv/Ns8R/+6ycM8pMEewzRXufKcJ95tYaZWZmlTIzo1KZmV7ebzyFveYCkFb+J9HwGyenVeRPSqz4/PjNJVP5nQ4AAIOiHiSclV5x+5yMqt1iN8F5EfqvaysA/WfeYCOuJMzbViOmVpmrjpCGudn1ylwhDY7ZfqZ3zvbNnEHnjGNmi8Cene2cRjENvVN/ZbbVialVZokgn5VZLaZKmSXa+ixx7118bQaMe8h7mwCE/yVx7/7X01IrqienlO+clFh595S0GpbqAACAFojHDO21q+dkVG6Zl1n59PzMqhdFwL8b8PB3mbmZcjMns0JqZmfIjaew100AUsv/PD21tF2E/XemplXGTc4su43H8QAAILiIA2Ozsiuun5NeuXleVtWTIqTb5mdV/clKAqBT+P9TBP1/icCvnZ5acWRyavm3xSG9j4jH8Kbxmw4AAAzLrMya6TNTyj4xe2t1/NytlY+JUG6ct7Xqv0XYv0v7d8x709PKXp2RXtkpQv70jPSKfVPTKh6Zklj6qYkpFQs4mAcAABZDuWamCDhxG+FTszMr/3X21sqdczMqfjA3s+qc+OPLQhJeE2F/ycTt/58izH87M73yxRnp5Y3T08t+Iv78oLhHnzItvex+9bn6yemVETxbDwAA4I64rSBuKUTMyCy5aUZazRfEKfpviYN36bPSq/fMzqx6UoT3T2dnVFbPyahoFfOsmJfFX/uVkIjfzcmsfE3MG+Kv/VP8+Xvir19yC/7L4u9/IP7590XA/3N2ZsWbs9Mr/iZk5E+zMip+Oyuj/Fez0yt/If7e8+LP22emV5wRUzEzrfzHMzOqnpiVVnlgWnpFzvSUyripaaUPTkuvunOquAUyI7V0ofrCJb55AAAAAAAAAAAAAAAAAAAAAAAAAAAAAAAAAAAAAAAAAAAAAAAAAAAAAAAAAAAAAAAAAAAAAAAAAAAAAAAAAAAAAAAAAAAAAAAAAAAAAAAAAAAAAAAAAAAAAAAAAAAAAAAAAAAAAAAAAAAAAAAAAAAAAAAAAAAAAAAAAAAAAAAAAAAAAAAAAAAAAAAAAAAAAAAAAAAAAAAAAAAAAAAAAAAAAAAAAAAAAAAAAAAAAAAAAAAAAAAAAAAAAAAAAAAAAAAAAAAAAAAAAAAAAAAAAAAAAAAAAAAAAAAAAAAAAAAAAAAAAAAAAAAAAAAAAAAAAAAAAAAAAAAAAAAAAAAAAAAAAL7x/wGr8rr4h0l4pwAAAABJRU5ErkJggg==;" vertex="1" parent="QThOkOYovAdt5dILF7DS-49">
          <mxGeometry x="143" width="42" height="42" as="geometry" />
        </mxCell>
        <mxCell id="QThOkOYovAdt5dILF7DS-52" style="edgeStyle=orthogonalEdgeStyle;rounded=0;orthogonalLoop=1;jettySize=auto;html=1;exitX=1;exitY=0.5;exitDx=0;exitDy=0;entryX=0;entryY=0.5;entryDx=0;entryDy=0;" edge="1" parent="1" source="QThOkOYovAdt5dILF7DS-6" target="QThOkOYovAdt5dILF7DS-2">
          <mxGeometry relative="1" as="geometry" />
        </mxCell>
        <mxCell id="QThOkOYovAdt5dILF7DS-53" style="edgeStyle=orthogonalEdgeStyle;rounded=0;orthogonalLoop=1;jettySize=auto;html=1;exitX=1;exitY=0.5;exitDx=0;exitDy=0;entryX=0;entryY=0.5;entryDx=0;entryDy=0;" edge="1" parent="1" source="QThOkOYovAdt5dILF7DS-6" target="QThOkOYovAdt5dILF7DS-5">
          <mxGeometry relative="1" as="geometry" />
        </mxCell>
        <mxCell id="QThOkOYovAdt5dILF7DS-54" style="edgeStyle=orthogonalEdgeStyle;rounded=0;orthogonalLoop=1;jettySize=auto;html=1;exitX=1;exitY=0.5;exitDx=0;exitDy=0;entryX=0;entryY=0.5;entryDx=0;entryDy=0;shadow=1;" edge="1" parent="1" source="QThOkOYovAdt5dILF7DS-5" target="QThOkOYovAdt5dILF7DS-8">
          <mxGeometry relative="1" as="geometry" />
        </mxCell>
        <mxCell id="QThOkOYovAdt5dILF7DS-55" style="rounded=0;orthogonalLoop=1;jettySize=auto;html=1;exitX=0.5;exitY=1;exitDx=0;exitDy=0;entryX=0.5;entryY=0;entryDx=0;entryDy=0;shadow=1;" edge="1" parent="1" source="QThOkOYovAdt5dILF7DS-8" target="QThOkOYovAdt5dILF7DS-44">
          <mxGeometry relative="1" as="geometry" />
        </mxCell>
        <mxCell id="QThOkOYovAdt5dILF7DS-56" style="edgeStyle=orthogonalEdgeStyle;rounded=0;orthogonalLoop=1;jettySize=auto;html=1;exitX=0.5;exitY=0;exitDx=0;exitDy=0;entryX=0.5;entryY=1;entryDx=0;entryDy=0;shadow=1;" edge="1" parent="1" source="QThOkOYovAdt5dILF7DS-8" target="QThOkOYovAdt5dILF7DS-9">
          <mxGeometry relative="1" as="geometry" />
        </mxCell>
        <mxCell id="QThOkOYovAdt5dILF7DS-57" style="edgeStyle=orthogonalEdgeStyle;rounded=0;orthogonalLoop=1;jettySize=auto;html=1;exitX=0.5;exitY=1;exitDx=0;exitDy=0;entryX=0;entryY=0.25;entryDx=0;entryDy=0;flowAnimation=0;shadow=1;" edge="1" parent="1" source="QThOkOYovAdt5dILF7DS-7" target="QThOkOYovAdt5dILF7DS-8">
          <mxGeometry relative="1" as="geometry" />
        </mxCell>
        <mxCell id="QThOkOYovAdt5dILF7DS-60" value="&lt;font style=&quot;font-size: 18px;&quot;&gt;Dataset loca&lt;/font&gt;&lt;span style=&quot;font-size: 18px; background-color: transparent; color: light-dark(rgb(0, 0, 0), rgb(255, 255, 255));&quot;&gt;tion&lt;/span&gt;" style="text;html=1;align=center;verticalAlign=middle;whiteSpace=wrap;rounded=0;" vertex="1" parent="1">
          <mxGeometry x="140" y="340" width="60" height="30" as="geometry" />
        </mxCell>
        <mxCell id="QThOkOYovAdt5dILF7DS-61" value="&lt;span style=&quot;font-size: 18px;&quot;&gt;EDA&lt;/span&gt;" style="text;html=1;align=center;verticalAlign=middle;whiteSpace=wrap;rounded=0;" vertex="1" parent="1">
          <mxGeometry x="400" y="220" width="60" height="30" as="geometry" />
        </mxCell>
        <mxCell id="QThOkOYovAdt5dILF7DS-62" value="&lt;span style=&quot;font-size: 18px;&quot;&gt;Models and training&lt;/span&gt;" style="text;html=1;align=center;verticalAlign=middle;whiteSpace=wrap;rounded=0;" vertex="1" parent="1">
          <mxGeometry x="370" y="460" width="120" height="30" as="geometry" />
        </mxCell>
        <mxCell id="QThOkOYovAdt5dILF7DS-64" value="&lt;span style=&quot;font-size: 18px;&quot;&gt;Model deployment&lt;/span&gt;" style="text;html=1;align=center;verticalAlign=middle;whiteSpace=wrap;rounded=0;" vertex="1" parent="1">
          <mxGeometry x="540" y="374" width="120" height="30" as="geometry" />
        </mxCell>
        <mxCell id="QThOkOYovAdt5dILF7DS-66" value="" style="shape=flexArrow;endArrow=classic;startArrow=classic;html=1;rounded=0;" edge="1" parent="1">
          <mxGeometry width="100" height="100" relative="1" as="geometry">
            <mxPoint x="644.5699999999999" y="290" as="sourcePoint" />
            <mxPoint x="644.5699999999999" y="180" as="targetPoint" />
          </mxGeometry>
        </mxCell>
        <mxCell id="QThOkOYovAdt5dILF7DS-67" value="&lt;span style=&quot;font-size: 18px;&quot;&gt;Metadata&lt;/span&gt;" style="text;html=1;align=center;verticalAlign=middle;whiteSpace=wrap;rounded=0;" vertex="1" parent="1">
          <mxGeometry x="840" y="220" width="60" height="30" as="geometry" />
        </mxCell>
        <mxCell id="QThOkOYovAdt5dILF7DS-68" value="&lt;span style=&quot;font-size: 18px;&quot;&gt;Storage&lt;/span&gt;" style="text;html=1;align=center;verticalAlign=middle;whiteSpace=wrap;rounded=0;" vertex="1" parent="1">
          <mxGeometry x="840" y="580" width="60" height="30" as="geometry" />
        </mxCell>
        <mxCell id="QThOkOYovAdt5dILF7DS-69" value="&lt;span style=&quot;font-size: 18px;&quot;&gt;Model registry&lt;/span&gt;" style="text;html=1;align=center;verticalAlign=middle;whiteSpace=wrap;rounded=0;" vertex="1" parent="1">
          <mxGeometry x="705" y="425" width="60" height="30" as="geometry" />
        </mxCell>
        <mxCell id="QThOkOYovAdt5dILF7DS-70" value="Request&lt;br&gt;port 8000" style="shape=umlActor;verticalLabelPosition=bottom;verticalAlign=top;html=1;outlineConnect=0;" vertex="1" parent="1">
          <mxGeometry x="630" y="90" width="30" height="60" as="geometry" />
        </mxCell>
      </root>
    </mxGraphModel>
  </diagram>
</mxfile>
